M48
;Layer_Color=9474304
;FILE_FORMAT=2:5
INCH,LZ
;TYPE=PLATED
T1F00S00C0.03937
T2F00S00C0.10827
%
T01
X012Y0125
Y0135
Y015
X013
X0136221Y013
X015
X0163779
X0176221
X019
X020378
X0195Y015
X0165
Y011
X0195
X0235Y012
X0245
X0226339Y0145
X0265
Y0155
X0275
Y0145
Y0165
Y0175
Y0185
Y0195
Y0205
Y0215
Y0225
Y0235
Y0245
X0265
Y0255
Y0265
Y0275
Y0285
Y0295
Y0305
X0275
Y0295
Y0285
Y0275
Y0265
Y0255
X0265Y0235
Y0225
Y0215
Y0205
Y0195
Y0185
Y0175
Y0165
X022Y019
X020378
X019
X0176221
X0163779
X0165Y021
Y023
X0163779Y025
X0176221
X019
X020378
X0195Y027
Y029
X0215Y0289
X0214Y03
X020378Y031
X019
X0176221
X0163779
X0165Y029
Y027
X0195Y023
Y021
Y017
X0165
X024Y0225
Y0235
X015Y025
X0136221
X012Y0245
Y0255
Y027
X013
X012Y0305
X0136221Y031
X015
X013Y021
X012
Y019378
Y018378
X0136221Y019
X015
X012Y0315
Y033
X013
X012Y035
Y036
X0125Y0379724
X0135
X0125Y04
X0115
X012Y042
X0145
X0155
X0165
X0175
X0185
X0195
X0205
X0215
X0225
X0235
X0245
X0255
X028
X0275Y04
X0265
X025Y037
X0265Y0335
X0275
Y0325
X0265
Y0315
X0275
X0195Y033
X0165
X0205Y04
X0215
Y048
X0205
X0195
X0185
X0175
X0165
X0225
X0235
X0245
X0255
X028Y049
X0155Y048
X0145
X012Y049
T02
X0270945Y0125433
X0178898Y0354567
M30
