G04*
G04 #@! TF.GenerationSoftware,Altium Limited,Altium Designer,18.1.9 (240)*
G04*
G04 Layer_Physical_Order=1*
G04 Layer_Color=255*
%FSLAX25Y25*%
%MOIN*%
G70*
G01*
G75*
%ADD24C,0.05906*%
%ADD25O,0.05906X0.11811*%
%ADD26C,0.05906*%
%ADD27R,0.05906X0.05906*%
%ADD28R,0.05906X0.05906*%
%ADD29O,0.11811X0.05906*%
%ADD30C,0.07874*%
%ADD31O,0.07874X0.05906*%
%ADD32O,0.24409X0.20000*%
%ADD33C,0.24410*%
%ADD34O,0.11811X0.05906*%
G36*
X300000Y100000D02*
X100000D01*
Y500000D01*
X300000D01*
Y100000D01*
D02*
G37*
%LPC*%
G36*
X282953Y496011D02*
Y492953D01*
X286011D01*
X285592Y493736D01*
X284755Y494756D01*
X283736Y495592D01*
X282953Y496011D01*
D02*
G37*
G36*
X122953D02*
Y492953D01*
X126011D01*
X125592Y493736D01*
X124756Y494756D01*
X123736Y495592D01*
X122953Y496011D01*
D02*
G37*
G36*
X277047D02*
X276264Y495592D01*
X275244Y494756D01*
X274408Y493736D01*
X273989Y492953D01*
X277047D01*
Y496011D01*
D02*
G37*
G36*
X117047D02*
X116264Y495592D01*
X115244Y494756D01*
X114408Y493736D01*
X113989Y492953D01*
X117047D01*
Y496011D01*
D02*
G37*
G36*
X255000Y488711D02*
X253510Y488515D01*
X252121Y487939D01*
X250928Y487024D01*
X250315Y486225D01*
X249685D01*
X249072Y487024D01*
X247879Y487939D01*
X246490Y488515D01*
X245000Y488711D01*
X243510Y488515D01*
X242121Y487939D01*
X240929Y487024D01*
X240315Y486225D01*
X239685D01*
X239071Y487024D01*
X237879Y487939D01*
X236490Y488515D01*
X235000Y488711D01*
X233510Y488515D01*
X232121Y487939D01*
X230928Y487024D01*
X230315Y486225D01*
X229685D01*
X229071Y487024D01*
X227879Y487939D01*
X226490Y488515D01*
X225000Y488711D01*
X223510Y488515D01*
X222121Y487939D01*
X220929Y487024D01*
X220315Y486225D01*
X219685D01*
X219072Y487024D01*
X217879Y487939D01*
X216490Y488515D01*
X215000Y488711D01*
X213510Y488515D01*
X212121Y487939D01*
X210929Y487024D01*
X210315Y486225D01*
X209685D01*
X209071Y487024D01*
X207879Y487939D01*
X206490Y488515D01*
X205000Y488711D01*
X203510Y488515D01*
X202121Y487939D01*
X200928Y487024D01*
X200315Y486225D01*
X199685D01*
X199072Y487024D01*
X197879Y487939D01*
X196490Y488515D01*
X195000Y488711D01*
X193510Y488515D01*
X192121Y487939D01*
X190928Y487024D01*
X190315Y486225D01*
X189685D01*
X189072Y487024D01*
X187879Y487939D01*
X186490Y488515D01*
X185000Y488711D01*
X183510Y488515D01*
X182121Y487939D01*
X180929Y487024D01*
X180315Y486225D01*
X179685D01*
X179071Y487024D01*
X177879Y487939D01*
X176490Y488515D01*
X175000Y488711D01*
X173510Y488515D01*
X172121Y487939D01*
X170929Y487024D01*
X170315Y486225D01*
X169685D01*
X169071Y487024D01*
X167879Y487939D01*
X166490Y488515D01*
X165000Y488711D01*
X163510Y488515D01*
X162121Y487939D01*
X160928Y487024D01*
X160315Y486225D01*
X159685D01*
X159072Y487024D01*
X157879Y487939D01*
X156490Y488515D01*
X155000Y488711D01*
X153510Y488515D01*
X152121Y487939D01*
X150928Y487024D01*
X150315Y486225D01*
X149685D01*
X149072Y487024D01*
X147879Y487939D01*
X146490Y488515D01*
X145000Y488711D01*
X143510Y488515D01*
X142121Y487939D01*
X140928Y487024D01*
X140014Y485832D01*
X139438Y484443D01*
X139242Y482953D01*
Y477047D01*
X139438Y475557D01*
X140014Y474168D01*
X140928Y472976D01*
X142121Y472061D01*
X143510Y471486D01*
X145000Y471289D01*
X146490Y471486D01*
X147879Y472061D01*
X149072Y472976D01*
X149685Y473775D01*
X150315D01*
X150928Y472976D01*
X152121Y472061D01*
X153510Y471486D01*
X155000Y471289D01*
X156490Y471486D01*
X157879Y472061D01*
X159072Y472976D01*
X159685Y473775D01*
X160315D01*
X160928Y472976D01*
X162121Y472061D01*
X163510Y471486D01*
X165000Y471289D01*
X166490Y471486D01*
X167879Y472061D01*
X169071Y472976D01*
X169685Y473775D01*
X170315D01*
X170929Y472976D01*
X172121Y472061D01*
X173510Y471486D01*
X175000Y471289D01*
X176490Y471486D01*
X177879Y472061D01*
X179071Y472976D01*
X179685Y473775D01*
X180315D01*
X180929Y472976D01*
X182121Y472061D01*
X183510Y471486D01*
X185000Y471289D01*
X186490Y471486D01*
X187879Y472061D01*
X189072Y472976D01*
X189685Y473775D01*
X190315D01*
X190928Y472976D01*
X192121Y472061D01*
X193510Y471486D01*
X195000Y471289D01*
X196490Y471486D01*
X197879Y472061D01*
X199072Y472976D01*
X199685Y473775D01*
X200315D01*
X200928Y472976D01*
X202121Y472061D01*
X203510Y471486D01*
X205000Y471289D01*
X206490Y471486D01*
X207879Y472061D01*
X209071Y472976D01*
X209685Y473775D01*
X210315D01*
X210929Y472976D01*
X212121Y472061D01*
X213510Y471486D01*
X215000Y471289D01*
X216490Y471486D01*
X217879Y472061D01*
X219072Y472976D01*
X219685Y473775D01*
X220315D01*
X220929Y472976D01*
X222121Y472061D01*
X223510Y471486D01*
X225000Y471289D01*
X226490Y471486D01*
X227879Y472061D01*
X229071Y472976D01*
X229685Y473775D01*
X230315D01*
X230928Y472976D01*
X232121Y472061D01*
X233510Y471486D01*
X235000Y471289D01*
X236490Y471486D01*
X237879Y472061D01*
X239071Y472976D01*
X239685Y473775D01*
X240315D01*
X240929Y472976D01*
X242121Y472061D01*
X243510Y471486D01*
X245000Y471289D01*
X246490Y471486D01*
X247879Y472061D01*
X249072Y472976D01*
X249685Y473775D01*
X250315D01*
X250928Y472976D01*
X252121Y472061D01*
X253510Y471486D01*
X255000Y471289D01*
X256490Y471486D01*
X257879Y472061D01*
X259071Y472976D01*
X259986Y474168D01*
X260562Y475557D01*
X260758Y477047D01*
Y482953D01*
X260562Y484443D01*
X259986Y485832D01*
X259071Y487024D01*
X257879Y487939D01*
X256490Y488515D01*
X255000Y488711D01*
D02*
G37*
G36*
X286011Y487047D02*
X282953D01*
Y483989D01*
X283736Y484408D01*
X284755Y485245D01*
X285592Y486264D01*
X286011Y487047D01*
D02*
G37*
G36*
X126011D02*
X122953D01*
Y483989D01*
X123736Y484408D01*
X124756Y485245D01*
X125592Y486264D01*
X126011Y487047D01*
D02*
G37*
G36*
X277047D02*
X273989D01*
X274408Y486264D01*
X275244Y485245D01*
X276264Y484408D01*
X277047Y483989D01*
Y487047D01*
D02*
G37*
G36*
X117047D02*
X113989D01*
X114408Y486264D01*
X115244Y485245D01*
X116264Y484408D01*
X117047Y483989D01*
Y487047D01*
D02*
G37*
G36*
X282027Y437372D02*
X229163D01*
X227673Y437176D01*
X226284Y436601D01*
X225092Y435686D01*
X220929Y431522D01*
X220013Y430330D01*
X219617Y429372D01*
X219044Y429297D01*
X219033Y429311D01*
X212659Y435686D01*
X211467Y436601D01*
X210078Y437176D01*
X208588Y437372D01*
X141412D01*
X139922Y437176D01*
X138533Y436601D01*
X137341Y435686D01*
X132267Y430612D01*
X131352Y429419D01*
X130777Y428031D01*
X130581Y426540D01*
Y413460D01*
X130777Y411969D01*
X131352Y410581D01*
X132267Y409388D01*
X151242Y390413D01*
Y352045D01*
X151438Y350554D01*
X152014Y349166D01*
X152928Y347973D01*
X163851Y337051D01*
X163825Y336978D01*
X163619Y336575D01*
X162426Y336213D01*
X161264Y335592D01*
X160245Y334755D01*
X159408Y333736D01*
X158787Y332574D01*
X158404Y331312D01*
X158275Y330000D01*
X158404Y328688D01*
X158787Y327426D01*
X159408Y326264D01*
X160245Y325244D01*
X161264Y324408D01*
X162426Y323787D01*
X163688Y323404D01*
X165000Y323275D01*
X166312Y323404D01*
X167574Y323787D01*
X168736Y324408D01*
X169755Y325244D01*
X170592Y326264D01*
X171213Y327426D01*
X171596Y328688D01*
X171725Y330000D01*
X171596Y331312D01*
X171213Y332574D01*
X171161Y332671D01*
X171418Y333100D01*
X188582D01*
X188839Y332671D01*
X188787Y332574D01*
X188404Y331312D01*
X188275Y330000D01*
X188404Y328688D01*
X188787Y327426D01*
X189408Y326264D01*
X190244Y325244D01*
X191264Y324408D01*
X192426Y323787D01*
X193688Y323404D01*
X195000Y323275D01*
X196312Y323404D01*
X197574Y323787D01*
X198736Y324408D01*
X199756Y325244D01*
X200592Y326264D01*
X201213Y327426D01*
X201481Y328310D01*
X202047Y328451D01*
X218888Y311610D01*
Y305373D01*
X218414Y305212D01*
X218072Y305659D01*
X216879Y306574D01*
X215490Y307149D01*
X214000Y307346D01*
X212510Y307149D01*
X211121Y306574D01*
X210057Y305758D01*
X208350D01*
X208104Y306258D01*
X208766Y307121D01*
X209341Y308510D01*
X209537Y310000D01*
Y315905D01*
X209341Y317396D01*
X208766Y318784D01*
X207851Y319977D01*
X206659Y320892D01*
X205270Y321467D01*
X203780Y321663D01*
X202289Y321467D01*
X200901Y320892D01*
X199708Y319977D01*
X198793Y318784D01*
X198218Y317396D01*
X198022Y315905D01*
Y310000D01*
X198218Y308510D01*
X198793Y307121D01*
X199455Y306258D01*
X199209Y305758D01*
X194571D01*
X194324Y306258D01*
X194986Y307121D01*
X195562Y308510D01*
X195758Y310000D01*
Y315905D01*
X195562Y317396D01*
X194986Y318784D01*
X194071Y319977D01*
X192879Y320892D01*
X191490Y321467D01*
X190000Y321663D01*
X188510Y321467D01*
X187121Y320892D01*
X185928Y319977D01*
X185013Y318784D01*
X184438Y317396D01*
X184242Y315905D01*
Y310000D01*
X184438Y308510D01*
X185013Y307121D01*
X185676Y306258D01*
X185429Y305758D01*
X180791D01*
X180545Y306258D01*
X181207Y307121D01*
X181782Y308510D01*
X181978Y310000D01*
Y315905D01*
X181782Y317396D01*
X181207Y318784D01*
X180292Y319977D01*
X179099Y320892D01*
X177711Y321467D01*
X176221Y321663D01*
X174730Y321467D01*
X173342Y320892D01*
X172149Y319977D01*
X171234Y318784D01*
X170659Y317396D01*
X170463Y315905D01*
Y310000D01*
X170659Y308510D01*
X171234Y307121D01*
X171896Y306258D01*
X171650Y305758D01*
X168350D01*
X168104Y306258D01*
X168766Y307121D01*
X169341Y308510D01*
X169537Y310000D01*
Y310000D01*
X163779D01*
Y312953D01*
X160827D01*
Y320835D01*
X159708Y319977D01*
X158793Y318784D01*
X158218Y317396D01*
X158022Y315905D01*
Y310775D01*
X157560Y310583D01*
X155758Y312385D01*
Y312953D01*
X155562Y314443D01*
X154987Y315832D01*
X154071Y317024D01*
X152879Y317939D01*
X151490Y318514D01*
X150000Y318711D01*
X148510Y318514D01*
X147121Y317939D01*
X145929Y317024D01*
X145013Y315832D01*
X144438Y314443D01*
X144242Y312953D01*
Y307047D01*
X144438Y305557D01*
X145013Y304168D01*
X145929Y302976D01*
X147121Y302061D01*
X148510Y301485D01*
X150000Y301289D01*
X150502Y301355D01*
X155929Y295929D01*
X157121Y295013D01*
X158510Y294438D01*
X159496Y294308D01*
X159717Y293775D01*
X159086Y292953D01*
X170914D01*
X170308Y293742D01*
X170555Y294242D01*
X189445D01*
X189691Y293742D01*
X189029Y292879D01*
X188454Y291490D01*
X188258Y290000D01*
X188454Y288510D01*
X189029Y287121D01*
X189944Y285929D01*
X190011Y285877D01*
X189851Y285404D01*
X170149D01*
X169989Y285877D01*
X170056Y285929D01*
X170914Y287047D01*
X159086D01*
X159944Y285929D01*
X160165Y285759D01*
X160036Y285276D01*
X159514Y285207D01*
X158126Y284632D01*
X156933Y283717D01*
X145929Y272712D01*
X145013Y271520D01*
X144438Y270131D01*
X144242Y268641D01*
Y252953D01*
Y250000D01*
Y247047D01*
X144438Y245557D01*
X145013Y244168D01*
X145929Y242976D01*
X147121Y242061D01*
X148510Y241486D01*
X150000Y241289D01*
X151490Y241486D01*
X152879Y242061D01*
X154071Y242976D01*
X154987Y244168D01*
X155562Y245557D01*
X155758Y247047D01*
Y252953D01*
Y266256D01*
X157953Y268451D01*
X158519Y268310D01*
X158787Y267426D01*
X159408Y266264D01*
X160245Y265245D01*
X161264Y264408D01*
X162426Y263787D01*
X163688Y263404D01*
X165000Y263275D01*
X166312Y263404D01*
X167574Y263787D01*
X168736Y264408D01*
X169755Y265245D01*
X170592Y266264D01*
X171213Y267426D01*
X171596Y268688D01*
X171725Y270000D01*
X171596Y271312D01*
X171213Y272574D01*
X170778Y273388D01*
X171078Y273888D01*
X188922D01*
X189222Y273388D01*
X188787Y272574D01*
X188404Y271312D01*
X188275Y270000D01*
X188404Y268688D01*
X188787Y267426D01*
X189408Y266264D01*
X190244Y265245D01*
X191264Y264408D01*
X192426Y263787D01*
X193688Y263404D01*
X195000Y263275D01*
X196312Y263404D01*
X197574Y263787D01*
X198736Y264408D01*
X199756Y265245D01*
X200592Y266264D01*
X201213Y267426D01*
X201596Y268688D01*
X201725Y270000D01*
X201596Y271312D01*
X201213Y272574D01*
X200778Y273388D01*
X201078Y273888D01*
X204646D01*
X206136Y274084D01*
X207525Y274659D01*
X208717Y275574D01*
X211481Y278339D01*
X211930Y278117D01*
X211919Y278036D01*
Y219872D01*
X212115Y218382D01*
X212691Y216993D01*
X213606Y215800D01*
X225800Y203606D01*
X226993Y202691D01*
X228382Y202115D01*
X229872Y201919D01*
X236014D01*
Y173228D01*
X236210Y171738D01*
X236785Y170349D01*
X237700Y169157D01*
X245929Y160928D01*
X246933Y160158D01*
X246989Y159571D01*
X246339Y159072D01*
X233406Y146139D01*
X233180Y146220D01*
X232920Y146360D01*
X232552Y147574D01*
X231930Y148736D01*
X231094Y149756D01*
X230075Y150592D01*
X228912Y151213D01*
X227651Y151596D01*
X226339Y151725D01*
X225026Y151596D01*
X223765Y151213D01*
X222913Y150758D01*
X216026D01*
X203067Y163717D01*
X201874Y164632D01*
X200486Y165207D01*
X200309Y165231D01*
X200126Y165696D01*
X200592Y166264D01*
X201213Y167426D01*
X201596Y168688D01*
X201725Y170000D01*
X201596Y171312D01*
X201213Y172574D01*
X200592Y173736D01*
X199756Y174756D01*
X198736Y175592D01*
X197574Y176213D01*
X196312Y176596D01*
X195000Y176725D01*
X193688Y176596D01*
X192426Y176213D01*
X191264Y175592D01*
X190244Y174756D01*
X189408Y173736D01*
X188787Y172574D01*
X188404Y171312D01*
X188275Y170000D01*
X188404Y168688D01*
X188787Y167426D01*
X189408Y166264D01*
X189743Y165856D01*
X189529Y165404D01*
X170471D01*
X170257Y165856D01*
X170592Y166264D01*
X171011Y167047D01*
X158989D01*
X159408Y166264D01*
X159874Y165696D01*
X159690Y165231D01*
X159514Y165207D01*
X158126Y164632D01*
X156933Y163717D01*
X145929Y152713D01*
X145013Y151520D01*
X144438Y150131D01*
X144242Y148641D01*
Y132953D01*
Y130000D01*
Y127047D01*
X144438Y125557D01*
X145013Y124168D01*
X145929Y122976D01*
X147121Y122061D01*
X148510Y121485D01*
X150000Y121289D01*
X151490Y121485D01*
X152879Y122061D01*
X154071Y122976D01*
X154987Y124168D01*
X155562Y125557D01*
X155758Y127047D01*
Y132953D01*
Y146256D01*
X157953Y148451D01*
X158519Y148310D01*
X158787Y147426D01*
X159408Y146264D01*
X160245Y145245D01*
X161264Y144408D01*
X162426Y143787D01*
X163688Y143404D01*
X165000Y143275D01*
X166312Y143404D01*
X167574Y143787D01*
X168736Y144408D01*
X169755Y145245D01*
X170592Y146264D01*
X171213Y147426D01*
X171596Y148688D01*
X171725Y150000D01*
X171596Y151312D01*
X171213Y152574D01*
X170778Y153388D01*
X171078Y153888D01*
X188922D01*
X189222Y153388D01*
X188787Y152574D01*
X188404Y151312D01*
X188275Y150000D01*
X188404Y148688D01*
X188787Y147426D01*
X189408Y146264D01*
X190244Y145245D01*
X191264Y144408D01*
X192426Y143787D01*
X193688Y143404D01*
X195000Y143275D01*
X196312Y143404D01*
X197574Y143787D01*
X198736Y144408D01*
X199756Y145245D01*
X200592Y146264D01*
X201213Y147426D01*
X201481Y148310D01*
X202047Y148451D01*
X209570Y140928D01*
X210762Y140014D01*
X212151Y139438D01*
X213641Y139242D01*
X222913D01*
X223765Y138787D01*
X224978Y138418D01*
X225119Y138159D01*
X225200Y137933D01*
X222267Y135000D01*
X221352Y133808D01*
X220777Y132419D01*
X220581Y130929D01*
Y113460D01*
X220777Y111969D01*
X221352Y110581D01*
X222267Y109388D01*
X228207Y103448D01*
X229399Y102533D01*
X230788Y101958D01*
X232278Y101762D01*
X278365D01*
X279855Y101958D01*
X281244Y102533D01*
X282436Y103448D01*
X294072Y115083D01*
X294987Y116276D01*
X295562Y117665D01*
X295758Y119155D01*
Y423641D01*
X295562Y425131D01*
X294987Y426520D01*
X294072Y427712D01*
X286098Y435686D01*
X284906Y436601D01*
X283517Y437176D01*
X282027Y437372D01*
D02*
G37*
G36*
X127953Y407883D02*
Y402953D01*
X130758D01*
Y402953D01*
X130562Y404443D01*
X129987Y405832D01*
X129071Y407024D01*
X127953Y407883D01*
D02*
G37*
G36*
X130758Y397047D02*
X127953D01*
Y392117D01*
X129071Y392976D01*
X129987Y394168D01*
X130562Y395557D01*
X130758Y397047D01*
Y397047D01*
D02*
G37*
G36*
X120000Y426725D02*
X118688Y426596D01*
X117426Y426213D01*
X116264Y425592D01*
X115244Y424755D01*
X114408Y423736D01*
X113787Y422574D01*
X113506Y421649D01*
X110928Y419071D01*
X110013Y417879D01*
X109438Y416490D01*
X109242Y415000D01*
Y402953D01*
Y400000D01*
Y397047D01*
X109438Y395557D01*
X110013Y394168D01*
X110928Y392976D01*
X112121Y392061D01*
X113510Y391486D01*
X115000Y391289D01*
X116490Y391486D01*
X117879Y392061D01*
X119071Y392976D01*
X119685Y393775D01*
X120315D01*
X120929Y392976D01*
X122047Y392117D01*
Y400000D01*
X125000D01*
D01*
X122047D01*
Y407883D01*
X121258Y407277D01*
X120758Y407523D01*
Y412615D01*
X121649Y413506D01*
X122574Y413787D01*
X123736Y414408D01*
X124756Y415244D01*
X125592Y416264D01*
X126213Y417426D01*
X126596Y418688D01*
X126725Y420000D01*
X126596Y421312D01*
X126213Y422574D01*
X125592Y423736D01*
X124756Y424755D01*
X123736Y425592D01*
X122574Y426213D01*
X121312Y426596D01*
X120000Y426725D01*
D02*
G37*
G36*
X137953Y387607D02*
Y382677D01*
X140758D01*
Y382677D01*
X140562Y384167D01*
X139987Y385556D01*
X139072Y386749D01*
X137953Y387607D01*
D02*
G37*
G36*
X140758Y376772D02*
X137953D01*
Y371842D01*
X139072Y372700D01*
X139987Y373893D01*
X140562Y375281D01*
X140758Y376772D01*
D02*
G37*
G36*
X125000Y388435D02*
X123510Y388239D01*
X122121Y387664D01*
X120929Y386749D01*
X120013Y385556D01*
X119438Y384167D01*
X119242Y382677D01*
Y376772D01*
X119438Y375281D01*
X120013Y373893D01*
X120929Y372700D01*
X122121Y371785D01*
X123510Y371210D01*
X125000Y371014D01*
X126490Y371210D01*
X127879Y371785D01*
X129071Y372700D01*
X129685Y373500D01*
X130315D01*
X130929Y372700D01*
X132047Y371842D01*
Y379724D01*
Y387607D01*
X130929Y386749D01*
X130315Y385949D01*
X129685D01*
X129071Y386749D01*
X127879Y387664D01*
X126490Y388239D01*
X125000Y388435D01*
D02*
G37*
G36*
X125709Y365709D02*
X114291D01*
Y354291D01*
X115467D01*
X115714Y353791D01*
X115070Y352953D01*
X120000D01*
X124930D01*
X124286Y353791D01*
X124533Y354291D01*
X125709D01*
Y365709D01*
D02*
G37*
G36*
X124930Y347047D02*
X122953D01*
Y345070D01*
X124072Y345929D01*
X124930Y347047D01*
D02*
G37*
G36*
X117047D02*
X115070D01*
X115928Y345929D01*
X117047Y345070D01*
Y347047D01*
D02*
G37*
G36*
X130000Y335758D02*
X128510Y335562D01*
X127121Y334986D01*
X126209Y334286D01*
X125709Y334533D01*
Y335709D01*
X114291D01*
Y324291D01*
X125709D01*
Y325467D01*
X126209Y325714D01*
X127121Y325013D01*
X128510Y324438D01*
X130000Y324242D01*
X131490Y324438D01*
X132879Y325013D01*
X134072Y325928D01*
X134986Y327121D01*
X135562Y328510D01*
X135758Y330000D01*
X135562Y331490D01*
X134986Y332879D01*
X134072Y334071D01*
X132879Y334986D01*
X131490Y335562D01*
X130000Y335758D01*
D02*
G37*
G36*
X166732Y320835D02*
Y315905D01*
X169537D01*
Y315905D01*
X169341Y317396D01*
X168766Y318784D01*
X167851Y319977D01*
X166732Y320835D01*
D02*
G37*
G36*
X122953Y320758D02*
X117047D01*
X115557Y320562D01*
X114168Y319987D01*
X112976Y319072D01*
X112061Y317879D01*
X111486Y316490D01*
X111289Y315000D01*
X111486Y313510D01*
X112061Y312121D01*
X112976Y310929D01*
X113775Y310315D01*
Y309685D01*
X112976Y309071D01*
X112117Y307953D01*
X120000D01*
X127883D01*
X127024Y309071D01*
X126225Y309685D01*
Y310315D01*
X127024Y310929D01*
X127939Y312121D01*
X128515Y313510D01*
X128711Y315000D01*
X128515Y316490D01*
X127939Y317879D01*
X127024Y319072D01*
X125832Y319987D01*
X124443Y320562D01*
X122953Y320758D01*
D02*
G37*
G36*
X136221Y318711D02*
X134730Y318514D01*
X133342Y317939D01*
X132149Y317024D01*
X131234Y315832D01*
X130659Y314443D01*
X130463Y312953D01*
Y307047D01*
X130659Y305557D01*
X131234Y304168D01*
X132149Y302976D01*
X133342Y302061D01*
X134730Y301485D01*
X136221Y301289D01*
X137711Y301485D01*
X139099Y302061D01*
X140292Y302976D01*
X141207Y304168D01*
X141782Y305557D01*
X141978Y307047D01*
Y312953D01*
X141782Y314443D01*
X141207Y315832D01*
X140292Y317024D01*
X139099Y317939D01*
X137711Y318514D01*
X136221Y318711D01*
D02*
G37*
G36*
X127883Y302047D02*
X122953D01*
Y299242D01*
X122953D01*
X124443Y299438D01*
X125832Y300013D01*
X127024Y300928D01*
X127883Y302047D01*
D02*
G37*
G36*
X117047D02*
X112117D01*
X112976Y300928D01*
X114168Y300013D01*
X115557Y299438D01*
X117047Y299242D01*
X117047D01*
Y302047D01*
D02*
G37*
G36*
X130000Y275758D02*
X128510Y275562D01*
X127121Y274987D01*
X126209Y274286D01*
X125709Y274533D01*
Y275709D01*
X114291D01*
Y264291D01*
X125709D01*
Y265467D01*
X126209Y265714D01*
X127121Y265014D01*
X128510Y264438D01*
X130000Y264242D01*
X131490Y264438D01*
X132879Y265014D01*
X134072Y265929D01*
X134986Y267121D01*
X135562Y268510D01*
X135758Y270000D01*
X135562Y271490D01*
X134986Y272879D01*
X134072Y274072D01*
X132879Y274987D01*
X131490Y275562D01*
X130000Y275758D01*
D02*
G37*
G36*
X166732Y257883D02*
Y252953D01*
X169537D01*
Y252953D01*
X169341Y254443D01*
X168766Y255832D01*
X167851Y257024D01*
X166732Y257883D01*
D02*
G37*
G36*
X160827D02*
X159708Y257024D01*
X158793Y255832D01*
X158218Y254443D01*
X158022Y252953D01*
Y252953D01*
X160827D01*
Y257883D01*
D02*
G37*
G36*
X122953Y260758D02*
X117047D01*
X115557Y260562D01*
X114168Y259986D01*
X112976Y259071D01*
X112061Y257879D01*
X111486Y256490D01*
X111289Y255000D01*
X111486Y253510D01*
X112061Y252121D01*
X112976Y250928D01*
X113775Y250315D01*
Y249685D01*
X112976Y249072D01*
X112117Y247953D01*
X120000D01*
X127883D01*
X127024Y249072D01*
X126225Y249685D01*
Y250315D01*
X127024Y250928D01*
X127939Y252121D01*
X128515Y253510D01*
X128711Y255000D01*
X128515Y256490D01*
X127939Y257879D01*
X127024Y259071D01*
X125832Y259986D01*
X124443Y260562D01*
X122953Y260758D01*
D02*
G37*
G36*
X169537Y247047D02*
X166732D01*
Y242117D01*
X167851Y242976D01*
X168766Y244168D01*
X169341Y245557D01*
X169537Y247047D01*
Y247047D01*
D02*
G37*
G36*
X160827D02*
X158022D01*
Y247047D01*
X158218Y245557D01*
X158793Y244168D01*
X159708Y242976D01*
X160827Y242117D01*
Y247047D01*
D02*
G37*
G36*
X203780Y258711D02*
X202289Y258514D01*
X200901Y257939D01*
X199708Y257024D01*
X198793Y255832D01*
X198218Y254443D01*
X198022Y252953D01*
Y247047D01*
X198218Y245557D01*
X198793Y244168D01*
X199708Y242976D01*
X200901Y242061D01*
X202289Y241486D01*
X203780Y241289D01*
X205270Y241486D01*
X206659Y242061D01*
X207851Y242976D01*
X208766Y244168D01*
X209341Y245557D01*
X209537Y247047D01*
Y252953D01*
X209341Y254443D01*
X208766Y255832D01*
X207851Y257024D01*
X206659Y257939D01*
X205270Y258514D01*
X203780Y258711D01*
D02*
G37*
G36*
X190000D02*
X188510Y258514D01*
X187121Y257939D01*
X185928Y257024D01*
X185013Y255832D01*
X184438Y254443D01*
X184242Y252953D01*
Y247047D01*
X184438Y245557D01*
X185013Y244168D01*
X185928Y242976D01*
X187121Y242061D01*
X188510Y241486D01*
X190000Y241289D01*
X191490Y241486D01*
X192879Y242061D01*
X194071Y242976D01*
X194986Y244168D01*
X195562Y245557D01*
X195758Y247047D01*
Y252953D01*
X195562Y254443D01*
X194986Y255832D01*
X194071Y257024D01*
X192879Y257939D01*
X191490Y258514D01*
X190000Y258711D01*
D02*
G37*
G36*
X176221D02*
X174730Y258514D01*
X173342Y257939D01*
X172149Y257024D01*
X171234Y255832D01*
X170659Y254443D01*
X170463Y252953D01*
Y247047D01*
X170659Y245557D01*
X171234Y244168D01*
X172149Y242976D01*
X173342Y242061D01*
X174730Y241486D01*
X176221Y241289D01*
X177711Y241486D01*
X179099Y242061D01*
X180292Y242976D01*
X181207Y244168D01*
X181782Y245557D01*
X181978Y247047D01*
Y252953D01*
X181782Y254443D01*
X181207Y255832D01*
X180292Y257024D01*
X179099Y257939D01*
X177711Y258514D01*
X176221Y258711D01*
D02*
G37*
G36*
X136221D02*
X134730Y258514D01*
X133342Y257939D01*
X132149Y257024D01*
X131234Y255832D01*
X130659Y254443D01*
X130463Y252953D01*
Y247047D01*
X130659Y245557D01*
X131234Y244168D01*
X132149Y242976D01*
X133342Y242061D01*
X134730Y241486D01*
X136221Y241289D01*
X137711Y241486D01*
X139099Y242061D01*
X140292Y242976D01*
X141207Y244168D01*
X141782Y245557D01*
X141978Y247047D01*
Y252953D01*
X141782Y254443D01*
X141207Y255832D01*
X140292Y257024D01*
X139099Y257939D01*
X137711Y258514D01*
X136221Y258711D01*
D02*
G37*
G36*
X127883Y242047D02*
X122953D01*
Y239242D01*
X122953D01*
X124443Y239438D01*
X125832Y240014D01*
X127024Y240929D01*
X127883Y242047D01*
D02*
G37*
G36*
X117047D02*
X112117D01*
X112976Y240929D01*
X114168Y240014D01*
X115557Y239438D01*
X117047Y239242D01*
X117047D01*
Y242047D01*
D02*
G37*
G36*
X167953Y236011D02*
Y232953D01*
X171011D01*
X170592Y233736D01*
X169755Y234755D01*
X168736Y235592D01*
X167953Y236011D01*
D02*
G37*
G36*
X162047D02*
X161264Y235592D01*
X160245Y234755D01*
X159408Y233736D01*
X158989Y232953D01*
X162047D01*
Y236011D01*
D02*
G37*
G36*
X195000Y236725D02*
X193688Y236596D01*
X192426Y236213D01*
X191264Y235592D01*
X190244Y234755D01*
X189408Y233736D01*
X188787Y232574D01*
X188404Y231312D01*
X188275Y230000D01*
X188404Y228688D01*
X188787Y227426D01*
X189408Y226264D01*
X189743Y225856D01*
X189529Y225404D01*
X170471D01*
X170257Y225856D01*
X170592Y226264D01*
X171011Y227047D01*
X158989D01*
X159408Y226264D01*
X159874Y225696D01*
X159690Y225231D01*
X159514Y225207D01*
X158126Y224632D01*
X156933Y223717D01*
X145929Y212713D01*
X145013Y211520D01*
X144438Y210131D01*
X144242Y208641D01*
Y192953D01*
Y190000D01*
Y187047D01*
X144438Y185557D01*
X145013Y184168D01*
X145929Y182976D01*
X147121Y182061D01*
X148510Y181485D01*
X150000Y181289D01*
X151490Y181485D01*
X152879Y182061D01*
X154071Y182976D01*
X154987Y184168D01*
X155562Y185557D01*
X155758Y187047D01*
Y192953D01*
Y206256D01*
X157953Y208451D01*
X158519Y208310D01*
X158787Y207426D01*
X159408Y206264D01*
X160245Y205244D01*
X161264Y204408D01*
X162426Y203787D01*
X163688Y203404D01*
X165000Y203275D01*
X166312Y203404D01*
X167574Y203787D01*
X168736Y204408D01*
X169755Y205244D01*
X170592Y206264D01*
X171213Y207426D01*
X171596Y208688D01*
X171725Y210000D01*
X171596Y211312D01*
X171213Y212574D01*
X170778Y213388D01*
X171078Y213888D01*
X188922D01*
X189222Y213388D01*
X188787Y212574D01*
X188404Y211312D01*
X188275Y210000D01*
X188404Y208688D01*
X188787Y207426D01*
X189408Y206264D01*
X190244Y205244D01*
X191264Y204408D01*
X192426Y203787D01*
X193688Y203404D01*
X195000Y203275D01*
X196312Y203404D01*
X197574Y203787D01*
X198736Y204408D01*
X199756Y205244D01*
X200592Y206264D01*
X201213Y207426D01*
X201481Y208310D01*
X202047Y208451D01*
X214242Y196256D01*
Y193426D01*
X213787Y192574D01*
X213404Y191312D01*
X213275Y190000D01*
X213404Y188688D01*
X213787Y187426D01*
X214408Y186264D01*
X215245Y185245D01*
X216264Y184408D01*
X217426Y183787D01*
X218688Y183404D01*
X220000Y183275D01*
X221312Y183404D01*
X222574Y183787D01*
X223736Y184408D01*
X224756Y185245D01*
X225592Y186264D01*
X226213Y187426D01*
X226596Y188688D01*
X226725Y190000D01*
X226596Y191312D01*
X226213Y192574D01*
X225758Y193426D01*
Y198641D01*
X225562Y200131D01*
X224987Y201520D01*
X224072Y202712D01*
X203067Y223717D01*
X201874Y224632D01*
X200486Y225207D01*
X200309Y225231D01*
X200126Y225696D01*
X200592Y226264D01*
X201213Y227426D01*
X201596Y228688D01*
X201725Y230000D01*
X201596Y231312D01*
X201213Y232574D01*
X200592Y233736D01*
X199756Y234755D01*
X198736Y235592D01*
X197574Y236213D01*
X196312Y236596D01*
X195000Y236725D01*
D02*
G37*
G36*
X130000Y215758D02*
X128510Y215562D01*
X127121Y214986D01*
X126209Y214286D01*
X125709Y214533D01*
Y215709D01*
X114291D01*
Y204291D01*
X125709D01*
Y205467D01*
X126209Y205714D01*
X127121Y205013D01*
X128510Y204438D01*
X130000Y204242D01*
X131490Y204438D01*
X132879Y205013D01*
X134072Y205928D01*
X134986Y207121D01*
X135562Y208510D01*
X135758Y210000D01*
X135562Y211490D01*
X134986Y212879D01*
X134072Y214071D01*
X132879Y214986D01*
X131490Y215562D01*
X130000Y215758D01*
D02*
G37*
G36*
X166732Y197883D02*
Y192953D01*
X169537D01*
Y192953D01*
X169341Y194443D01*
X168766Y195832D01*
X167851Y197024D01*
X166732Y197883D01*
D02*
G37*
G36*
X160827D02*
X159708Y197024D01*
X158793Y195832D01*
X158218Y194443D01*
X158022Y192953D01*
Y192953D01*
X160827D01*
Y197883D01*
D02*
G37*
G36*
X122953Y199537D02*
X117047D01*
X115557Y199341D01*
X114168Y198766D01*
X112976Y197851D01*
X112061Y196659D01*
X111486Y195270D01*
X111289Y193780D01*
X111486Y192289D01*
X112061Y190901D01*
X112976Y189708D01*
X113775Y189095D01*
Y188464D01*
X112976Y187851D01*
X112117Y186732D01*
X120000D01*
X127883D01*
X127024Y187851D01*
X126225Y188464D01*
Y189095D01*
X127024Y189708D01*
X127939Y190901D01*
X128515Y192289D01*
X128711Y193780D01*
X128515Y195270D01*
X127939Y196659D01*
X127024Y197851D01*
X125832Y198766D01*
X124443Y199341D01*
X122953Y199537D01*
D02*
G37*
G36*
X169537Y187047D02*
X166732D01*
Y182117D01*
X167851Y182976D01*
X168766Y184168D01*
X169341Y185557D01*
X169537Y187047D01*
Y187047D01*
D02*
G37*
G36*
X160827D02*
X158022D01*
Y187047D01*
X158218Y185557D01*
X158793Y184168D01*
X159708Y182976D01*
X160827Y182117D01*
Y187047D01*
D02*
G37*
G36*
X203780Y198711D02*
X202289Y198514D01*
X200901Y197939D01*
X199708Y197024D01*
X198793Y195832D01*
X198218Y194443D01*
X198022Y192953D01*
Y187047D01*
X198218Y185557D01*
X198793Y184168D01*
X199708Y182976D01*
X200901Y182061D01*
X202289Y181485D01*
X203780Y181289D01*
X205270Y181485D01*
X206659Y182061D01*
X207851Y182976D01*
X208766Y184168D01*
X209341Y185557D01*
X209537Y187047D01*
Y192953D01*
X209341Y194443D01*
X208766Y195832D01*
X207851Y197024D01*
X206659Y197939D01*
X205270Y198514D01*
X203780Y198711D01*
D02*
G37*
G36*
X190000D02*
X188510Y198514D01*
X187121Y197939D01*
X185928Y197024D01*
X185013Y195832D01*
X184438Y194443D01*
X184242Y192953D01*
Y187047D01*
X184438Y185557D01*
X185013Y184168D01*
X185928Y182976D01*
X187121Y182061D01*
X188510Y181485D01*
X190000Y181289D01*
X191490Y181485D01*
X192879Y182061D01*
X194071Y182976D01*
X194986Y184168D01*
X195562Y185557D01*
X195758Y187047D01*
Y192953D01*
X195562Y194443D01*
X194986Y195832D01*
X194071Y197024D01*
X192879Y197939D01*
X191490Y198514D01*
X190000Y198711D01*
D02*
G37*
G36*
X176221D02*
X174730Y198514D01*
X173342Y197939D01*
X172149Y197024D01*
X171234Y195832D01*
X170659Y194443D01*
X170463Y192953D01*
Y187047D01*
X170659Y185557D01*
X171234Y184168D01*
X172149Y182976D01*
X173342Y182061D01*
X174730Y181485D01*
X176221Y181289D01*
X177711Y181485D01*
X179099Y182061D01*
X180292Y182976D01*
X181207Y184168D01*
X181782Y185557D01*
X181978Y187047D01*
Y192953D01*
X181782Y194443D01*
X181207Y195832D01*
X180292Y197024D01*
X179099Y197939D01*
X177711Y198514D01*
X176221Y198711D01*
D02*
G37*
G36*
X136221D02*
X134730Y198514D01*
X133342Y197939D01*
X132149Y197024D01*
X131234Y195832D01*
X130659Y194443D01*
X130463Y192953D01*
Y187047D01*
X130659Y185557D01*
X131234Y184168D01*
X132149Y182976D01*
X133342Y182061D01*
X134730Y181485D01*
X136221Y181289D01*
X137711Y181485D01*
X139099Y182061D01*
X140292Y182976D01*
X141207Y184168D01*
X141782Y185557D01*
X141978Y187047D01*
Y192953D01*
X141782Y194443D01*
X141207Y195832D01*
X140292Y197024D01*
X139099Y197939D01*
X137711Y198514D01*
X136221Y198711D01*
D02*
G37*
G36*
X127883Y180827D02*
X122953D01*
Y178022D01*
X122953D01*
X124443Y178218D01*
X125832Y178793D01*
X127024Y179708D01*
X127883Y180827D01*
D02*
G37*
G36*
X117047D02*
X112117D01*
X112976Y179708D01*
X114168Y178793D01*
X115557Y178218D01*
X117047Y178022D01*
D01*
Y180827D01*
D02*
G37*
G36*
X167953Y176011D02*
Y172953D01*
X171011D01*
X170592Y173736D01*
X169755Y174756D01*
X168736Y175592D01*
X167953Y176011D01*
D02*
G37*
G36*
X162047D02*
X161264Y175592D01*
X160245Y174756D01*
X159408Y173736D01*
X158989Y172953D01*
X162047D01*
Y176011D01*
D02*
G37*
G36*
X130000Y155758D02*
X128510Y155562D01*
X127121Y154987D01*
X126209Y154286D01*
X125709Y154533D01*
Y155709D01*
X114291D01*
Y144291D01*
X125709D01*
Y145467D01*
X126209Y145714D01*
X127121Y145013D01*
X128510Y144438D01*
X130000Y144242D01*
X131490Y144438D01*
X132879Y145013D01*
X134072Y145929D01*
X134986Y147121D01*
X135562Y148510D01*
X135758Y150000D01*
X135562Y151490D01*
X134986Y152879D01*
X134072Y154071D01*
X132879Y154987D01*
X131490Y155562D01*
X130000Y155758D01*
D02*
G37*
G36*
X166732Y137883D02*
Y132953D01*
X169537D01*
Y132953D01*
X169341Y134443D01*
X168766Y135832D01*
X167851Y137024D01*
X166732Y137883D01*
D02*
G37*
G36*
X160827D02*
X159708Y137024D01*
X158793Y135832D01*
X158218Y134443D01*
X158022Y132953D01*
Y132953D01*
X160827D01*
Y137883D01*
D02*
G37*
G36*
X122953Y140758D02*
X117047D01*
X115557Y140562D01*
X114168Y139987D01*
X112976Y139072D01*
X112061Y137879D01*
X111486Y136490D01*
X111289Y135000D01*
X111486Y133510D01*
X112061Y132121D01*
X112976Y130929D01*
X113775Y130315D01*
Y129685D01*
X112976Y129071D01*
X112117Y127953D01*
X120000D01*
X127883D01*
X127024Y129071D01*
X126225Y129685D01*
Y130315D01*
X127024Y130929D01*
X127939Y132121D01*
X128515Y133510D01*
X128711Y135000D01*
X128515Y136490D01*
X127939Y137879D01*
X127024Y139072D01*
X125832Y139987D01*
X124443Y140562D01*
X122953Y140758D01*
D02*
G37*
G36*
X169537Y127047D02*
X166732D01*
Y122117D01*
X167851Y122976D01*
X168766Y124168D01*
X169341Y125557D01*
X169537Y127047D01*
Y127047D01*
D02*
G37*
G36*
X160827D02*
X158022D01*
Y127047D01*
X158218Y125557D01*
X158793Y124168D01*
X159708Y122976D01*
X160827Y122117D01*
Y127047D01*
D02*
G37*
G36*
X203780Y138711D02*
X202289Y138514D01*
X200901Y137939D01*
X199708Y137024D01*
X198793Y135832D01*
X198218Y134443D01*
X198022Y132953D01*
Y127047D01*
X198218Y125557D01*
X198793Y124168D01*
X199708Y122976D01*
X200901Y122061D01*
X202289Y121485D01*
X203780Y121289D01*
X205270Y121485D01*
X206659Y122061D01*
X207851Y122976D01*
X208766Y124168D01*
X209341Y125557D01*
X209537Y127047D01*
Y132953D01*
X209341Y134443D01*
X208766Y135832D01*
X207851Y137024D01*
X206659Y137939D01*
X205270Y138514D01*
X203780Y138711D01*
D02*
G37*
G36*
X190000D02*
X188510Y138514D01*
X187121Y137939D01*
X185928Y137024D01*
X185013Y135832D01*
X184438Y134443D01*
X184242Y132953D01*
Y127047D01*
X184438Y125557D01*
X185013Y124168D01*
X185928Y122976D01*
X187121Y122061D01*
X188510Y121485D01*
X190000Y121289D01*
X191490Y121485D01*
X192879Y122061D01*
X194071Y122976D01*
X194986Y124168D01*
X195562Y125557D01*
X195758Y127047D01*
Y132953D01*
X195562Y134443D01*
X194986Y135832D01*
X194071Y137024D01*
X192879Y137939D01*
X191490Y138514D01*
X190000Y138711D01*
D02*
G37*
G36*
X176221D02*
X174730Y138514D01*
X173342Y137939D01*
X172149Y137024D01*
X171234Y135832D01*
X170659Y134443D01*
X170463Y132953D01*
Y127047D01*
X170659Y125557D01*
X171234Y124168D01*
X172149Y122976D01*
X173342Y122061D01*
X174730Y121485D01*
X176221Y121289D01*
X177711Y121485D01*
X179099Y122061D01*
X180292Y122976D01*
X181207Y124168D01*
X181782Y125557D01*
X181978Y127047D01*
Y132953D01*
X181782Y134443D01*
X181207Y135832D01*
X180292Y137024D01*
X179099Y137939D01*
X177711Y138514D01*
X176221Y138711D01*
D02*
G37*
G36*
X136221D02*
X134730Y138514D01*
X133342Y137939D01*
X132149Y137024D01*
X131234Y135832D01*
X130659Y134443D01*
X130463Y132953D01*
Y127047D01*
X130659Y125557D01*
X131234Y124168D01*
X132149Y122976D01*
X133342Y122061D01*
X134730Y121485D01*
X136221Y121289D01*
X137711Y121485D01*
X139099Y122061D01*
X140292Y122976D01*
X141207Y124168D01*
X141782Y125557D01*
X141978Y127047D01*
Y132953D01*
X141782Y134443D01*
X141207Y135832D01*
X140292Y137024D01*
X139099Y137939D01*
X137711Y138514D01*
X136221Y138711D01*
D02*
G37*
G36*
X127883Y122047D02*
X122953D01*
Y119242D01*
X122953D01*
X124443Y119438D01*
X125832Y120013D01*
X127024Y120929D01*
X127883Y122047D01*
D02*
G37*
G36*
X117047D02*
X112117D01*
X112976Y120929D01*
X114168Y120013D01*
X115557Y119438D01*
X117047Y119242D01*
X117047D01*
Y122047D01*
D02*
G37*
G36*
X167953Y116011D02*
Y112953D01*
X171011D01*
X170592Y113736D01*
X169755Y114755D01*
X168736Y115592D01*
X167953Y116011D01*
D02*
G37*
G36*
X162047D02*
X161264Y115592D01*
X160245Y114755D01*
X159408Y113736D01*
X158989Y112953D01*
X162047D01*
Y116011D01*
D02*
G37*
G36*
X171011Y107047D02*
X167953D01*
Y103989D01*
X168736Y104408D01*
X169755Y105245D01*
X170592Y106264D01*
X171011Y107047D01*
D02*
G37*
G36*
X162047D02*
X158989D01*
X159408Y106264D01*
X160245Y105245D01*
X161264Y104408D01*
X162047Y103989D01*
Y107047D01*
D02*
G37*
G36*
X195000Y116725D02*
X193688Y116596D01*
X192426Y116213D01*
X191264Y115592D01*
X190244Y114755D01*
X189408Y113736D01*
X188787Y112574D01*
X188404Y111312D01*
X188275Y110000D01*
X188404Y108688D01*
X188787Y107426D01*
X189408Y106264D01*
X190244Y105245D01*
X191264Y104408D01*
X192426Y103787D01*
X193688Y103404D01*
X195000Y103275D01*
X196312Y103404D01*
X197574Y103787D01*
X198736Y104408D01*
X199756Y105245D01*
X200592Y106264D01*
X201213Y107426D01*
X201596Y108688D01*
X201725Y110000D01*
X201596Y111312D01*
X201213Y112574D01*
X200592Y113736D01*
X199756Y114755D01*
X198736Y115592D01*
X197574Y116213D01*
X196312Y116596D01*
X195000Y116725D01*
D02*
G37*
%LPD*%
G36*
X275976Y425356D02*
X275244Y424755D01*
X274408Y423736D01*
X273787Y422574D01*
X273404Y421312D01*
X273275Y420000D01*
X273404Y418688D01*
X273787Y417426D01*
X274408Y416264D01*
X275244Y415244D01*
X276264Y414408D01*
X277426Y413787D01*
X278688Y413404D01*
X280000Y413275D01*
X281312Y413404D01*
X282574Y413787D01*
X283736Y414408D01*
X283790Y414452D01*
X284242Y414238D01*
Y340201D01*
X284107Y340134D01*
X283742Y340004D01*
X282396Y340562D01*
X280906Y340758D01*
X280758D01*
Y360000D01*
X280562Y361490D01*
X279987Y362879D01*
X279071Y364071D01*
X269072Y374072D01*
X267879Y374987D01*
X266490Y375562D01*
X265000Y375758D01*
X253426D01*
X252574Y376213D01*
X251312Y376596D01*
X250000Y376725D01*
X248688Y376596D01*
X247426Y376213D01*
X246264Y375592D01*
X245245Y374756D01*
X244408Y373736D01*
X243787Y372574D01*
X243404Y371312D01*
X243275Y370000D01*
X243404Y368688D01*
X243787Y367426D01*
X244408Y366264D01*
X245245Y365245D01*
X246264Y364408D01*
X247426Y363787D01*
X248688Y363404D01*
X250000Y363275D01*
X251312Y363404D01*
X252574Y363787D01*
X253426Y364242D01*
X262615D01*
X269242Y357615D01*
Y339571D01*
X268742Y339324D01*
X267879Y339986D01*
X266490Y340562D01*
X265000Y340758D01*
X265000D01*
Y335000D01*
X259095D01*
Y340758D01*
X259095D01*
X257604Y340562D01*
X256216Y339986D01*
X255023Y339071D01*
X254108Y337879D01*
X253533Y336490D01*
X253373Y335275D01*
X252845Y335096D01*
X250556Y337385D01*
Y350000D01*
X250360Y351490D01*
X249785Y352879D01*
X248870Y354071D01*
X210484Y392457D01*
X209345Y393332D01*
X209685Y393775D01*
X210315D01*
X210929Y392976D01*
X212047Y392117D01*
Y400000D01*
Y407883D01*
X210929Y407024D01*
X210315Y406225D01*
X209685D01*
X209071Y407024D01*
X207879Y407939D01*
X206490Y408514D01*
X205000Y408711D01*
X203510Y408514D01*
X202121Y407939D01*
X200928Y407024D01*
X200013Y405832D01*
X199438Y404443D01*
X199242Y402953D01*
Y399352D01*
X198780Y399161D01*
X189224Y408717D01*
X188031Y409632D01*
X186643Y410207D01*
X185152Y410404D01*
X177538D01*
X176848Y411093D01*
X176966Y411683D01*
X177879Y412061D01*
X179071Y412976D01*
X179685Y413775D01*
X180315D01*
X180929Y412976D01*
X182121Y412061D01*
X183510Y411485D01*
X185000Y411289D01*
X186490Y411485D01*
X187879Y412061D01*
X189072Y412976D01*
X189685Y413775D01*
X190315D01*
X190928Y412976D01*
X192121Y412061D01*
X193510Y411485D01*
X195000Y411289D01*
X196490Y411485D01*
X197879Y412061D01*
X199072Y412976D01*
X199685Y413775D01*
X200315D01*
X200928Y412976D01*
X202121Y412061D01*
X203510Y411485D01*
X205000Y411289D01*
X206490Y411485D01*
X207879Y412061D01*
X209071Y412976D01*
X209685Y413775D01*
X210315D01*
X210929Y412976D01*
X212121Y412061D01*
X213510Y411485D01*
X215000Y411289D01*
X216490Y411485D01*
X217879Y412061D01*
X219072Y412976D01*
X219685Y413775D01*
X220315D01*
X220929Y412976D01*
X222121Y412061D01*
X223510Y411485D01*
X225000Y411289D01*
X226490Y411485D01*
X227879Y412061D01*
X229071Y412976D01*
X229685Y413775D01*
X230315D01*
X230928Y412976D01*
X232047Y412117D01*
Y420000D01*
X237953D01*
Y412117D01*
X239071Y412976D01*
X239685Y413775D01*
X240315D01*
X240929Y412976D01*
X242121Y412061D01*
X243510Y411485D01*
X245000Y411289D01*
X246490Y411485D01*
X247879Y412061D01*
X249072Y412976D01*
X249685Y413775D01*
X250315D01*
X250928Y412976D01*
X252121Y412061D01*
X253510Y411485D01*
X255000Y411289D01*
X256490Y411485D01*
X257879Y412061D01*
X259071Y412976D01*
X259986Y414168D01*
X260562Y415557D01*
X260758Y417047D01*
Y422953D01*
X260562Y424443D01*
X260183Y425356D01*
X260518Y425856D01*
X275798D01*
X275976Y425356D01*
D02*
G37*
G36*
X164944Y391913D02*
X166137Y390998D01*
X167525Y390423D01*
X169016Y390226D01*
X179180D01*
X193595Y375811D01*
X193716Y375653D01*
X194909Y374738D01*
X196298Y374163D01*
X197788Y373967D01*
X200440D01*
X230379Y344027D01*
Y328863D01*
X230575Y327373D01*
X231150Y325984D01*
X232065Y324792D01*
X245929Y310929D01*
X247121Y310014D01*
X248510Y309438D01*
X250000Y309242D01*
X254524D01*
X254770Y308742D01*
X254108Y307879D01*
X253533Y306490D01*
X253337Y305000D01*
X253533Y303510D01*
X254108Y302121D01*
X255023Y300928D01*
X255822Y300315D01*
Y299685D01*
X255023Y299072D01*
X254108Y297879D01*
X253533Y296490D01*
X253337Y295000D01*
X253533Y293510D01*
X254108Y292121D01*
X255023Y290929D01*
X255822Y290315D01*
Y289685D01*
X255023Y289071D01*
X254108Y287879D01*
X253533Y286490D01*
X253337Y285000D01*
X253533Y283510D01*
X254108Y282121D01*
X255023Y280928D01*
X255822Y280315D01*
Y279685D01*
X255023Y279071D01*
X254108Y277879D01*
X253533Y276490D01*
X253337Y275000D01*
X253533Y273510D01*
X254108Y272121D01*
X255023Y270929D01*
X255822Y270315D01*
Y269685D01*
X255023Y269072D01*
X254165Y267953D01*
X262047D01*
Y262047D01*
X254165D01*
X255023Y260929D01*
X255822Y260315D01*
Y259685D01*
X255023Y259071D01*
X254108Y257879D01*
X253533Y256490D01*
X253337Y255000D01*
X253533Y253510D01*
X254108Y252121D01*
X255023Y250928D01*
X255822Y250315D01*
Y249685D01*
X255023Y249072D01*
X254108Y247879D01*
X253533Y246490D01*
X253337Y245000D01*
X253533Y243510D01*
X254108Y242121D01*
X255023Y240929D01*
X255822Y240315D01*
Y239685D01*
X255023Y239071D01*
X254108Y237879D01*
X253533Y236490D01*
X253337Y235000D01*
X253533Y233510D01*
X254108Y232121D01*
X255023Y230928D01*
X255822Y230315D01*
Y229685D01*
X255023Y229071D01*
X254108Y227879D01*
X253533Y226490D01*
X253337Y225000D01*
X253533Y223510D01*
X254108Y222121D01*
X255023Y220929D01*
X255822Y220315D01*
Y219685D01*
X255023Y219072D01*
X254108Y217879D01*
X253533Y216490D01*
X253337Y215000D01*
X253533Y213510D01*
X254108Y212121D01*
X255023Y210929D01*
X255822Y210315D01*
Y209685D01*
X255023Y209071D01*
X254108Y207879D01*
X253533Y206490D01*
X253337Y205000D01*
X253533Y203510D01*
X254108Y202121D01*
X255023Y200928D01*
X255822Y200315D01*
Y199685D01*
X255023Y199072D01*
X254108Y197879D01*
X253533Y196490D01*
X253337Y195000D01*
X253533Y193510D01*
X254108Y192121D01*
X255023Y190928D01*
X255822Y190315D01*
Y189685D01*
X255023Y189072D01*
X254165Y187953D01*
X262047D01*
Y182047D01*
X254165D01*
X255023Y180929D01*
X255822Y180315D01*
Y179685D01*
X255023Y179071D01*
X254108Y177879D01*
X253533Y176490D01*
X253337Y175000D01*
X253533Y173510D01*
X254108Y172121D01*
X254770Y171258D01*
X254524Y170758D01*
X252385D01*
X247530Y175613D01*
Y207677D01*
X247333Y209167D01*
X246758Y210556D01*
X245843Y211749D01*
X244651Y212664D01*
X243262Y213239D01*
X241772Y213435D01*
X232257D01*
X223435Y222257D01*
Y275651D01*
X228717Y280933D01*
X229632Y282126D01*
X230207Y283514D01*
X230404Y285005D01*
Y313995D01*
X230207Y315486D01*
X229632Y316874D01*
X228717Y318067D01*
X203067Y343717D01*
X201874Y344632D01*
X200486Y345207D01*
X198995Y345404D01*
X191005D01*
X190671Y345360D01*
X190416Y345830D01*
X191454Y347046D01*
X192503Y348758D01*
X193271Y350613D01*
X193512Y351614D01*
X178898D01*
Y354567D01*
X175945D01*
Y367303D01*
X174691Y367205D01*
X172739Y366736D01*
X170884Y365968D01*
X169172Y364919D01*
X167645Y363615D01*
X166341Y362088D01*
X165292Y360376D01*
X164524Y358521D01*
X164055Y356569D01*
X163898Y354567D01*
X163950Y353901D01*
X163496Y353691D01*
X162758Y354430D01*
Y392798D01*
X162668Y393482D01*
X163142Y393716D01*
X164944Y391913D01*
D02*
G37*
G36*
X254770Y148742D02*
X254108Y147879D01*
X253533Y146490D01*
X253337Y145000D01*
X253533Y143510D01*
X254108Y142121D01*
X255023Y140928D01*
X256216Y140014D01*
X257604Y139438D01*
X259095Y139242D01*
X263916D01*
X263958Y139158D01*
X264030Y138742D01*
X262124Y137574D01*
X260333Y136045D01*
X258804Y134254D01*
X257574Y132246D01*
X256673Y130070D01*
X256268Y128386D01*
X270945D01*
Y122480D01*
X256268D01*
X256673Y120796D01*
X257574Y118620D01*
X258804Y116612D01*
X260333Y114822D01*
X261556Y113778D01*
X261371Y113278D01*
X249868D01*
X249647Y113726D01*
X249987Y114168D01*
X250562Y115557D01*
X250758Y117047D01*
Y122953D01*
X250562Y124443D01*
X249987Y125832D01*
X249072Y127024D01*
X247879Y127939D01*
X246490Y128515D01*
X245000Y128711D01*
X243510Y128515D01*
X242121Y127939D01*
X240929Y127024D01*
X240315Y126225D01*
X239685D01*
X239071Y127024D01*
X237879Y127939D01*
X236490Y128515D01*
X235000Y128711D01*
X233510Y128515D01*
X232972Y128291D01*
X232438Y128612D01*
X232413Y128860D01*
X252795Y149242D01*
X254524D01*
X254770Y148742D01*
D02*
G37*
%LPC*%
G36*
X275000Y408711D02*
X273510Y408514D01*
X272121Y407939D01*
X270929Y407024D01*
X270315Y406225D01*
X269685D01*
X269072Y407024D01*
X267953Y407883D01*
Y400000D01*
Y392117D01*
X269072Y392976D01*
X269685Y393775D01*
X270315D01*
X270929Y392976D01*
X272121Y392061D01*
X273510Y391486D01*
X275000Y391289D01*
X276490Y391486D01*
X277879Y392061D01*
X279071Y392976D01*
X279987Y394168D01*
X280562Y395557D01*
X280758Y397047D01*
Y402953D01*
X280562Y404443D01*
X279987Y405832D01*
X279071Y407024D01*
X277879Y407939D01*
X276490Y408514D01*
X275000Y408711D01*
D02*
G37*
G36*
X217953Y407883D02*
Y402953D01*
X220758D01*
Y402953D01*
X220562Y404443D01*
X219987Y405832D01*
X219072Y407024D01*
X217953Y407883D01*
D02*
G37*
G36*
X262047D02*
X260929Y407024D01*
X260014Y405832D01*
X259438Y404443D01*
X259242Y402953D01*
Y402953D01*
X262047D01*
Y407883D01*
D02*
G37*
G36*
X220758Y397047D02*
X217953D01*
Y392117D01*
X219072Y392976D01*
X219987Y394168D01*
X220562Y395557D01*
X220758Y397047D01*
Y397047D01*
D02*
G37*
G36*
X262047D02*
X259242D01*
Y397047D01*
X259438Y395557D01*
X260014Y394168D01*
X260929Y392976D01*
X262047Y392117D01*
Y397047D01*
D02*
G37*
G36*
X181850Y367303D02*
Y357520D01*
X193512D01*
X193271Y358521D01*
X192503Y360376D01*
X191454Y362088D01*
X190150Y363615D01*
X188623Y364919D01*
X186911Y365968D01*
X185056Y366736D01*
X183104Y367205D01*
X181850Y367303D01*
D02*
G37*
G36*
X242953Y240758D02*
X242953D01*
Y237953D01*
X247883D01*
X247024Y239071D01*
X245832Y239986D01*
X244443Y240562D01*
X242953Y240758D01*
D02*
G37*
G36*
X237047D02*
X237047D01*
X235557Y240562D01*
X234168Y239986D01*
X232976Y239071D01*
X232117Y237953D01*
X237047D01*
Y240758D01*
D02*
G37*
G36*
X247883Y232047D02*
X240000D01*
X232117D01*
X232976Y230928D01*
X233775Y230315D01*
Y229685D01*
X232976Y229071D01*
X232061Y227879D01*
X231486Y226490D01*
X231289Y225000D01*
X231486Y223510D01*
X232061Y222121D01*
X232976Y220929D01*
X234168Y220013D01*
X235557Y219438D01*
X237047Y219242D01*
X242953D01*
X244443Y219438D01*
X245832Y220013D01*
X247024Y220929D01*
X247939Y222121D01*
X248515Y223510D01*
X248711Y225000D01*
X248515Y226490D01*
X247939Y227879D01*
X247024Y229071D01*
X246225Y229685D01*
Y230315D01*
X247024Y230928D01*
X247883Y232047D01*
D02*
G37*
%LPD*%
D24*
X226339Y130929D02*
X250410Y155000D01*
X265000D01*
X226339Y113460D02*
Y130929D01*
X213641Y145000D02*
X226339D01*
X170186Y338858D02*
X190217D01*
X191005Y339646D01*
X157000Y352045D02*
X170186Y338858D01*
X191005Y339646D02*
X198995D01*
X224646Y313995D01*
Y285005D02*
Y313995D01*
X217677Y278036D02*
X224646Y285005D01*
X160000Y300000D02*
X214000D01*
Y301588D01*
Y289000D02*
X215000D01*
X204646Y279646D02*
X214000Y289000D01*
X136339Y413460D02*
X157000Y392798D01*
Y352045D02*
Y392798D01*
X150000Y310000D02*
X160000Y300000D01*
X161005Y279646D02*
X204646D01*
X150000Y268641D02*
X161005Y279646D01*
X250000Y315000D02*
X265000D01*
X236137Y328863D02*
X250000Y315000D01*
X254798Y325000D02*
X265000D01*
X244798Y335000D02*
X254798Y325000D01*
X244798Y335000D02*
Y350000D01*
X275000Y335000D02*
Y360000D01*
X265000Y370000D02*
X275000Y360000D01*
X250000Y370000D02*
X265000D01*
X150000Y250000D02*
Y268641D01*
X217677Y219872D02*
X229872Y207677D01*
X217677Y219872D02*
Y278036D01*
X150000Y208641D02*
X161005Y219646D01*
X150000Y190000D02*
Y208641D01*
X198995Y219646D02*
X220000Y198641D01*
Y190000D02*
Y198641D01*
X161005Y219646D02*
X198995D01*
X161005Y159646D02*
X198995D01*
X150000Y148641D02*
X161005Y159646D01*
X198995D02*
X213641Y145000D01*
X241772Y173228D02*
X250000Y165000D01*
X241772Y173228D02*
Y207677D01*
X229872D02*
X241772D01*
X150000Y130000D02*
Y148641D01*
X136339Y413460D02*
Y426540D01*
X141412Y431614D01*
X229163D02*
X282027D01*
X225000Y427451D02*
X229163Y431614D01*
X282027D02*
X290000Y423641D01*
Y119155D02*
Y423641D01*
X278365Y107520D02*
X290000Y119155D01*
X232278Y107520D02*
X278365D01*
X226339Y113460D02*
X232278Y107520D01*
X225000Y420000D02*
Y427451D01*
X169016Y395984D02*
X181565D01*
X155000Y410000D02*
X169016Y395984D01*
X155000Y410000D02*
Y420000D01*
X208588Y431614D02*
X214962Y425240D01*
Y420038D02*
Y425240D01*
Y420038D02*
X215000Y420000D01*
X141412Y431614D02*
X208588D01*
X185152Y404646D02*
X201412Y388386D01*
X175153Y404646D02*
X185152D01*
X166339Y413460D02*
X175153Y404646D01*
X166339Y413460D02*
Y415000D01*
X165000D02*
X166339D01*
X165000D02*
Y420000D01*
X206412Y388386D02*
X244798Y350000D01*
X201412Y388386D02*
X206412D01*
X250000Y165000D02*
X265000D01*
X197788Y379724D02*
X202825D01*
X181565Y395984D02*
X197788Y379761D01*
X236137Y328863D02*
Y346412D01*
X202825Y379724D02*
X236137Y346412D01*
X115000Y400000D02*
Y415000D01*
X120000Y420000D01*
D25*
X265000Y400000D02*
D03*
X275000D02*
D03*
X215000D02*
D03*
X205000D02*
D03*
X125000D02*
D03*
X115000D02*
D03*
X135000Y379724D02*
D03*
X125000D02*
D03*
X136221Y310000D02*
D03*
X150000D02*
D03*
X163779Y312953D02*
D03*
X176221D02*
D03*
X190000D02*
D03*
X203780D02*
D03*
X136221Y250000D02*
D03*
X150000D02*
D03*
X163779D02*
D03*
X136221Y190000D02*
D03*
X150000D02*
D03*
X163779D02*
D03*
X136221Y130000D02*
D03*
X150000D02*
D03*
X163779D02*
D03*
X176221Y250000D02*
D03*
X190000D02*
D03*
X203780D02*
D03*
X176221Y190000D02*
D03*
X190000D02*
D03*
X203780D02*
D03*
X176221Y130000D02*
D03*
X190000D02*
D03*
X203780D02*
D03*
X235000Y120000D02*
D03*
X245000D02*
D03*
X255000Y420000D02*
D03*
X245000D02*
D03*
X235000D02*
D03*
X225000D02*
D03*
X215000D02*
D03*
X205000D02*
D03*
X195000D02*
D03*
X185000D02*
D03*
X175000D02*
D03*
X165000D02*
D03*
X155000D02*
D03*
X145000D02*
D03*
Y480000D02*
D03*
X155000D02*
D03*
X165000D02*
D03*
X175000D02*
D03*
X185000D02*
D03*
X195000D02*
D03*
X205000D02*
D03*
X215000D02*
D03*
X225000D02*
D03*
X235000D02*
D03*
X245000D02*
D03*
X255000D02*
D03*
D26*
X120000Y350000D02*
D03*
X130000Y330000D02*
D03*
Y270000D02*
D03*
Y210000D02*
D03*
Y150000D02*
D03*
D27*
X120000Y360000D02*
D03*
D28*
Y330000D02*
D03*
Y270000D02*
D03*
Y210000D02*
D03*
Y150000D02*
D03*
D29*
Y305000D02*
D03*
Y315000D02*
D03*
Y245000D02*
D03*
Y255000D02*
D03*
Y183780D02*
D03*
Y193780D02*
D03*
Y125000D02*
D03*
Y135000D02*
D03*
X240000Y225000D02*
D03*
Y235000D02*
D03*
D30*
X165000Y330000D02*
D03*
X195000D02*
D03*
Y270000D02*
D03*
X165000D02*
D03*
Y230000D02*
D03*
X195000D02*
D03*
X165000Y210000D02*
D03*
X195000D02*
D03*
Y170000D02*
D03*
X165000D02*
D03*
X195000Y150000D02*
D03*
X165000D02*
D03*
Y110000D02*
D03*
X195000D02*
D03*
X280000Y420000D02*
D03*
Y490000D02*
D03*
X120000Y420000D02*
D03*
Y490000D02*
D03*
X226339Y145000D02*
D03*
X214000Y300000D02*
D03*
X215000Y289000D02*
D03*
X250000Y370000D02*
D03*
X220000Y190000D02*
D03*
D31*
X195000Y290000D02*
D03*
X165000D02*
D03*
D32*
X178898Y354567D02*
D03*
D33*
X270945Y125433D02*
D03*
D34*
X262047Y245000D02*
D03*
X277953Y335000D02*
D03*
X262047D02*
D03*
X277953Y325000D02*
D03*
X262047D02*
D03*
X277953Y315000D02*
D03*
X262047D02*
D03*
X277953Y305000D02*
D03*
X262047D02*
D03*
X277953Y295000D02*
D03*
X262047D02*
D03*
X277953Y285000D02*
D03*
X262047D02*
D03*
X277953Y275000D02*
D03*
X262047D02*
D03*
X277953Y265000D02*
D03*
X262047D02*
D03*
X277953Y255000D02*
D03*
X262047D02*
D03*
X277953Y245000D02*
D03*
Y235000D02*
D03*
X262047D02*
D03*
X277953Y225000D02*
D03*
X262047D02*
D03*
X277953Y215000D02*
D03*
X262047D02*
D03*
X277953Y205000D02*
D03*
X262047D02*
D03*
X277953Y195000D02*
D03*
X262047D02*
D03*
X277953Y185000D02*
D03*
X262047D02*
D03*
X277953Y175000D02*
D03*
X262047D02*
D03*
X277953Y165000D02*
D03*
X262047D02*
D03*
X277953Y155000D02*
D03*
X262047D02*
D03*
X277953Y145000D02*
D03*
X262047D02*
D03*
M02*
