G04*
G04 #@! TF.GenerationSoftware,Altium Limited,Altium Designer,18.1.9 (240)*
G04*
G04 Layer_Physical_Order=2*
G04 Layer_Color=16711680*
%FSLAX25Y25*%
%MOIN*%
G70*
G01*
G75*
%ADD23C,0.05906*%
%ADD24O,0.05906X0.11811*%
%ADD25C,0.05906*%
%ADD26R,0.05906X0.05906*%
%ADD27R,0.05906X0.05906*%
%ADD28O,0.11811X0.05906*%
%ADD29C,0.07874*%
%ADD30O,0.07874X0.05906*%
%ADD31O,0.24409X0.20000*%
%ADD32C,0.24410*%
%ADD33O,0.11811X0.05906*%
G36*
X300000Y100000D02*
X100000D01*
Y500000D01*
X300000D01*
Y100000D01*
D02*
G37*
%LPC*%
G36*
X282953Y496011D02*
Y492953D01*
X286011D01*
X285592Y493736D01*
X284755Y494756D01*
X283736Y495592D01*
X282953Y496011D01*
D02*
G37*
G36*
X122953D02*
Y492953D01*
X126011D01*
X125592Y493736D01*
X124756Y494756D01*
X123736Y495592D01*
X122953Y496011D01*
D02*
G37*
G36*
X277047D02*
X276264Y495592D01*
X275244Y494756D01*
X274408Y493736D01*
X273989Y492953D01*
X277047D01*
Y496011D01*
D02*
G37*
G36*
X117047D02*
X116264Y495592D01*
X115244Y494756D01*
X114408Y493736D01*
X113989Y492953D01*
X117047D01*
Y496011D01*
D02*
G37*
G36*
X255000Y488711D02*
X253510Y488515D01*
X252121Y487939D01*
X250928Y487024D01*
X250315Y486225D01*
X249685D01*
X249072Y487024D01*
X247879Y487939D01*
X246490Y488515D01*
X245000Y488711D01*
X243510Y488515D01*
X242121Y487939D01*
X240929Y487024D01*
X240315Y486225D01*
X239685D01*
X239071Y487024D01*
X237879Y487939D01*
X236490Y488515D01*
X235000Y488711D01*
X233510Y488515D01*
X232121Y487939D01*
X230928Y487024D01*
X230315Y486225D01*
X229685D01*
X229071Y487024D01*
X227879Y487939D01*
X226490Y488515D01*
X225000Y488711D01*
X223510Y488515D01*
X222121Y487939D01*
X220929Y487024D01*
X220315Y486225D01*
X219685D01*
X219072Y487024D01*
X217879Y487939D01*
X216490Y488515D01*
X215000Y488711D01*
X213510Y488515D01*
X212121Y487939D01*
X210929Y487024D01*
X210315Y486225D01*
X209685D01*
X209071Y487024D01*
X207879Y487939D01*
X206490Y488515D01*
X205000Y488711D01*
X203510Y488515D01*
X202121Y487939D01*
X200928Y487024D01*
X200315Y486225D01*
X199685D01*
X199072Y487024D01*
X197879Y487939D01*
X196490Y488515D01*
X195000Y488711D01*
X193510Y488515D01*
X192121Y487939D01*
X190928Y487024D01*
X190315Y486225D01*
X189685D01*
X189072Y487024D01*
X187879Y487939D01*
X186490Y488515D01*
X185000Y488711D01*
X183510Y488515D01*
X182121Y487939D01*
X180929Y487024D01*
X180315Y486225D01*
X179685D01*
X179071Y487024D01*
X177879Y487939D01*
X176490Y488515D01*
X175000Y488711D01*
X173510Y488515D01*
X172121Y487939D01*
X170929Y487024D01*
X170315Y486225D01*
X169685D01*
X169071Y487024D01*
X167879Y487939D01*
X166490Y488515D01*
X165000Y488711D01*
X163510Y488515D01*
X162121Y487939D01*
X160928Y487024D01*
X160315Y486225D01*
X159685D01*
X159072Y487024D01*
X157879Y487939D01*
X156490Y488515D01*
X155000Y488711D01*
X153510Y488515D01*
X152121Y487939D01*
X150928Y487024D01*
X150315Y486225D01*
X149685D01*
X149072Y487024D01*
X147879Y487939D01*
X146490Y488515D01*
X145000Y488711D01*
X143510Y488515D01*
X142121Y487939D01*
X140928Y487024D01*
X140014Y485832D01*
X139438Y484443D01*
X139242Y482953D01*
Y477047D01*
X139438Y475557D01*
X140014Y474168D01*
X140928Y472976D01*
X142121Y472061D01*
X143510Y471486D01*
X145000Y471289D01*
X146490Y471486D01*
X147879Y472061D01*
X149072Y472976D01*
X149685Y473775D01*
X150315D01*
X150928Y472976D01*
X152121Y472061D01*
X153510Y471486D01*
X155000Y471289D01*
X156490Y471486D01*
X157879Y472061D01*
X159072Y472976D01*
X159685Y473775D01*
X160315D01*
X160928Y472976D01*
X162121Y472061D01*
X163510Y471486D01*
X165000Y471289D01*
X166490Y471486D01*
X167879Y472061D01*
X169071Y472976D01*
X169685Y473775D01*
X170315D01*
X170929Y472976D01*
X172121Y472061D01*
X173510Y471486D01*
X175000Y471289D01*
X176490Y471486D01*
X177879Y472061D01*
X179071Y472976D01*
X179685Y473775D01*
X180315D01*
X180929Y472976D01*
X182121Y472061D01*
X183510Y471486D01*
X185000Y471289D01*
X186490Y471486D01*
X187879Y472061D01*
X189072Y472976D01*
X189685Y473775D01*
X190315D01*
X190928Y472976D01*
X192121Y472061D01*
X193510Y471486D01*
X195000Y471289D01*
X196490Y471486D01*
X197879Y472061D01*
X199072Y472976D01*
X199685Y473775D01*
X200315D01*
X200928Y472976D01*
X202121Y472061D01*
X203510Y471486D01*
X205000Y471289D01*
X206490Y471486D01*
X207879Y472061D01*
X209071Y472976D01*
X209685Y473775D01*
X210315D01*
X210929Y472976D01*
X212121Y472061D01*
X213510Y471486D01*
X215000Y471289D01*
X216490Y471486D01*
X217879Y472061D01*
X219072Y472976D01*
X219685Y473775D01*
X220315D01*
X220929Y472976D01*
X222121Y472061D01*
X223510Y471486D01*
X225000Y471289D01*
X226490Y471486D01*
X227879Y472061D01*
X229071Y472976D01*
X229685Y473775D01*
X230315D01*
X230928Y472976D01*
X232121Y472061D01*
X233510Y471486D01*
X235000Y471289D01*
X236268Y471456D01*
X236501Y470983D01*
X200928Y435410D01*
X200013Y434218D01*
X199438Y432829D01*
X199242Y431339D01*
Y427524D01*
X198742Y427277D01*
X197879Y427939D01*
X196490Y428514D01*
X195000Y428711D01*
X193510Y428514D01*
X192121Y427939D01*
X190928Y427024D01*
X190315Y426225D01*
X189685D01*
X189072Y427024D01*
X187879Y427939D01*
X186490Y428514D01*
X185000Y428711D01*
X183510Y428514D01*
X182121Y427939D01*
X180929Y427024D01*
X180315Y426225D01*
X179685D01*
X179071Y427024D01*
X177879Y427939D01*
X176490Y428514D01*
X175000Y428711D01*
X173510Y428514D01*
X172121Y427939D01*
X170929Y427024D01*
X170315Y426225D01*
X169685D01*
X169071Y427024D01*
X167879Y427939D01*
X166490Y428514D01*
X165000Y428711D01*
X163510Y428514D01*
X162121Y427939D01*
X160928Y427024D01*
X160315Y426225D01*
X159685D01*
X159072Y427024D01*
X157879Y427939D01*
X156490Y428514D01*
X155000Y428711D01*
X153510Y428514D01*
X152121Y427939D01*
X150928Y427024D01*
X150315Y426225D01*
X149685D01*
X149072Y427024D01*
X147953Y427883D01*
Y420000D01*
Y412117D01*
X149072Y412976D01*
X149685Y413775D01*
X150315D01*
X150928Y412976D01*
X152121Y412061D01*
X153510Y411485D01*
X155000Y411289D01*
X156490Y411485D01*
X157879Y412061D01*
X159072Y412976D01*
X159685Y413775D01*
X160315D01*
X160928Y412976D01*
X162121Y412061D01*
X163510Y411485D01*
X165000Y411289D01*
X166490Y411485D01*
X167879Y412061D01*
X169071Y412976D01*
X169685Y413775D01*
X170315D01*
X170929Y412976D01*
X172121Y412061D01*
X173510Y411485D01*
X175000Y411289D01*
X176490Y411485D01*
X177879Y412061D01*
X179071Y412976D01*
X179685Y413775D01*
X180315D01*
X180929Y412976D01*
X182121Y412061D01*
X183510Y411485D01*
X185000Y411289D01*
X186490Y411485D01*
X187879Y412061D01*
X189072Y412976D01*
X189685Y413775D01*
X190315D01*
X190928Y412976D01*
X192121Y412061D01*
X193510Y411485D01*
X195000Y411289D01*
X196490Y411485D01*
X197879Y412061D01*
X198742Y412723D01*
X199242Y412476D01*
Y402953D01*
Y400000D01*
Y397047D01*
Y356026D01*
X193772Y350556D01*
X193319Y350810D01*
X193512Y351614D01*
X181850D01*
Y341830D01*
X183104Y341929D01*
X184860Y342351D01*
X185113Y341897D01*
X181283Y338067D01*
X180368Y336874D01*
X179793Y335486D01*
X179596Y333995D01*
Y326849D01*
X173850Y321103D01*
X173342Y320892D01*
X172149Y319977D01*
X171234Y318784D01*
X170659Y317396D01*
X170463Y315905D01*
Y310000D01*
Y294291D01*
X169963Y294143D01*
X168863Y294987D01*
X167953Y295364D01*
Y290000D01*
Y284636D01*
X168863Y285014D01*
X170056Y285929D01*
X170971Y287121D01*
X171148Y287550D01*
X171644Y287615D01*
X172149Y286957D01*
X177549Y281557D01*
Y264802D01*
X172149Y259402D01*
X171234Y258209D01*
X170659Y256821D01*
X170463Y255330D01*
Y252953D01*
Y250000D01*
Y247047D01*
Y234636D01*
X169992Y234468D01*
X169755Y234755D01*
X168736Y235592D01*
X167953Y236011D01*
Y230000D01*
Y223989D01*
X168736Y224408D01*
X169755Y225244D01*
X170592Y226264D01*
X171191Y227384D01*
X171511Y227494D01*
X171710Y227530D01*
X172149Y226957D01*
X177549Y221557D01*
Y220000D01*
Y204802D01*
X172149Y199402D01*
X171234Y198209D01*
X170659Y196821D01*
X170463Y195330D01*
Y192953D01*
Y190000D01*
Y187047D01*
Y174636D01*
X169992Y174468D01*
X169755Y174756D01*
X168736Y175592D01*
X167953Y176011D01*
Y170000D01*
Y163989D01*
X168736Y164408D01*
X169755Y165244D01*
X170592Y166264D01*
X171191Y167384D01*
X171511Y167494D01*
X171710Y167530D01*
X172149Y166957D01*
X177549Y161557D01*
Y144802D01*
X172149Y139402D01*
X171234Y138209D01*
X170659Y136821D01*
X170463Y135330D01*
Y132953D01*
Y130000D01*
Y127047D01*
X170659Y125557D01*
X171234Y124168D01*
X172149Y122976D01*
X173342Y122061D01*
X174730Y121485D01*
X176221Y121289D01*
X177711Y121485D01*
X179099Y122061D01*
X180292Y122976D01*
X181207Y124168D01*
X181782Y125557D01*
X181978Y127047D01*
Y132945D01*
X184195Y135162D01*
X184619Y134879D01*
X184438Y134443D01*
X184242Y132953D01*
Y127047D01*
X184438Y125557D01*
X185013Y124168D01*
X185928Y122976D01*
X187121Y122061D01*
X188510Y121485D01*
X189242Y121389D01*
Y113426D01*
X188787Y112574D01*
X188404Y111312D01*
X188275Y110000D01*
X188404Y108688D01*
X188787Y107426D01*
X189408Y106264D01*
X190244Y105245D01*
X191264Y104408D01*
X192426Y103787D01*
X193688Y103404D01*
X195000Y103275D01*
X196312Y103404D01*
X197574Y103787D01*
X198736Y104408D01*
X199756Y105245D01*
X200592Y106264D01*
X201213Y107426D01*
X201596Y108688D01*
X201725Y110000D01*
X201596Y111312D01*
X201213Y112574D01*
X200758Y113426D01*
Y121579D01*
X201258Y121913D01*
X202289Y121485D01*
X203780Y121289D01*
X205270Y121485D01*
X206659Y122061D01*
X207851Y122976D01*
X208766Y124168D01*
X209341Y125557D01*
X209537Y127047D01*
Y132953D01*
X209419Y133850D01*
Y142848D01*
X209632Y143126D01*
X210207Y144514D01*
X210404Y146005D01*
Y157261D01*
X242385Y189242D01*
X254524D01*
X254770Y188742D01*
X254165Y187953D01*
X262047D01*
Y182047D01*
X254165D01*
X254770Y181258D01*
X254524Y180758D01*
X246005D01*
X244514Y180562D01*
X243126Y179987D01*
X241933Y179071D01*
X222267Y159405D01*
X221352Y158213D01*
X220777Y156824D01*
X220581Y155334D01*
Y148426D01*
X220125Y147574D01*
X219742Y146312D01*
X219613Y145000D01*
X219742Y143688D01*
X220125Y142426D01*
X220747Y141264D01*
X221583Y140244D01*
X222602Y139408D01*
X223765Y138787D01*
X225026Y138404D01*
X226339Y138275D01*
X227651Y138404D01*
X228912Y138787D01*
X230075Y139408D01*
X231094Y140244D01*
X231930Y141264D01*
X232552Y142426D01*
X232935Y143688D01*
X233064Y145000D01*
X232935Y146312D01*
X232552Y147574D01*
X232097Y148426D01*
Y152949D01*
X248390Y169242D01*
X254524D01*
X254770Y168742D01*
X254108Y167879D01*
X253533Y166490D01*
X253337Y165000D01*
X253533Y163510D01*
X254108Y162121D01*
X255023Y160928D01*
X255822Y160315D01*
Y159685D01*
X255023Y159072D01*
X254108Y157879D01*
X253533Y156490D01*
X253337Y155000D01*
X253533Y153510D01*
X254108Y152121D01*
X255023Y150928D01*
X255822Y150315D01*
Y149685D01*
X255023Y149072D01*
X254108Y147879D01*
X253533Y146490D01*
X253337Y145000D01*
X253533Y143510D01*
X254108Y142121D01*
X255023Y140928D01*
X256216Y140014D01*
X257604Y139438D01*
X259095Y139242D01*
X263916D01*
X263958Y139158D01*
X264030Y138742D01*
X262124Y137574D01*
X260333Y136045D01*
X258804Y134254D01*
X257574Y132246D01*
X256673Y130070D01*
X256268Y128386D01*
X270945D01*
Y122480D01*
X256268D01*
X256673Y120796D01*
X257574Y118620D01*
X258804Y116612D01*
X260333Y114822D01*
X261556Y113778D01*
X261371Y113278D01*
X256926D01*
X250758Y119446D01*
Y122953D01*
X250562Y124443D01*
X249987Y125832D01*
X249072Y127024D01*
X247879Y127939D01*
X246490Y128515D01*
X245000Y128711D01*
X243510Y128515D01*
X242121Y127939D01*
X240929Y127024D01*
X240315Y126225D01*
X239685D01*
X239071Y127024D01*
X237953Y127883D01*
Y120000D01*
Y112117D01*
X239071Y112976D01*
X239685Y113775D01*
X240315D01*
X240929Y112976D01*
X240987Y112931D01*
X250470Y103448D01*
X251662Y102533D01*
X253051Y101958D01*
X254541Y101762D01*
X278365D01*
X279855Y101958D01*
X281244Y102533D01*
X282436Y103448D01*
X292930Y113942D01*
X293845Y115134D01*
X294420Y116523D01*
X294616Y118013D01*
Y132853D01*
X294420Y134343D01*
X293845Y135732D01*
X292930Y136925D01*
X286431Y143423D01*
X286467Y143510D01*
X286663Y145000D01*
X286467Y146490D01*
X285892Y147879D01*
X285212Y148766D01*
X285433Y149299D01*
X286490Y149438D01*
X287879Y150013D01*
X289071Y150928D01*
X289986Y152121D01*
X290562Y153510D01*
X290676Y154379D01*
X293638Y157341D01*
X294553Y158533D01*
X295129Y159922D01*
X295325Y161412D01*
Y385433D01*
X295129Y386923D01*
X294553Y388312D01*
X293638Y389505D01*
X280758Y402385D01*
Y412615D01*
X281649Y413506D01*
X282574Y413787D01*
X283736Y414408D01*
X284755Y415244D01*
X285592Y416264D01*
X286213Y417426D01*
X286596Y418688D01*
X286725Y420000D01*
X286596Y421312D01*
X286213Y422574D01*
X285592Y423736D01*
X284755Y424755D01*
X283736Y425592D01*
X282574Y426213D01*
X281312Y426596D01*
X280000Y426725D01*
X278688Y426596D01*
X277426Y426213D01*
X276264Y425592D01*
X275244Y424755D01*
X274408Y423736D01*
X273787Y422574D01*
X273506Y421649D01*
X270929Y419071D01*
X270013Y417879D01*
X269438Y416490D01*
X269242Y415000D01*
Y407523D01*
X268742Y407277D01*
X267953Y407883D01*
Y400000D01*
Y392117D01*
X269072Y392976D01*
X269685Y393775D01*
X270315D01*
X270929Y392976D01*
X272121Y392061D01*
X273510Y391486D01*
X275000Y391289D01*
X275502Y391355D01*
X283809Y383048D01*
Y340517D01*
X283309Y340183D01*
X282396Y340562D01*
X280906Y340758D01*
X275000D01*
X273510Y340562D01*
X272121Y339986D01*
X270929Y339071D01*
X270315Y338272D01*
X269685D01*
X269072Y339071D01*
X267879Y339986D01*
X266490Y340562D01*
X265000Y340758D01*
X265000D01*
Y335000D01*
X262047D01*
Y332047D01*
X254165D01*
X255023Y330928D01*
X255822Y330315D01*
Y329685D01*
X255023Y329071D01*
X254108Y327879D01*
X253533Y326490D01*
X253337Y325000D01*
X253533Y323510D01*
X254108Y322121D01*
X255023Y320929D01*
X255822Y320315D01*
Y319685D01*
X255023Y319072D01*
X254108Y317879D01*
X253533Y316490D01*
X253337Y315000D01*
X253533Y313510D01*
X254108Y312121D01*
X255023Y310929D01*
X255822Y310315D01*
Y309776D01*
X255432Y309419D01*
X232412D01*
X230922Y309223D01*
X229533Y308648D01*
X228341Y307733D01*
X221128Y300520D01*
X220657Y300689D01*
X220596Y301312D01*
X220213Y302574D01*
X219758Y303426D01*
Y334615D01*
X248580Y363437D01*
X248688Y363404D01*
X250000Y363275D01*
X251312Y363404D01*
X252574Y363787D01*
X253736Y364408D01*
X254755Y365245D01*
X255592Y366264D01*
X256213Y367426D01*
X256596Y368688D01*
X256725Y370000D01*
X256596Y371312D01*
X256213Y372574D01*
X255592Y373736D01*
X254755Y374756D01*
X253736Y375592D01*
X252574Y376213D01*
X251312Y376596D01*
X250000Y376725D01*
X248688Y376596D01*
X247426Y376213D01*
X246435Y375684D01*
X245510Y375562D01*
X244121Y374987D01*
X242929Y374072D01*
X209928Y341072D01*
X209014Y339879D01*
X208438Y338490D01*
X208242Y337000D01*
Y320223D01*
X207742Y320061D01*
X206659Y320892D01*
X205270Y321467D01*
X203780Y321663D01*
X202289Y321467D01*
X201258Y321040D01*
X200758Y321374D01*
Y326574D01*
X201213Y327426D01*
X201596Y328688D01*
X201725Y330000D01*
X201596Y331312D01*
X201213Y332574D01*
X200592Y333736D01*
X199756Y334755D01*
X198736Y335592D01*
X197574Y336213D01*
X196690Y336481D01*
X196549Y337047D01*
X209071Y349570D01*
X209986Y350762D01*
X210562Y352151D01*
X210758Y353641D01*
Y392477D01*
X211258Y392723D01*
X212047Y392117D01*
Y400000D01*
Y407883D01*
X211258Y407277D01*
X210758Y407523D01*
Y412476D01*
X211258Y412723D01*
X212121Y412061D01*
X213510Y411485D01*
X215000Y411289D01*
X216490Y411485D01*
X217879Y412061D01*
X219072Y412976D01*
X219685Y413775D01*
X220315D01*
X220929Y412976D01*
X222121Y412061D01*
X223510Y411485D01*
X225000Y411289D01*
X226490Y411485D01*
X227879Y412061D01*
X229071Y412976D01*
X229685Y413775D01*
X230315D01*
X230928Y412976D01*
X232047Y412117D01*
Y420000D01*
Y427883D01*
X230928Y427024D01*
X230315Y426225D01*
X229685D01*
X229071Y427024D01*
X227879Y427939D01*
X226490Y428514D01*
X225000Y428711D01*
X223510Y428514D01*
X222121Y427939D01*
X220929Y427024D01*
X220315Y426225D01*
X219685D01*
X219072Y427024D01*
X217879Y427939D01*
X216490Y428514D01*
X215000Y428711D01*
X213510Y428514D01*
X212121Y427939D01*
X211258Y427277D01*
X210758Y427524D01*
Y428954D01*
X249072Y467267D01*
X249987Y468460D01*
X250562Y469848D01*
X250758Y471339D01*
Y472476D01*
X251258Y472723D01*
X252121Y472061D01*
X253510Y471486D01*
X255000Y471289D01*
X256490Y471486D01*
X257879Y472061D01*
X259071Y472976D01*
X259986Y474168D01*
X260562Y475557D01*
X260758Y477047D01*
Y482953D01*
X260562Y484443D01*
X259986Y485832D01*
X259071Y487024D01*
X257879Y487939D01*
X256490Y488515D01*
X255000Y488711D01*
D02*
G37*
G36*
X286011Y487047D02*
X282953D01*
Y483989D01*
X283736Y484408D01*
X284755Y485245D01*
X285592Y486264D01*
X286011Y487047D01*
D02*
G37*
G36*
X126011D02*
X122953D01*
Y483989D01*
X123736Y484408D01*
X124756Y485245D01*
X125592Y486264D01*
X126011Y487047D01*
D02*
G37*
G36*
X277047D02*
X273989D01*
X274408Y486264D01*
X275244Y485245D01*
X276264Y484408D01*
X277047Y483989D01*
Y487047D01*
D02*
G37*
G36*
X117047D02*
X113989D01*
X114408Y486264D01*
X115244Y485245D01*
X116264Y484408D01*
X117047Y483989D01*
Y487047D01*
D02*
G37*
G36*
X255000Y428711D02*
X253510Y428514D01*
X252121Y427939D01*
X250928Y427024D01*
X250315Y426225D01*
X249685D01*
X249072Y427024D01*
X247879Y427939D01*
X246490Y428514D01*
X245000Y428711D01*
X243510Y428514D01*
X242121Y427939D01*
X240929Y427024D01*
X240315Y426225D01*
X239685D01*
X239071Y427024D01*
X237953Y427883D01*
Y420000D01*
Y412117D01*
X239071Y412976D01*
X239685Y413775D01*
X240315D01*
X240929Y412976D01*
X242121Y412061D01*
X243510Y411485D01*
X245000Y411289D01*
X246490Y411485D01*
X247879Y412061D01*
X249072Y412976D01*
X249685Y413775D01*
X250315D01*
X250928Y412976D01*
X252121Y412061D01*
X253510Y411485D01*
X255000Y411289D01*
X256490Y411485D01*
X257879Y412061D01*
X259071Y412976D01*
X259986Y414168D01*
X260562Y415557D01*
X260758Y417047D01*
Y422953D01*
X260562Y424443D01*
X259986Y425832D01*
X259071Y427024D01*
X257879Y427939D01*
X256490Y428514D01*
X255000Y428711D01*
D02*
G37*
G36*
X142047Y427883D02*
X140928Y427024D01*
X140014Y425832D01*
X139438Y424443D01*
X139242Y422953D01*
Y422953D01*
X142047D01*
Y427883D01*
D02*
G37*
G36*
X120000Y426725D02*
X118688Y426596D01*
X117426Y426213D01*
X116264Y425592D01*
X115244Y424755D01*
X114408Y423736D01*
X113787Y422574D01*
X113404Y421312D01*
X113275Y420000D01*
X113404Y418688D01*
X113787Y417426D01*
X114408Y416264D01*
X115244Y415244D01*
X116264Y414408D01*
X117426Y413787D01*
X118688Y413404D01*
X120000Y413275D01*
X121312Y413404D01*
X122574Y413787D01*
X123736Y414408D01*
X124756Y415244D01*
X125592Y416264D01*
X126213Y417426D01*
X126596Y418688D01*
X126725Y420000D01*
X126596Y421312D01*
X126213Y422574D01*
X125592Y423736D01*
X124756Y424755D01*
X123736Y425592D01*
X122574Y426213D01*
X121312Y426596D01*
X120000Y426725D01*
D02*
G37*
G36*
X142047Y417047D02*
X139242D01*
Y417047D01*
X139438Y415557D01*
X140014Y414168D01*
X140928Y412976D01*
X142047Y412117D01*
Y417047D01*
D02*
G37*
G36*
X217953Y407883D02*
Y402953D01*
X220758D01*
Y402953D01*
X220562Y404443D01*
X219987Y405832D01*
X219072Y407024D01*
X217953Y407883D01*
D02*
G37*
G36*
X127953D02*
Y402953D01*
X130758D01*
Y402953D01*
X130562Y404443D01*
X129987Y405832D01*
X129071Y407024D01*
X127953Y407883D01*
D02*
G37*
G36*
X262047D02*
X260929Y407024D01*
X260014Y405832D01*
X259438Y404443D01*
X259242Y402953D01*
Y402953D01*
X262047D01*
Y407883D01*
D02*
G37*
G36*
X220758Y397047D02*
X217953D01*
Y392117D01*
X219072Y392976D01*
X219987Y394168D01*
X220562Y395557D01*
X220758Y397047D01*
Y397047D01*
D02*
G37*
G36*
X262047D02*
X259242D01*
Y397047D01*
X259438Y395557D01*
X260014Y394168D01*
X260929Y392976D01*
X262047Y392117D01*
Y397047D01*
D02*
G37*
G36*
X137953Y387607D02*
Y382677D01*
X140758D01*
Y382677D01*
X140562Y384167D01*
X139987Y385556D01*
X139072Y386749D01*
X137953Y387607D01*
D02*
G37*
G36*
X140758Y376772D02*
X137953D01*
Y371842D01*
X139072Y372700D01*
X139987Y373893D01*
X140562Y375281D01*
X140758Y376772D01*
D02*
G37*
G36*
X115000Y408711D02*
X113510Y408514D01*
X112121Y407939D01*
X110928Y407024D01*
X110013Y405832D01*
X109438Y404443D01*
X109242Y402953D01*
Y400000D01*
Y397047D01*
Y394798D01*
X109438Y393308D01*
X110013Y391919D01*
X110928Y390727D01*
X119242Y382413D01*
Y382109D01*
X115929Y378796D01*
X115928Y378796D01*
X106929Y369796D01*
X106014Y368603D01*
X105438Y367215D01*
X105242Y365724D01*
Y339000D01*
X105438Y337510D01*
X106014Y336121D01*
X106929Y334928D01*
X114242Y327615D01*
Y320758D01*
X112000D01*
X110510Y320562D01*
X109121Y319987D01*
X107929Y319072D01*
X104314Y315457D01*
X103399Y314265D01*
X102824Y312876D01*
X102628Y311386D01*
Y281614D01*
X102824Y280124D01*
X103399Y278735D01*
X104314Y277543D01*
X114242Y267615D01*
Y260758D01*
X111000D01*
X109510Y260562D01*
X108121Y259986D01*
X106929Y259071D01*
X102928Y255071D01*
X102014Y253879D01*
X101438Y252490D01*
X101242Y251000D01*
Y223000D01*
X101438Y221510D01*
X102014Y220121D01*
X102928Y218929D01*
X114242Y207615D01*
Y199537D01*
X110780D01*
X109289Y199341D01*
X107901Y198766D01*
X106708Y197851D01*
X102928Y194071D01*
X102014Y192879D01*
X101438Y191490D01*
X101242Y190000D01*
Y163000D01*
X101438Y161510D01*
X102014Y160121D01*
X102928Y158929D01*
X114242Y147615D01*
Y140017D01*
X114168Y139987D01*
X112976Y139072D01*
X112061Y137879D01*
X111486Y136490D01*
X111289Y135000D01*
X111486Y133510D01*
X112061Y132121D01*
X112976Y130929D01*
X113775Y130315D01*
Y129685D01*
X112976Y129071D01*
X112117Y127953D01*
X120000D01*
X127883D01*
X127024Y129071D01*
X126225Y129685D01*
Y130315D01*
X127024Y130929D01*
X127939Y132121D01*
X128515Y133510D01*
X128711Y135000D01*
X128515Y136490D01*
X127939Y137879D01*
X127024Y139072D01*
X125832Y139987D01*
X125758Y140017D01*
Y145392D01*
X126258Y145599D01*
X130463Y141394D01*
Y132953D01*
Y130000D01*
Y127047D01*
X130659Y125557D01*
X131234Y124168D01*
X132149Y122976D01*
X133342Y122061D01*
X134730Y121485D01*
X136221Y121289D01*
X137711Y121485D01*
X139099Y122061D01*
X140292Y122976D01*
X141207Y124168D01*
X141782Y125557D01*
X141978Y127047D01*
Y132953D01*
Y143780D01*
X141967Y143866D01*
X142297Y144242D01*
X161574D01*
X162426Y143787D01*
X163688Y143404D01*
X165000Y143275D01*
X166312Y143404D01*
X167574Y143787D01*
X168736Y144408D01*
X169755Y145245D01*
X170592Y146264D01*
X171213Y147426D01*
X171596Y148688D01*
X171725Y150000D01*
X171596Y151312D01*
X171213Y152574D01*
X170592Y153736D01*
X169755Y154755D01*
X168736Y155592D01*
X167574Y156213D01*
X166312Y156596D01*
X165000Y156725D01*
X163688Y156596D01*
X162426Y156213D01*
X161574Y155758D01*
X130000D01*
X128510Y155562D01*
X127121Y154987D01*
X126209Y154286D01*
X125709Y154533D01*
Y155709D01*
X122434D01*
X112758Y165385D01*
Y179245D01*
X113258Y179492D01*
X114168Y178793D01*
X115557Y178218D01*
X117047Y178022D01*
D01*
Y183780D01*
X120000D01*
Y186732D01*
X127883D01*
X127024Y187851D01*
X126225Y188464D01*
Y189095D01*
X127024Y189708D01*
X127939Y190901D01*
X128515Y192289D01*
X128711Y193780D01*
X128515Y195270D01*
X127939Y196659D01*
X127024Y197851D01*
X125832Y198766D01*
X125758Y198797D01*
Y205392D01*
X126258Y205599D01*
X130463Y201395D01*
Y192953D01*
Y190000D01*
Y187047D01*
X130659Y185557D01*
X131234Y184168D01*
X132149Y182976D01*
X133342Y182061D01*
X134730Y181485D01*
X136221Y181289D01*
X137711Y181485D01*
X139099Y182061D01*
X140292Y182976D01*
X141207Y184168D01*
X141782Y185557D01*
X141978Y187047D01*
Y192953D01*
Y203780D01*
X141967Y203866D01*
X142297Y204242D01*
X161574D01*
X162426Y203787D01*
X163688Y203404D01*
X165000Y203275D01*
X166312Y203404D01*
X167574Y203787D01*
X168736Y204408D01*
X169755Y205244D01*
X170592Y206264D01*
X171213Y207426D01*
X171596Y208688D01*
X171725Y210000D01*
X171596Y211312D01*
X171213Y212574D01*
X170592Y213736D01*
X169755Y214756D01*
X168736Y215592D01*
X167574Y216213D01*
X166312Y216596D01*
X165000Y216725D01*
X163688Y216596D01*
X162426Y216213D01*
X161574Y215758D01*
X130000D01*
X128510Y215562D01*
X127121Y214986D01*
X126209Y214286D01*
X125709Y214533D01*
Y215709D01*
X122434D01*
X112758Y225385D01*
Y240465D01*
X113258Y240712D01*
X114168Y240014D01*
X115557Y239438D01*
X117047Y239242D01*
X117047D01*
Y245000D01*
X120000D01*
Y247953D01*
X127883D01*
X127024Y249072D01*
X126225Y249685D01*
Y250315D01*
X127024Y250928D01*
X127939Y252121D01*
X128515Y253510D01*
X128711Y255000D01*
X128515Y256490D01*
X127939Y257879D01*
X127024Y259071D01*
X125832Y259986D01*
X125758Y260017D01*
Y265392D01*
X126258Y265599D01*
X130463Y261395D01*
Y252953D01*
Y250000D01*
Y247047D01*
X130659Y245557D01*
X131234Y244168D01*
X132149Y242976D01*
X133342Y242061D01*
X134730Y241486D01*
X136221Y241289D01*
X137711Y241486D01*
X139099Y242061D01*
X140292Y242976D01*
X141207Y244168D01*
X141782Y245557D01*
X141978Y247047D01*
Y252953D01*
Y263779D01*
X141967Y263866D01*
X142297Y264242D01*
X161574D01*
X162426Y263787D01*
X163688Y263404D01*
X165000Y263275D01*
X166312Y263404D01*
X167574Y263787D01*
X168736Y264408D01*
X169755Y265245D01*
X170592Y266264D01*
X171213Y267426D01*
X171596Y268688D01*
X171725Y270000D01*
X171596Y271312D01*
X171213Y272574D01*
X170592Y273736D01*
X169755Y274756D01*
X168736Y275592D01*
X167574Y276213D01*
X166312Y276596D01*
X165000Y276725D01*
X163688Y276596D01*
X162426Y276213D01*
X161574Y275758D01*
X130000D01*
X128510Y275562D01*
X127121Y274987D01*
X126209Y274286D01*
X125709Y274533D01*
Y275709D01*
X122434D01*
X114144Y283999D01*
Y299482D01*
X114644Y299817D01*
X115557Y299438D01*
X117047Y299242D01*
X117047D01*
Y305000D01*
X120000D01*
Y307953D01*
X127883D01*
X127024Y309071D01*
X126225Y309685D01*
Y310315D01*
X127024Y310929D01*
X127939Y312121D01*
X128515Y313510D01*
X128711Y315000D01*
X128515Y316490D01*
X127939Y317879D01*
X127024Y319072D01*
X125832Y319987D01*
X125758Y320017D01*
Y325392D01*
X126258Y325599D01*
X130463Y321394D01*
Y312953D01*
Y310000D01*
Y307047D01*
X130659Y305557D01*
X131234Y304168D01*
X132149Y302976D01*
X133342Y302061D01*
X134730Y301485D01*
X136221Y301289D01*
X137711Y301485D01*
X139099Y302061D01*
X140292Y302976D01*
X141207Y304168D01*
X141782Y305557D01*
X141978Y307047D01*
Y312953D01*
Y323780D01*
X141967Y323866D01*
X142297Y324242D01*
X161574D01*
X162426Y323787D01*
X163688Y323404D01*
X165000Y323275D01*
X166312Y323404D01*
X167574Y323787D01*
X168736Y324408D01*
X169755Y325244D01*
X170592Y326264D01*
X171213Y327426D01*
X171596Y328688D01*
X171725Y330000D01*
X171596Y331312D01*
X171213Y332574D01*
X170592Y333736D01*
X169755Y334755D01*
X168736Y335592D01*
X167574Y336213D01*
X166312Y336596D01*
X165000Y336725D01*
X163688Y336596D01*
X162426Y336213D01*
X161574Y335758D01*
X130000D01*
X128510Y335562D01*
X127121Y334986D01*
X126209Y334286D01*
X125709Y334533D01*
Y335709D01*
X122434D01*
X116758Y341385D01*
Y344723D01*
X117047Y344858D01*
Y350000D01*
X120000D01*
Y352953D01*
X124930D01*
X124286Y353791D01*
X124533Y354291D01*
X125709D01*
Y359626D01*
X125758Y360000D01*
Y371113D01*
X126490Y371210D01*
X127879Y371785D01*
X129071Y372700D01*
X129685Y373500D01*
X130315D01*
X130929Y372700D01*
X132047Y371842D01*
Y379724D01*
Y387607D01*
X130929Y386749D01*
X130918Y386735D01*
X130346Y386810D01*
X129987Y387677D01*
X129071Y388870D01*
X126848Y391093D01*
X126966Y391683D01*
X127879Y392061D01*
X129071Y392976D01*
X129987Y394168D01*
X130562Y395557D01*
X130758Y397047D01*
Y397047D01*
X125000D01*
Y400000D01*
X122047D01*
Y407883D01*
X120929Y407024D01*
X120315Y406225D01*
X119685D01*
X119071Y407024D01*
X117879Y407939D01*
X116490Y408514D01*
X115000Y408711D01*
D02*
G37*
G36*
X181850Y367303D02*
Y357520D01*
X193512D01*
X193271Y358521D01*
X192503Y360376D01*
X191454Y362088D01*
X190150Y363615D01*
X188623Y364919D01*
X186911Y365968D01*
X185056Y366736D01*
X183104Y367205D01*
X181850Y367303D01*
D02*
G37*
G36*
X175945D02*
X174691Y367205D01*
X172739Y366736D01*
X170884Y365968D01*
X169172Y364919D01*
X167645Y363615D01*
X166341Y362088D01*
X165292Y360376D01*
X164524Y358521D01*
X164284Y357520D01*
X175945D01*
Y367303D01*
D02*
G37*
G36*
X124930Y347047D02*
X122953D01*
Y345070D01*
X124072Y345929D01*
X124930Y347047D01*
D02*
G37*
G36*
X175945Y351614D02*
X164284D01*
X164524Y350613D01*
X165292Y348758D01*
X166341Y347046D01*
X167645Y345519D01*
X169172Y344215D01*
X170884Y343166D01*
X172739Y342398D01*
X174691Y341929D01*
X175945Y341830D01*
Y351614D01*
D02*
G37*
G36*
X259095Y340758D02*
X259095D01*
X257604Y340562D01*
X256216Y339986D01*
X255023Y339071D01*
X254165Y337953D01*
X259095D01*
Y340758D01*
D02*
G37*
G36*
X166732Y320835D02*
Y315905D01*
X169537D01*
Y315905D01*
X169341Y317396D01*
X168766Y318784D01*
X167851Y319977D01*
X166732Y320835D01*
D02*
G37*
G36*
X160827D02*
X159708Y319977D01*
X158793Y318784D01*
X158218Y317396D01*
X158022Y315905D01*
Y315905D01*
X160827D01*
Y320835D01*
D02*
G37*
G36*
X169537Y310000D02*
X166732D01*
Y305070D01*
X167851Y305928D01*
X168766Y307121D01*
X169341Y308510D01*
X169537Y310000D01*
Y310000D01*
D02*
G37*
G36*
X160827D02*
X158022D01*
Y310000D01*
X158218Y308510D01*
X158793Y307121D01*
X159708Y305928D01*
X160827Y305070D01*
Y310000D01*
D02*
G37*
G36*
X150000Y318711D02*
X148510Y318514D01*
X147121Y317939D01*
X145929Y317024D01*
X145013Y315832D01*
X144438Y314443D01*
X144242Y312953D01*
Y307047D01*
X144438Y305557D01*
X145013Y304168D01*
X145929Y302976D01*
X147121Y302061D01*
X148510Y301485D01*
X150000Y301289D01*
X151490Y301485D01*
X152879Y302061D01*
X154071Y302976D01*
X154987Y304168D01*
X155562Y305557D01*
X155758Y307047D01*
Y312953D01*
X155562Y314443D01*
X154987Y315832D01*
X154071Y317024D01*
X152879Y317939D01*
X151490Y318514D01*
X150000Y318711D01*
D02*
G37*
G36*
X127883Y302047D02*
X122953D01*
Y299242D01*
X122953D01*
X124443Y299438D01*
X125832Y300013D01*
X127024Y300928D01*
X127883Y302047D01*
D02*
G37*
G36*
X162047Y295364D02*
X161137Y294987D01*
X159944Y294072D01*
X159086Y292953D01*
X162047D01*
Y295364D01*
D02*
G37*
G36*
Y287047D02*
X159086D01*
X159944Y285929D01*
X161137Y285014D01*
X162047Y284636D01*
Y287047D01*
D02*
G37*
G36*
X166732Y257883D02*
Y252953D01*
X169537D01*
Y252953D01*
X169341Y254443D01*
X168766Y255832D01*
X167851Y257024D01*
X166732Y257883D01*
D02*
G37*
G36*
X160827D02*
X159708Y257024D01*
X158793Y255832D01*
X158218Y254443D01*
X158022Y252953D01*
Y252953D01*
X160827D01*
Y257883D01*
D02*
G37*
G36*
X169537Y247047D02*
X166732D01*
Y242117D01*
X167851Y242976D01*
X168766Y244168D01*
X169341Y245557D01*
X169537Y247047D01*
Y247047D01*
D02*
G37*
G36*
X160827D02*
X158022D01*
Y247047D01*
X158218Y245557D01*
X158793Y244168D01*
X159708Y242976D01*
X160827Y242117D01*
Y247047D01*
D02*
G37*
G36*
X150000Y258711D02*
X148510Y258514D01*
X147121Y257939D01*
X145929Y257024D01*
X145013Y255832D01*
X144438Y254443D01*
X144242Y252953D01*
Y247047D01*
X144438Y245557D01*
X145013Y244168D01*
X145929Y242976D01*
X147121Y242061D01*
X148510Y241486D01*
X150000Y241289D01*
X151490Y241486D01*
X152879Y242061D01*
X154071Y242976D01*
X154987Y244168D01*
X155562Y245557D01*
X155758Y247047D01*
Y252953D01*
X155562Y254443D01*
X154987Y255832D01*
X154071Y257024D01*
X152879Y257939D01*
X151490Y258514D01*
X150000Y258711D01*
D02*
G37*
G36*
X127883Y242047D02*
X122953D01*
Y239242D01*
X122953D01*
X124443Y239438D01*
X125832Y240014D01*
X127024Y240929D01*
X127883Y242047D01*
D02*
G37*
G36*
X162047Y236011D02*
X161264Y235592D01*
X160245Y234755D01*
X159408Y233736D01*
X158989Y232953D01*
X162047D01*
Y236011D01*
D02*
G37*
G36*
Y227047D02*
X158989D01*
X159408Y226264D01*
X160245Y225244D01*
X161264Y224408D01*
X162047Y223989D01*
Y227047D01*
D02*
G37*
G36*
X166732Y197883D02*
Y192953D01*
X169537D01*
Y192953D01*
X169341Y194443D01*
X168766Y195832D01*
X167851Y197024D01*
X166732Y197883D01*
D02*
G37*
G36*
X160827D02*
X159708Y197024D01*
X158793Y195832D01*
X158218Y194443D01*
X158022Y192953D01*
Y192953D01*
X160827D01*
Y197883D01*
D02*
G37*
G36*
X169537Y187047D02*
X166732D01*
Y182117D01*
X167851Y182976D01*
X168766Y184168D01*
X169341Y185557D01*
X169537Y187047D01*
Y187047D01*
D02*
G37*
G36*
X160827D02*
X158022D01*
Y187047D01*
X158218Y185557D01*
X158793Y184168D01*
X159708Y182976D01*
X160827Y182117D01*
Y187047D01*
D02*
G37*
G36*
X150000Y198711D02*
X148510Y198514D01*
X147121Y197939D01*
X145929Y197024D01*
X145013Y195832D01*
X144438Y194443D01*
X144242Y192953D01*
Y187047D01*
X144438Y185557D01*
X145013Y184168D01*
X145929Y182976D01*
X147121Y182061D01*
X148510Y181485D01*
X150000Y181289D01*
X151490Y181485D01*
X152879Y182061D01*
X154071Y182976D01*
X154987Y184168D01*
X155562Y185557D01*
X155758Y187047D01*
Y192953D01*
X155562Y194443D01*
X154987Y195832D01*
X154071Y197024D01*
X152879Y197939D01*
X151490Y198514D01*
X150000Y198711D01*
D02*
G37*
G36*
X127883Y180827D02*
X122953D01*
Y178022D01*
X122953D01*
X124443Y178218D01*
X125832Y178793D01*
X127024Y179708D01*
X127883Y180827D01*
D02*
G37*
G36*
X162047Y176011D02*
X161264Y175592D01*
X160245Y174756D01*
X159408Y173736D01*
X158989Y172953D01*
X162047D01*
Y176011D01*
D02*
G37*
G36*
Y167047D02*
X158989D01*
X159408Y166264D01*
X160245Y165244D01*
X161264Y164408D01*
X162047Y163989D01*
Y167047D01*
D02*
G37*
G36*
X166732Y137883D02*
Y132953D01*
X169537D01*
Y132953D01*
X169341Y134443D01*
X168766Y135832D01*
X167851Y137024D01*
X166732Y137883D01*
D02*
G37*
G36*
X160827D02*
X159708Y137024D01*
X158793Y135832D01*
X158218Y134443D01*
X158022Y132953D01*
Y132953D01*
X160827D01*
Y137883D01*
D02*
G37*
G36*
X232047Y127883D02*
X230928Y127024D01*
X230013Y125832D01*
X229438Y124443D01*
X229242Y122953D01*
Y122953D01*
X232047D01*
Y127883D01*
D02*
G37*
G36*
X169537Y127047D02*
X166732D01*
Y122117D01*
X167851Y122976D01*
X168766Y124168D01*
X169341Y125557D01*
X169537Y127047D01*
Y127047D01*
D02*
G37*
G36*
X160827D02*
X158022D01*
Y127047D01*
X158218Y125557D01*
X158793Y124168D01*
X159708Y122976D01*
X160827Y122117D01*
Y127047D01*
D02*
G37*
G36*
X150000Y138711D02*
X148510Y138514D01*
X147121Y137939D01*
X145929Y137024D01*
X145013Y135832D01*
X144438Y134443D01*
X144242Y132953D01*
Y127047D01*
X144438Y125557D01*
X145013Y124168D01*
X145929Y122976D01*
X147121Y122061D01*
X148510Y121485D01*
X150000Y121289D01*
X151490Y121485D01*
X152879Y122061D01*
X154071Y122976D01*
X154987Y124168D01*
X155562Y125557D01*
X155758Y127047D01*
Y132953D01*
X155562Y134443D01*
X154987Y135832D01*
X154071Y137024D01*
X152879Y137939D01*
X151490Y138514D01*
X150000Y138711D01*
D02*
G37*
G36*
X127883Y122047D02*
X122953D01*
Y119242D01*
X122953D01*
X124443Y119438D01*
X125832Y120013D01*
X127024Y120929D01*
X127883Y122047D01*
D02*
G37*
G36*
X117047D02*
X112117D01*
X112976Y120929D01*
X114168Y120013D01*
X115557Y119438D01*
X117047Y119242D01*
X117047D01*
Y122047D01*
D02*
G37*
G36*
X167953Y116011D02*
Y112953D01*
X171011D01*
X170592Y113736D01*
X169755Y114755D01*
X168736Y115592D01*
X167953Y116011D01*
D02*
G37*
G36*
X162047D02*
X161264Y115592D01*
X160245Y114755D01*
X159408Y113736D01*
X158989Y112953D01*
X162047D01*
Y116011D01*
D02*
G37*
G36*
X232047Y117047D02*
X229242D01*
Y117047D01*
X229438Y115557D01*
X230013Y114168D01*
X230928Y112976D01*
X232047Y112117D01*
Y117047D01*
D02*
G37*
G36*
X171011Y107047D02*
X167953D01*
Y103989D01*
X168736Y104408D01*
X169755Y105245D01*
X170592Y106264D01*
X171011Y107047D01*
D02*
G37*
G36*
X162047D02*
X158989D01*
X159408Y106264D01*
X160245Y105245D01*
X161264Y104408D01*
X162047Y103989D01*
Y107047D01*
D02*
G37*
%LPD*%
G36*
X254770Y278742D02*
X254108Y277879D01*
X253533Y276490D01*
X253337Y275000D01*
X253533Y273510D01*
X254108Y272121D01*
X255023Y270929D01*
X255822Y270315D01*
Y269685D01*
X255023Y269072D01*
X254165Y267953D01*
X262047D01*
Y262047D01*
X254165D01*
X255023Y260929D01*
X255822Y260315D01*
Y259685D01*
X255023Y259071D01*
X254108Y257879D01*
X253533Y256490D01*
X253337Y255000D01*
X253533Y253510D01*
X254108Y252121D01*
X255023Y250928D01*
X255822Y250315D01*
Y249685D01*
X255023Y249072D01*
X254108Y247879D01*
X253533Y246490D01*
X253337Y245000D01*
X253533Y243510D01*
X254108Y242121D01*
X255023Y240929D01*
X255822Y240315D01*
Y239685D01*
X255023Y239071D01*
X254108Y237879D01*
X253533Y236490D01*
X253337Y235000D01*
X253533Y233510D01*
X254108Y232121D01*
X254770Y231258D01*
X254524Y230758D01*
X247523D01*
X247277Y231258D01*
X247883Y232047D01*
X240000D01*
X232117D01*
X232723Y231258D01*
X232476Y230758D01*
X203641D01*
X202172Y230564D01*
X202025Y230562D01*
X201648Y230788D01*
X201596Y231312D01*
X201213Y232574D01*
X200758Y233426D01*
Y241579D01*
X201258Y241913D01*
X202289Y241486D01*
X203780Y241289D01*
X205270Y241486D01*
X206659Y242061D01*
X207851Y242976D01*
X208766Y244168D01*
X209341Y245557D01*
X209537Y247047D01*
Y247615D01*
X241164Y279242D01*
X254524D01*
X254770Y278742D01*
D02*
G37*
%LPC*%
G36*
X242953Y240758D02*
X242953D01*
Y237953D01*
X247883D01*
X247024Y239071D01*
X245832Y239986D01*
X244443Y240562D01*
X242953Y240758D01*
D02*
G37*
G36*
X237047D02*
X237047D01*
X235557Y240562D01*
X234168Y239986D01*
X232976Y239071D01*
X232117Y237953D01*
X237047D01*
Y240758D01*
D02*
G37*
%LPD*%
D23*
X285000Y155000D02*
Y156845D01*
X254541Y107520D02*
X278365D01*
X245000Y117061D02*
X254541Y107520D01*
X245000Y117061D02*
Y120000D01*
X226339Y145000D02*
Y155334D01*
X203780Y295320D02*
Y310000D01*
Y295320D02*
X204646Y294454D01*
X247000Y370000D02*
X250000D01*
X214000Y337000D02*
X247000Y370000D01*
X214000Y300000D02*
Y337000D01*
X190000Y310000D02*
X195000Y305000D01*
Y290000D02*
Y305000D01*
X238779Y285000D02*
X265000D01*
X203780Y250000D02*
X238779Y285000D01*
X263661Y303661D02*
X265000Y305000D01*
X232412Y303661D02*
X263661D01*
X217751Y289000D02*
X232412Y303661D01*
X215000Y289000D02*
X217751D01*
X236000Y295000D02*
X265000D01*
X204646Y278354D02*
Y294454D01*
Y278354D02*
X208000Y275000D01*
X216000D01*
X236000Y295000D01*
X220000Y190000D02*
X235000Y205000D01*
X265000D01*
X204646Y146005D02*
Y159646D01*
X240000Y195000D01*
X265000D01*
X246005Y175000D02*
X265000D01*
X226339Y155334D02*
X246005Y175000D01*
X203661Y130118D02*
Y145020D01*
Y130118D02*
X203780Y130000D01*
X203661Y145020D02*
X204646Y146005D01*
X115000Y394798D02*
Y400000D01*
Y394798D02*
X125000Y384798D01*
Y379724D02*
Y384798D01*
X120000Y374724D02*
X125000Y379724D01*
X111000Y365724D02*
X120000Y374724D01*
X111000Y339000D02*
Y365724D01*
Y339000D02*
X120000Y330000D01*
Y360000D02*
Y374724D01*
X205000Y400000D02*
Y420000D01*
Y353641D02*
Y400000D01*
Y431339D02*
X245000Y471339D01*
Y480000D01*
X275000Y145000D02*
Y155000D01*
X198995Y220354D02*
X203641Y225000D01*
X240000D02*
X265000D01*
X183307Y220000D02*
X183661Y220354D01*
X203641Y225000D02*
X240000D01*
X183307Y202417D02*
Y220000D01*
Y223942D01*
X183661Y220354D02*
X198995D01*
X275000Y400000D02*
Y415000D01*
Y400000D02*
X289567Y385433D01*
X285000Y156845D02*
X289567Y161412D01*
Y385433D01*
X275000Y415000D02*
X280000Y420000D01*
X107000Y190000D02*
X110780Y193780D01*
X107000Y163000D02*
Y190000D01*
Y163000D02*
X120000Y150000D01*
X205000Y420000D02*
Y431339D01*
X203780Y190000D02*
X228780Y215000D01*
X265000D01*
X107000Y251000D02*
X111000Y255000D01*
X110780Y193780D02*
X120000D01*
X108386Y311386D02*
X112000Y315000D01*
X108386Y281614D02*
X120000Y270000D01*
X112000Y315000D02*
X120000D01*
X108386Y281614D02*
Y311386D01*
X111000Y255000D02*
X120000D01*
X107000Y223000D02*
Y251000D01*
Y223000D02*
X120000Y210000D01*
X288858Y118013D02*
Y132853D01*
X275000Y145000D02*
X276654Y143347D01*
X278365D01*
X288858Y132853D01*
X176221Y231029D02*
X183307Y223942D01*
Y262417D02*
Y283942D01*
X176221Y231029D02*
Y250000D01*
X183307Y142417D02*
Y163942D01*
X245000Y480000D02*
X255000D01*
X176221Y255330D02*
X183307Y262417D01*
X176221Y171029D02*
X183307Y163942D01*
X176221Y171029D02*
Y190000D01*
Y250000D02*
Y255330D01*
X278365Y107520D02*
X288858Y118013D01*
X120000Y255000D02*
Y270000D01*
Y315000D02*
Y330000D01*
Y193780D02*
Y210000D01*
Y135000D02*
Y150000D01*
X130000D02*
X165000D01*
X195000Y135000D02*
Y150000D01*
Y195000D02*
Y210000D01*
Y170000D02*
Y185000D01*
X190000Y190000D02*
X195000Y195000D01*
Y255000D02*
Y270000D01*
Y315000D02*
Y330000D01*
Y110000D02*
Y125000D01*
X190000Y190000D02*
X195000Y185000D01*
X190000Y250000D02*
X195000Y245000D01*
X190000Y130000D02*
X195000Y125000D01*
X190000Y130000D02*
X195000Y135000D01*
Y230000D02*
Y245000D01*
X190000Y310000D02*
X195000Y315000D01*
X190000Y250000D02*
X195000Y255000D01*
X130000Y210000D02*
X165000D01*
X130000Y270000D02*
X165000D01*
X136221Y310000D02*
Y323780D01*
X130000Y330000D02*
X165000D01*
X130000D02*
X136221Y323780D01*
X130000Y150000D02*
X136221Y143780D01*
Y130000D02*
Y143780D01*
Y190000D02*
Y203780D01*
X130000Y210000D02*
X136221Y203780D01*
Y250000D02*
Y263779D01*
X130000Y270000D02*
X136221Y263779D01*
X275000Y155000D02*
X285000D01*
X176221Y310000D02*
Y315330D01*
X185354Y324464D02*
Y333995D01*
X205000Y353641D01*
X176221Y315330D02*
X185354Y324464D01*
X176221Y291029D02*
X183307Y283942D01*
X176221Y190000D02*
Y195330D01*
Y291029D02*
Y310000D01*
Y195330D02*
X183307Y202417D01*
X176221Y135330D02*
X183307Y142417D01*
X176221Y130000D02*
Y135330D01*
D24*
X265000Y400000D02*
D03*
X275000D02*
D03*
X215000D02*
D03*
X205000D02*
D03*
X125000D02*
D03*
X115000D02*
D03*
X135000Y379724D02*
D03*
X125000D02*
D03*
X136221Y310000D02*
D03*
X150000D02*
D03*
X163779Y312953D02*
D03*
X176221D02*
D03*
X190000D02*
D03*
X203780D02*
D03*
X136221Y250000D02*
D03*
X150000D02*
D03*
X163779D02*
D03*
X136221Y190000D02*
D03*
X150000D02*
D03*
X163779D02*
D03*
X136221Y130000D02*
D03*
X150000D02*
D03*
X163779D02*
D03*
X176221Y250000D02*
D03*
X190000D02*
D03*
X203780D02*
D03*
X176221Y190000D02*
D03*
X190000D02*
D03*
X203780D02*
D03*
X176221Y130000D02*
D03*
X190000D02*
D03*
X203780D02*
D03*
X235000Y120000D02*
D03*
X245000D02*
D03*
X255000Y420000D02*
D03*
X245000D02*
D03*
X235000D02*
D03*
X225000D02*
D03*
X215000D02*
D03*
X205000D02*
D03*
X195000D02*
D03*
X185000D02*
D03*
X175000D02*
D03*
X165000D02*
D03*
X155000D02*
D03*
X145000D02*
D03*
Y480000D02*
D03*
X155000D02*
D03*
X165000D02*
D03*
X175000D02*
D03*
X185000D02*
D03*
X195000D02*
D03*
X205000D02*
D03*
X215000D02*
D03*
X225000D02*
D03*
X235000D02*
D03*
X245000D02*
D03*
X255000D02*
D03*
D25*
X120000Y350000D02*
D03*
X130000Y330000D02*
D03*
Y270000D02*
D03*
Y210000D02*
D03*
Y150000D02*
D03*
D26*
X120000Y360000D02*
D03*
D27*
Y330000D02*
D03*
Y270000D02*
D03*
Y210000D02*
D03*
Y150000D02*
D03*
D28*
Y305000D02*
D03*
Y315000D02*
D03*
Y245000D02*
D03*
Y255000D02*
D03*
Y183780D02*
D03*
Y193780D02*
D03*
Y125000D02*
D03*
Y135000D02*
D03*
X240000Y225000D02*
D03*
Y235000D02*
D03*
D29*
X165000Y330000D02*
D03*
X195000D02*
D03*
Y270000D02*
D03*
X165000D02*
D03*
Y230000D02*
D03*
X195000D02*
D03*
X165000Y210000D02*
D03*
X195000D02*
D03*
Y170000D02*
D03*
X165000D02*
D03*
X195000Y150000D02*
D03*
X165000D02*
D03*
Y110000D02*
D03*
X195000D02*
D03*
X280000Y420000D02*
D03*
Y490000D02*
D03*
X120000Y420000D02*
D03*
Y490000D02*
D03*
X226339Y145000D02*
D03*
X214000Y300000D02*
D03*
X215000Y289000D02*
D03*
X250000Y370000D02*
D03*
X220000Y190000D02*
D03*
D30*
X195000Y290000D02*
D03*
X165000D02*
D03*
D31*
X178898Y354567D02*
D03*
D32*
X270945Y125433D02*
D03*
D33*
X262047Y245000D02*
D03*
X277953Y335000D02*
D03*
X262047D02*
D03*
X277953Y325000D02*
D03*
X262047D02*
D03*
X277953Y315000D02*
D03*
X262047D02*
D03*
X277953Y305000D02*
D03*
X262047D02*
D03*
X277953Y295000D02*
D03*
X262047D02*
D03*
X277953Y285000D02*
D03*
X262047D02*
D03*
X277953Y275000D02*
D03*
X262047D02*
D03*
X277953Y265000D02*
D03*
X262047D02*
D03*
X277953Y255000D02*
D03*
X262047D02*
D03*
X277953Y245000D02*
D03*
Y235000D02*
D03*
X262047D02*
D03*
X277953Y225000D02*
D03*
X262047D02*
D03*
X277953Y215000D02*
D03*
X262047D02*
D03*
X277953Y205000D02*
D03*
X262047D02*
D03*
X277953Y195000D02*
D03*
X262047D02*
D03*
X277953Y185000D02*
D03*
X262047D02*
D03*
X277953Y175000D02*
D03*
X262047D02*
D03*
X277953Y165000D02*
D03*
X262047D02*
D03*
X277953Y155000D02*
D03*
X262047D02*
D03*
X277953Y145000D02*
D03*
X262047D02*
D03*
M02*
