G04*
G04 #@! TF.GenerationSoftware,Altium Limited,Altium Designer,18.1.9 (240)*
G04*
G04 Layer_Physical_Order=2*
G04 Layer_Color=16711680*
%FSLAX25Y25*%
%MOIN*%
G70*
G01*
G75*
%ADD24C,0.05906*%
%ADD25O,0.05906X0.11811*%
%ADD26C,0.05906*%
%ADD27R,0.05906X0.05906*%
%ADD28R,0.05906X0.05906*%
%ADD29O,0.11811X0.05906*%
%ADD30C,0.07874*%
%ADD31O,0.07874X0.05906*%
%ADD32O,0.24409X0.20000*%
%ADD33C,0.24410*%
%ADD34O,0.11811X0.05906*%
G36*
X100000Y100000D02*
X300000D01*
Y500000D01*
X100000D01*
Y100000D01*
D02*
G37*
%LPC*%
G36*
X117047Y496011D02*
Y492953D01*
X113989D01*
X114408Y493736D01*
X115244Y494756D01*
X116264Y495592D01*
X117047Y496011D01*
D02*
G37*
G36*
X277047D02*
Y492953D01*
X273989D01*
X274408Y493736D01*
X275244Y494756D01*
X276264Y495592D01*
X277047Y496011D01*
D02*
G37*
G36*
X122953D02*
X123736Y495592D01*
X124756Y494756D01*
X125592Y493736D01*
X126011Y492953D01*
X122953D01*
Y496011D01*
D02*
G37*
G36*
X282953D02*
X283736Y495592D01*
X284755Y494756D01*
X285592Y493736D01*
X286011Y492953D01*
X282953D01*
Y496011D01*
D02*
G37*
G36*
X145000Y488711D02*
X146490Y488515D01*
X147879Y487939D01*
X149072Y487024D01*
X149685Y486225D01*
X150315D01*
X150928Y487024D01*
X152121Y487939D01*
X153510Y488515D01*
X155000Y488711D01*
X156490Y488515D01*
X157879Y487939D01*
X159072Y487024D01*
X159685Y486225D01*
X160315D01*
X160928Y487024D01*
X162121Y487939D01*
X163510Y488515D01*
X165000Y488711D01*
X166490Y488515D01*
X167879Y487939D01*
X169071Y487024D01*
X169685Y486225D01*
X170315D01*
X170929Y487024D01*
X172121Y487939D01*
X173510Y488515D01*
X175000Y488711D01*
X176490Y488515D01*
X177879Y487939D01*
X179071Y487024D01*
X179685Y486225D01*
X180315D01*
X180929Y487024D01*
X182121Y487939D01*
X183510Y488515D01*
X185000Y488711D01*
X186490Y488515D01*
X187879Y487939D01*
X189072Y487024D01*
X189685Y486225D01*
X190315D01*
X190928Y487024D01*
X192121Y487939D01*
X193510Y488515D01*
X195000Y488711D01*
X196490Y488515D01*
X197879Y487939D01*
X199072Y487024D01*
X199685Y486225D01*
X200315D01*
X200928Y487024D01*
X202121Y487939D01*
X203510Y488515D01*
X205000Y488711D01*
X206490Y488515D01*
X207879Y487939D01*
X209071Y487024D01*
X209685Y486225D01*
X210315D01*
X210929Y487024D01*
X212121Y487939D01*
X213510Y488515D01*
X215000Y488711D01*
X216490Y488515D01*
X217879Y487939D01*
X219072Y487024D01*
X219685Y486225D01*
X220315D01*
X220929Y487024D01*
X222121Y487939D01*
X223510Y488515D01*
X225000Y488711D01*
X226490Y488515D01*
X227879Y487939D01*
X229071Y487024D01*
X229685Y486225D01*
X230315D01*
X230928Y487024D01*
X232121Y487939D01*
X233510Y488515D01*
X235000Y488711D01*
X236490Y488515D01*
X237879Y487939D01*
X239071Y487024D01*
X239685Y486225D01*
X240315D01*
X240929Y487024D01*
X242121Y487939D01*
X243510Y488515D01*
X245000Y488711D01*
X246490Y488515D01*
X247879Y487939D01*
X249072Y487024D01*
X249685Y486225D01*
X250315D01*
X250928Y487024D01*
X252121Y487939D01*
X253510Y488515D01*
X255000Y488711D01*
X256490Y488515D01*
X257879Y487939D01*
X259071Y487024D01*
X259986Y485832D01*
X260562Y484443D01*
X260758Y482953D01*
Y477047D01*
X260562Y475557D01*
X259986Y474168D01*
X259071Y472976D01*
X257879Y472061D01*
X256490Y471486D01*
X255000Y471289D01*
X253510Y471486D01*
X252121Y472061D01*
X250928Y472976D01*
X250315Y473775D01*
X249685D01*
X249072Y472976D01*
X247879Y472061D01*
X246490Y471486D01*
X245000Y471289D01*
X243510Y471486D01*
X242121Y472061D01*
X240929Y472976D01*
X240315Y473775D01*
X239685D01*
X239071Y472976D01*
X237879Y472061D01*
X236490Y471486D01*
X235000Y471289D01*
X233510Y471486D01*
X232121Y472061D01*
X230928Y472976D01*
X230315Y473775D01*
X229685D01*
X229071Y472976D01*
X227879Y472061D01*
X226490Y471486D01*
X225000Y471289D01*
X223510Y471486D01*
X222121Y472061D01*
X220929Y472976D01*
X220315Y473775D01*
X219685D01*
X219072Y472976D01*
X217879Y472061D01*
X216490Y471486D01*
X215000Y471289D01*
X213510Y471486D01*
X212121Y472061D01*
X210929Y472976D01*
X210315Y473775D01*
X209685D01*
X209071Y472976D01*
X207879Y472061D01*
X206490Y471486D01*
X205000Y471289D01*
X203510Y471486D01*
X202121Y472061D01*
X200928Y472976D01*
X200315Y473775D01*
X199685D01*
X199072Y472976D01*
X197879Y472061D01*
X196490Y471486D01*
X195000Y471289D01*
X193510Y471486D01*
X192121Y472061D01*
X190928Y472976D01*
X190315Y473775D01*
X189685D01*
X189072Y472976D01*
X187879Y472061D01*
X186490Y471486D01*
X185000Y471289D01*
X183510Y471486D01*
X182121Y472061D01*
X180929Y472976D01*
X180315Y473775D01*
X179685D01*
X179071Y472976D01*
X177879Y472061D01*
X176490Y471486D01*
X175000Y471289D01*
X173510Y471486D01*
X172121Y472061D01*
X170929Y472976D01*
X170315Y473775D01*
X169685D01*
X169071Y472976D01*
X167879Y472061D01*
X166490Y471486D01*
X165000Y471289D01*
X163732Y471456D01*
X163499Y470983D01*
X199072Y435410D01*
X199987Y434218D01*
X200562Y432829D01*
X200758Y431339D01*
Y427524D01*
X201258Y427277D01*
X202121Y427939D01*
X203510Y428514D01*
X205000Y428711D01*
X206490Y428514D01*
X207879Y427939D01*
X209071Y427024D01*
X209685Y426225D01*
X210315D01*
X210929Y427024D01*
X212121Y427939D01*
X213510Y428514D01*
X215000Y428711D01*
X216490Y428514D01*
X217879Y427939D01*
X219072Y427024D01*
X219685Y426225D01*
X220315D01*
X220929Y427024D01*
X222121Y427939D01*
X223510Y428514D01*
X225000Y428711D01*
X226490Y428514D01*
X227879Y427939D01*
X229071Y427024D01*
X229685Y426225D01*
X230315D01*
X230928Y427024D01*
X232121Y427939D01*
X233510Y428514D01*
X235000Y428711D01*
X236490Y428514D01*
X237879Y427939D01*
X239071Y427024D01*
X239685Y426225D01*
X240315D01*
X240929Y427024D01*
X242121Y427939D01*
X243510Y428514D01*
X245000Y428711D01*
X246490Y428514D01*
X247879Y427939D01*
X249072Y427024D01*
X249685Y426225D01*
X250315D01*
X250928Y427024D01*
X252047Y427883D01*
Y420000D01*
Y412117D01*
X250928Y412976D01*
X250315Y413775D01*
X249685D01*
X249072Y412976D01*
X247879Y412061D01*
X246490Y411485D01*
X245000Y411289D01*
X243510Y411485D01*
X242121Y412061D01*
X240929Y412976D01*
X240315Y413775D01*
X239685D01*
X239071Y412976D01*
X237879Y412061D01*
X236490Y411485D01*
X235000Y411289D01*
X233510Y411485D01*
X232121Y412061D01*
X230928Y412976D01*
X230315Y413775D01*
X229685D01*
X229071Y412976D01*
X227879Y412061D01*
X226490Y411485D01*
X225000Y411289D01*
X223510Y411485D01*
X222121Y412061D01*
X220929Y412976D01*
X220315Y413775D01*
X219685D01*
X219072Y412976D01*
X217879Y412061D01*
X216490Y411485D01*
X215000Y411289D01*
X213510Y411485D01*
X212121Y412061D01*
X210929Y412976D01*
X210315Y413775D01*
X209685D01*
X209071Y412976D01*
X207879Y412061D01*
X206490Y411485D01*
X205000Y411289D01*
X203510Y411485D01*
X202121Y412061D01*
X201258Y412723D01*
X200758Y412476D01*
Y402953D01*
Y400000D01*
Y397047D01*
Y356026D01*
X206228Y350556D01*
X206681Y350810D01*
X206488Y351614D01*
X218150D01*
Y341830D01*
X216896Y341929D01*
X215141Y342351D01*
X214887Y341897D01*
X218717Y338067D01*
X219632Y336874D01*
X220207Y335486D01*
X220404Y333995D01*
Y326849D01*
X226150Y321103D01*
X226659Y320892D01*
X227851Y319977D01*
X228766Y318784D01*
X229341Y317396D01*
X229537Y315905D01*
Y310000D01*
Y294291D01*
X230037Y294143D01*
X231137Y294987D01*
X232047Y295364D01*
Y290000D01*
Y284636D01*
X231137Y285014D01*
X229944Y285929D01*
X229029Y287121D01*
X228852Y287550D01*
X228356Y287615D01*
X227851Y286957D01*
X222451Y281557D01*
Y264802D01*
X227851Y259402D01*
X228766Y258209D01*
X229341Y256821D01*
X229537Y255330D01*
Y252953D01*
Y250000D01*
Y247047D01*
Y234636D01*
X230008Y234468D01*
X230244Y234755D01*
X231264Y235592D01*
X232047Y236011D01*
Y230000D01*
Y223989D01*
X231264Y224408D01*
X230244Y225244D01*
X229408Y226264D01*
X228809Y227384D01*
X228489Y227494D01*
X228291Y227530D01*
X227851Y226957D01*
X222451Y221557D01*
Y220000D01*
Y204802D01*
X227851Y199402D01*
X228766Y198209D01*
X229341Y196821D01*
X229537Y195330D01*
Y192953D01*
Y190000D01*
Y187047D01*
Y174636D01*
X230008Y174468D01*
X230244Y174756D01*
X231264Y175592D01*
X232047Y176011D01*
Y170000D01*
Y163989D01*
X231264Y164408D01*
X230244Y165244D01*
X229408Y166264D01*
X228809Y167384D01*
X228489Y167494D01*
X228291Y167530D01*
X227851Y166957D01*
X222451Y161557D01*
Y144802D01*
X227851Y139402D01*
X228766Y138209D01*
X229341Y136821D01*
X229537Y135330D01*
Y132953D01*
Y130000D01*
Y127047D01*
X229341Y125557D01*
X228766Y124168D01*
X227851Y122976D01*
X226659Y122061D01*
X225270Y121485D01*
X223780Y121289D01*
X222289Y121485D01*
X220901Y122061D01*
X219708Y122976D01*
X218793Y124168D01*
X218218Y125557D01*
X218022Y127047D01*
Y132945D01*
X215805Y135162D01*
X215381Y134879D01*
X215562Y134443D01*
X215758Y132953D01*
Y127047D01*
X215562Y125557D01*
X214986Y124168D01*
X214071Y122976D01*
X212879Y122061D01*
X211490Y121485D01*
X210758Y121389D01*
Y113426D01*
X211213Y112574D01*
X211596Y111312D01*
X211725Y110000D01*
X211596Y108688D01*
X211213Y107426D01*
X210592Y106264D01*
X209755Y105245D01*
X208736Y104408D01*
X207574Y103787D01*
X206312Y103404D01*
X205000Y103275D01*
X203688Y103404D01*
X202426Y103787D01*
X201264Y104408D01*
X200244Y105245D01*
X199408Y106264D01*
X198787Y107426D01*
X198404Y108688D01*
X198275Y110000D01*
X198404Y111312D01*
X198787Y112574D01*
X199242Y113426D01*
Y121579D01*
X198742Y121913D01*
X197711Y121485D01*
X196221Y121289D01*
X194730Y121485D01*
X193342Y122061D01*
X192149Y122976D01*
X191234Y124168D01*
X190659Y125557D01*
X190463Y127047D01*
Y132953D01*
X190581Y133850D01*
Y142848D01*
X190368Y143126D01*
X189793Y144514D01*
X189596Y146005D01*
Y157261D01*
X157615Y189242D01*
X145476D01*
X145230Y188742D01*
X145835Y187953D01*
X137953D01*
Y182047D01*
X145835D01*
X145230Y181258D01*
X145476Y180758D01*
X153995D01*
X155486Y180562D01*
X156874Y179987D01*
X158067Y179071D01*
X177733Y159405D01*
X178648Y158213D01*
X179223Y156824D01*
X179419Y155334D01*
Y148426D01*
X179875Y147574D01*
X180257Y146312D01*
X180387Y145000D01*
X180257Y143688D01*
X179875Y142426D01*
X179253Y141264D01*
X178417Y140244D01*
X177398Y139408D01*
X176235Y138787D01*
X174973Y138404D01*
X173661Y138275D01*
X172349Y138404D01*
X171088Y138787D01*
X169925Y139408D01*
X168906Y140244D01*
X168070Y141264D01*
X167448Y142426D01*
X167065Y143688D01*
X166936Y145000D01*
X167065Y146312D01*
X167448Y147574D01*
X167903Y148426D01*
Y152949D01*
X151610Y169242D01*
X145476D01*
X145230Y168742D01*
X145892Y167879D01*
X146467Y166490D01*
X146663Y165000D01*
X146467Y163510D01*
X145892Y162121D01*
X144977Y160928D01*
X144178Y160315D01*
Y159685D01*
X144977Y159072D01*
X145892Y157879D01*
X146467Y156490D01*
X146663Y155000D01*
X146467Y153510D01*
X145892Y152121D01*
X144977Y150928D01*
X144178Y150315D01*
Y149685D01*
X144977Y149072D01*
X145892Y147879D01*
X146467Y146490D01*
X146663Y145000D01*
X146467Y143510D01*
X145892Y142121D01*
X144977Y140928D01*
X143784Y140014D01*
X142396Y139438D01*
X140905Y139242D01*
X136084D01*
X136042Y139158D01*
X135970Y138742D01*
X137876Y137574D01*
X139667Y136045D01*
X141196Y134254D01*
X142426Y132246D01*
X143327Y130070D01*
X143732Y128386D01*
X129055D01*
Y122480D01*
X143732D01*
X143327Y120796D01*
X142426Y118620D01*
X141196Y116612D01*
X139667Y114822D01*
X138444Y113778D01*
X138629Y113278D01*
X143074D01*
X149242Y119446D01*
Y122953D01*
X149438Y124443D01*
X150013Y125832D01*
X150928Y127024D01*
X152121Y127939D01*
X153510Y128515D01*
X155000Y128711D01*
X156490Y128515D01*
X157879Y127939D01*
X159072Y127024D01*
X159685Y126225D01*
X160315D01*
X160928Y127024D01*
X162047Y127883D01*
Y120000D01*
Y112117D01*
X160928Y112976D01*
X160315Y113775D01*
X159685D01*
X159072Y112976D01*
X159013Y112931D01*
X149530Y103448D01*
X148338Y102533D01*
X146949Y101958D01*
X145459Y101762D01*
X121635D01*
X120145Y101958D01*
X118756Y102533D01*
X117564Y103448D01*
X107070Y113942D01*
X106155Y115134D01*
X105580Y116523D01*
X105384Y118013D01*
Y132853D01*
X105580Y134343D01*
X106155Y135732D01*
X107070Y136925D01*
X113569Y143423D01*
X113533Y143510D01*
X113337Y145000D01*
X113533Y146490D01*
X114108Y147879D01*
X114788Y148766D01*
X114567Y149299D01*
X113510Y149438D01*
X112121Y150013D01*
X110928Y150928D01*
X110013Y152121D01*
X109438Y153510D01*
X109324Y154379D01*
X106362Y157341D01*
X105447Y158533D01*
X104871Y159922D01*
X104675Y161412D01*
Y385433D01*
X104871Y386923D01*
X105447Y388312D01*
X106362Y389505D01*
X119242Y402385D01*
Y412615D01*
X118351Y413506D01*
X117426Y413787D01*
X116264Y414408D01*
X115244Y415244D01*
X114408Y416264D01*
X113787Y417426D01*
X113404Y418688D01*
X113275Y420000D01*
X113404Y421312D01*
X113787Y422574D01*
X114408Y423736D01*
X115244Y424755D01*
X116264Y425592D01*
X117426Y426213D01*
X118688Y426596D01*
X120000Y426725D01*
X121312Y426596D01*
X122574Y426213D01*
X123736Y425592D01*
X124756Y424755D01*
X125592Y423736D01*
X126213Y422574D01*
X126494Y421649D01*
X129071Y419071D01*
X129987Y417879D01*
X130562Y416490D01*
X130758Y415000D01*
Y407523D01*
X131258Y407277D01*
X132047Y407883D01*
Y400000D01*
Y392117D01*
X130929Y392976D01*
X130315Y393775D01*
X129685D01*
X129071Y392976D01*
X127879Y392061D01*
X126490Y391486D01*
X125000Y391289D01*
X124498Y391355D01*
X116191Y383048D01*
Y340517D01*
X116691Y340183D01*
X117604Y340562D01*
X119095Y340758D01*
X125000D01*
X126490Y340562D01*
X127879Y339986D01*
X129071Y339071D01*
X129685Y338272D01*
X130315D01*
X130929Y339071D01*
X132121Y339986D01*
X133510Y340562D01*
X135000Y340758D01*
X135000D01*
Y335000D01*
X137953D01*
Y332047D01*
X145835D01*
X144977Y330928D01*
X144178Y330315D01*
Y329685D01*
X144977Y329071D01*
X145892Y327879D01*
X146467Y326490D01*
X146663Y325000D01*
X146467Y323510D01*
X145892Y322121D01*
X144977Y320929D01*
X144178Y320315D01*
Y319685D01*
X144977Y319072D01*
X145892Y317879D01*
X146467Y316490D01*
X146663Y315000D01*
X146467Y313510D01*
X145892Y312121D01*
X144977Y310929D01*
X144178Y310315D01*
Y309776D01*
X144568Y309419D01*
X167588D01*
X169078Y309223D01*
X170467Y308648D01*
X171659Y307733D01*
X178872Y300520D01*
X179342Y300689D01*
X179404Y301312D01*
X179787Y302574D01*
X180242Y303426D01*
Y334615D01*
X151420Y363437D01*
X151312Y363404D01*
X150000Y363275D01*
X148688Y363404D01*
X147426Y363787D01*
X146264Y364408D01*
X145245Y365245D01*
X144408Y366264D01*
X143787Y367426D01*
X143404Y368688D01*
X143275Y370000D01*
X143404Y371312D01*
X143787Y372574D01*
X144408Y373736D01*
X145245Y374756D01*
X146264Y375592D01*
X147426Y376213D01*
X148688Y376596D01*
X150000Y376725D01*
X151312Y376596D01*
X152574Y376213D01*
X153565Y375684D01*
X154490Y375562D01*
X155879Y374987D01*
X157071Y374072D01*
X190071Y341072D01*
X190987Y339879D01*
X191562Y338490D01*
X191758Y337000D01*
Y320223D01*
X192258Y320061D01*
X193342Y320892D01*
X194730Y321467D01*
X196221Y321663D01*
X197711Y321467D01*
X198742Y321040D01*
X199242Y321374D01*
Y326574D01*
X198787Y327426D01*
X198404Y328688D01*
X198275Y330000D01*
X198404Y331312D01*
X198787Y332574D01*
X199408Y333736D01*
X200244Y334755D01*
X201264Y335592D01*
X202426Y336213D01*
X203310Y336481D01*
X203451Y337047D01*
X190928Y349570D01*
X190014Y350762D01*
X189438Y352151D01*
X189242Y353641D01*
Y392477D01*
X188742Y392723D01*
X187953Y392117D01*
Y400000D01*
Y407883D01*
X188742Y407277D01*
X189242Y407523D01*
Y412476D01*
X188742Y412723D01*
X187879Y412061D01*
X186490Y411485D01*
X185000Y411289D01*
X183510Y411485D01*
X182121Y412061D01*
X180929Y412976D01*
X180315Y413775D01*
X179685D01*
X179071Y412976D01*
X177879Y412061D01*
X176490Y411485D01*
X175000Y411289D01*
X173510Y411485D01*
X172121Y412061D01*
X170929Y412976D01*
X170315Y413775D01*
X169685D01*
X169071Y412976D01*
X167953Y412117D01*
Y420000D01*
Y427883D01*
X169071Y427024D01*
X169685Y426225D01*
X170315D01*
X170929Y427024D01*
X172121Y427939D01*
X173510Y428514D01*
X175000Y428711D01*
X176490Y428514D01*
X177879Y427939D01*
X179071Y427024D01*
X179685Y426225D01*
X180315D01*
X180929Y427024D01*
X182121Y427939D01*
X183510Y428514D01*
X185000Y428711D01*
X186490Y428514D01*
X187879Y427939D01*
X188742Y427277D01*
X189242Y427524D01*
Y428954D01*
X150928Y467267D01*
X150013Y468460D01*
X149438Y469848D01*
X149242Y471339D01*
Y472476D01*
X148742Y472723D01*
X147879Y472061D01*
X146490Y471486D01*
X145000Y471289D01*
X143510Y471486D01*
X142121Y472061D01*
X140928Y472976D01*
X140014Y474168D01*
X139438Y475557D01*
X139242Y477047D01*
Y482953D01*
X139438Y484443D01*
X140014Y485832D01*
X140928Y487024D01*
X142121Y487939D01*
X143510Y488515D01*
X145000Y488711D01*
D02*
G37*
G36*
X113989Y487047D02*
X117047D01*
Y483989D01*
X116264Y484408D01*
X115244Y485245D01*
X114408Y486264D01*
X113989Y487047D01*
D02*
G37*
G36*
X273989D02*
X277047D01*
Y483989D01*
X276264Y484408D01*
X275244Y485245D01*
X274408Y486264D01*
X273989Y487047D01*
D02*
G37*
G36*
X122953D02*
X126011D01*
X125592Y486264D01*
X124756Y485245D01*
X123736Y484408D01*
X122953Y483989D01*
Y487047D01*
D02*
G37*
G36*
X282953D02*
X286011D01*
X285592Y486264D01*
X284755Y485245D01*
X283736Y484408D01*
X282953Y483989D01*
Y487047D01*
D02*
G37*
G36*
X145000Y428711D02*
X146490Y428514D01*
X147879Y427939D01*
X149072Y427024D01*
X149685Y426225D01*
X150315D01*
X150928Y427024D01*
X152121Y427939D01*
X153510Y428514D01*
X155000Y428711D01*
X156490Y428514D01*
X157879Y427939D01*
X159072Y427024D01*
X159685Y426225D01*
X160315D01*
X160928Y427024D01*
X162047Y427883D01*
Y420000D01*
Y412117D01*
X160928Y412976D01*
X160315Y413775D01*
X159685D01*
X159072Y412976D01*
X157879Y412061D01*
X156490Y411485D01*
X155000Y411289D01*
X153510Y411485D01*
X152121Y412061D01*
X150928Y412976D01*
X150315Y413775D01*
X149685D01*
X149072Y412976D01*
X147879Y412061D01*
X146490Y411485D01*
X145000Y411289D01*
X143510Y411485D01*
X142121Y412061D01*
X140928Y412976D01*
X140014Y414168D01*
X139438Y415557D01*
X139242Y417047D01*
Y422953D01*
X139438Y424443D01*
X140014Y425832D01*
X140928Y427024D01*
X142121Y427939D01*
X143510Y428514D01*
X145000Y428711D01*
D02*
G37*
G36*
X257953Y427883D02*
X259071Y427024D01*
X259986Y425832D01*
X260562Y424443D01*
X260758Y422953D01*
Y422953D01*
X257953D01*
Y427883D01*
D02*
G37*
G36*
X280000Y426725D02*
X281312Y426596D01*
X282574Y426213D01*
X283736Y425592D01*
X284755Y424755D01*
X285592Y423736D01*
X286213Y422574D01*
X286596Y421312D01*
X286725Y420000D01*
X286596Y418688D01*
X286213Y417426D01*
X285592Y416264D01*
X284755Y415244D01*
X283736Y414408D01*
X282574Y413787D01*
X281312Y413404D01*
X280000Y413275D01*
X278688Y413404D01*
X277426Y413787D01*
X276264Y414408D01*
X275244Y415244D01*
X274408Y416264D01*
X273787Y417426D01*
X273404Y418688D01*
X273275Y420000D01*
X273404Y421312D01*
X273787Y422574D01*
X274408Y423736D01*
X275244Y424755D01*
X276264Y425592D01*
X277426Y426213D01*
X278688Y426596D01*
X280000Y426725D01*
D02*
G37*
G36*
X257953Y417047D02*
X260758D01*
Y417047D01*
X260562Y415557D01*
X259986Y414168D01*
X259071Y412976D01*
X257953Y412117D01*
Y417047D01*
D02*
G37*
G36*
X182047Y407883D02*
Y402953D01*
X179242D01*
Y402953D01*
X179438Y404443D01*
X180014Y405832D01*
X180929Y407024D01*
X182047Y407883D01*
D02*
G37*
G36*
X272047D02*
Y402953D01*
X269242D01*
Y402953D01*
X269438Y404443D01*
X270013Y405832D01*
X270929Y407024D01*
X272047Y407883D01*
D02*
G37*
G36*
X137953D02*
X139072Y407024D01*
X139987Y405832D01*
X140562Y404443D01*
X140758Y402953D01*
Y402953D01*
X137953D01*
Y407883D01*
D02*
G37*
G36*
X179242Y397047D02*
X182047D01*
Y392117D01*
X180929Y392976D01*
X180014Y394168D01*
X179438Y395557D01*
X179242Y397047D01*
Y397047D01*
D02*
G37*
G36*
X137953D02*
X140758D01*
Y397047D01*
X140562Y395557D01*
X139987Y394168D01*
X139072Y392976D01*
X137953Y392117D01*
Y397047D01*
D02*
G37*
G36*
X262047Y387607D02*
Y382677D01*
X259242D01*
Y382677D01*
X259438Y384167D01*
X260014Y385556D01*
X260929Y386749D01*
X262047Y387607D01*
D02*
G37*
G36*
X259242Y376772D02*
X262047D01*
Y371842D01*
X260929Y372700D01*
X260014Y373893D01*
X259438Y375281D01*
X259242Y376772D01*
D02*
G37*
G36*
X285000Y408711D02*
X286490Y408514D01*
X287879Y407939D01*
X289071Y407024D01*
X289986Y405832D01*
X290562Y404443D01*
X290758Y402953D01*
Y400000D01*
Y397047D01*
Y394798D01*
X290562Y393308D01*
X289986Y391919D01*
X289071Y390727D01*
X280758Y382413D01*
Y382109D01*
X284071Y378796D01*
X284071Y378796D01*
X293072Y369796D01*
X293987Y368603D01*
X294562Y367215D01*
X294758Y365724D01*
Y339000D01*
X294562Y337510D01*
X293987Y336121D01*
X293072Y334928D01*
X285758Y327615D01*
Y320758D01*
X288000D01*
X289490Y320562D01*
X290879Y319987D01*
X292072Y319072D01*
X295686Y315457D01*
X296601Y314265D01*
X297176Y312876D01*
X297372Y311386D01*
Y281614D01*
X297176Y280124D01*
X296601Y278735D01*
X295686Y277543D01*
X285758Y267615D01*
Y260758D01*
X289000D01*
X290490Y260562D01*
X291879Y259986D01*
X293072Y259071D01*
X297072Y255071D01*
X297987Y253879D01*
X298562Y252490D01*
X298758Y251000D01*
Y223000D01*
X298562Y221510D01*
X297987Y220121D01*
X297072Y218929D01*
X285758Y207615D01*
Y199537D01*
X289220D01*
X290711Y199341D01*
X292099Y198766D01*
X293292Y197851D01*
X297072Y194071D01*
X297987Y192879D01*
X298562Y191490D01*
X298758Y190000D01*
Y163000D01*
X298562Y161510D01*
X297987Y160121D01*
X297072Y158929D01*
X285758Y147615D01*
Y140017D01*
X285832Y139987D01*
X287024Y139072D01*
X287939Y137879D01*
X288514Y136490D01*
X288711Y135000D01*
X288514Y133510D01*
X287939Y132121D01*
X287024Y130929D01*
X286225Y130315D01*
Y129685D01*
X287024Y129071D01*
X287883Y127953D01*
X280000D01*
X272117D01*
X272976Y129071D01*
X273775Y129685D01*
Y130315D01*
X272976Y130929D01*
X272061Y132121D01*
X271485Y133510D01*
X271289Y135000D01*
X271485Y136490D01*
X272061Y137879D01*
X272976Y139072D01*
X274168Y139987D01*
X274242Y140017D01*
Y145392D01*
X273742Y145599D01*
X269537Y141394D01*
Y132953D01*
Y130000D01*
Y127047D01*
X269341Y125557D01*
X268766Y124168D01*
X267851Y122976D01*
X266658Y122061D01*
X265270Y121485D01*
X263779Y121289D01*
X262289Y121485D01*
X260901Y122061D01*
X259708Y122976D01*
X258793Y124168D01*
X258218Y125557D01*
X258022Y127047D01*
Y132953D01*
Y143780D01*
X258033Y143866D01*
X257703Y144242D01*
X238426D01*
X237574Y143787D01*
X236312Y143404D01*
X235000Y143275D01*
X233688Y143404D01*
X232426Y143787D01*
X231264Y144408D01*
X230244Y145245D01*
X229408Y146264D01*
X228787Y147426D01*
X228404Y148688D01*
X228275Y150000D01*
X228404Y151312D01*
X228787Y152574D01*
X229408Y153736D01*
X230244Y154755D01*
X231264Y155592D01*
X232426Y156213D01*
X233688Y156596D01*
X235000Y156725D01*
X236312Y156596D01*
X237574Y156213D01*
X238426Y155758D01*
X270000D01*
X271490Y155562D01*
X272879Y154987D01*
X273791Y154286D01*
X274291Y154533D01*
Y155709D01*
X277566D01*
X287242Y165385D01*
Y179245D01*
X286742Y179492D01*
X285832Y178793D01*
X284443Y178218D01*
X282953Y178022D01*
D01*
Y183780D01*
X280000D01*
Y186732D01*
X272117D01*
X272976Y187851D01*
X273775Y188464D01*
Y189095D01*
X272976Y189708D01*
X272061Y190901D01*
X271485Y192289D01*
X271289Y193780D01*
X271485Y195270D01*
X272061Y196659D01*
X272976Y197851D01*
X274168Y198766D01*
X274242Y198797D01*
Y205392D01*
X273742Y205599D01*
X269537Y201395D01*
Y192953D01*
Y190000D01*
Y187047D01*
X269341Y185557D01*
X268766Y184168D01*
X267851Y182976D01*
X266658Y182061D01*
X265270Y181485D01*
X263779Y181289D01*
X262289Y181485D01*
X260901Y182061D01*
X259708Y182976D01*
X258793Y184168D01*
X258218Y185557D01*
X258022Y187047D01*
Y192953D01*
Y203780D01*
X258033Y203866D01*
X257703Y204242D01*
X238426D01*
X237574Y203787D01*
X236312Y203404D01*
X235000Y203275D01*
X233688Y203404D01*
X232426Y203787D01*
X231264Y204408D01*
X230244Y205244D01*
X229408Y206264D01*
X228787Y207426D01*
X228404Y208688D01*
X228275Y210000D01*
X228404Y211312D01*
X228787Y212574D01*
X229408Y213736D01*
X230244Y214756D01*
X231264Y215592D01*
X232426Y216213D01*
X233688Y216596D01*
X235000Y216725D01*
X236312Y216596D01*
X237574Y216213D01*
X238426Y215758D01*
X270000D01*
X271490Y215562D01*
X272879Y214986D01*
X273791Y214286D01*
X274291Y214533D01*
Y215709D01*
X277566D01*
X287242Y225385D01*
Y240465D01*
X286742Y240712D01*
X285832Y240014D01*
X284443Y239438D01*
X282953Y239242D01*
X282953D01*
Y245000D01*
X280000D01*
Y247953D01*
X272117D01*
X272976Y249072D01*
X273775Y249685D01*
Y250315D01*
X272976Y250928D01*
X272061Y252121D01*
X271485Y253510D01*
X271289Y255000D01*
X271485Y256490D01*
X272061Y257879D01*
X272976Y259071D01*
X274168Y259986D01*
X274242Y260017D01*
Y265392D01*
X273742Y265599D01*
X269537Y261395D01*
Y252953D01*
Y250000D01*
Y247047D01*
X269341Y245557D01*
X268766Y244168D01*
X267851Y242976D01*
X266658Y242061D01*
X265270Y241486D01*
X263779Y241289D01*
X262289Y241486D01*
X260901Y242061D01*
X259708Y242976D01*
X258793Y244168D01*
X258218Y245557D01*
X258022Y247047D01*
Y252953D01*
Y263779D01*
X258033Y263866D01*
X257703Y264242D01*
X238426D01*
X237574Y263787D01*
X236312Y263404D01*
X235000Y263275D01*
X233688Y263404D01*
X232426Y263787D01*
X231264Y264408D01*
X230244Y265245D01*
X229408Y266264D01*
X228787Y267426D01*
X228404Y268688D01*
X228275Y270000D01*
X228404Y271312D01*
X228787Y272574D01*
X229408Y273736D01*
X230244Y274756D01*
X231264Y275592D01*
X232426Y276213D01*
X233688Y276596D01*
X235000Y276725D01*
X236312Y276596D01*
X237574Y276213D01*
X238426Y275758D01*
X270000D01*
X271490Y275562D01*
X272879Y274987D01*
X273791Y274286D01*
X274291Y274533D01*
Y275709D01*
X277566D01*
X285856Y283999D01*
Y299482D01*
X285356Y299817D01*
X284443Y299438D01*
X282953Y299242D01*
X282953D01*
Y305000D01*
X280000D01*
Y307953D01*
X272117D01*
X272976Y309071D01*
X273775Y309685D01*
Y310315D01*
X272976Y310929D01*
X272061Y312121D01*
X271485Y313510D01*
X271289Y315000D01*
X271485Y316490D01*
X272061Y317879D01*
X272976Y319072D01*
X274168Y319987D01*
X274242Y320017D01*
Y325392D01*
X273742Y325599D01*
X269537Y321394D01*
Y312953D01*
Y310000D01*
Y307047D01*
X269341Y305557D01*
X268766Y304168D01*
X267851Y302976D01*
X266658Y302061D01*
X265270Y301485D01*
X263779Y301289D01*
X262289Y301485D01*
X260901Y302061D01*
X259708Y302976D01*
X258793Y304168D01*
X258218Y305557D01*
X258022Y307047D01*
Y312953D01*
Y323780D01*
X258033Y323866D01*
X257703Y324242D01*
X238426D01*
X237574Y323787D01*
X236312Y323404D01*
X235000Y323275D01*
X233688Y323404D01*
X232426Y323787D01*
X231264Y324408D01*
X230244Y325244D01*
X229408Y326264D01*
X228787Y327426D01*
X228404Y328688D01*
X228275Y330000D01*
X228404Y331312D01*
X228787Y332574D01*
X229408Y333736D01*
X230244Y334755D01*
X231264Y335592D01*
X232426Y336213D01*
X233688Y336596D01*
X235000Y336725D01*
X236312Y336596D01*
X237574Y336213D01*
X238426Y335758D01*
X270000D01*
X271490Y335562D01*
X272879Y334986D01*
X273791Y334286D01*
X274291Y334533D01*
Y335709D01*
X277566D01*
X283242Y341385D01*
Y344723D01*
X282953Y344858D01*
Y350000D01*
X280000D01*
Y352953D01*
X275070D01*
X275714Y353791D01*
X275467Y354291D01*
X274291D01*
Y359626D01*
X274242Y360000D01*
Y371113D01*
X273510Y371210D01*
X272121Y371785D01*
X270929Y372700D01*
X270315Y373500D01*
X269685D01*
X269072Y372700D01*
X267953Y371842D01*
Y379724D01*
Y387607D01*
X269072Y386749D01*
X269082Y386735D01*
X269654Y386810D01*
X270013Y387677D01*
X270929Y388870D01*
X273152Y391093D01*
X273034Y391683D01*
X272121Y392061D01*
X270929Y392976D01*
X270013Y394168D01*
X269438Y395557D01*
X269242Y397047D01*
Y397047D01*
X275000D01*
Y400000D01*
X277953D01*
Y407883D01*
X279071Y407024D01*
X279685Y406225D01*
X280315D01*
X280928Y407024D01*
X282121Y407939D01*
X283510Y408514D01*
X285000Y408711D01*
D02*
G37*
G36*
X218150Y367303D02*
Y357520D01*
X206488D01*
X206729Y358521D01*
X207497Y360376D01*
X208546Y362088D01*
X209850Y363615D01*
X211377Y364919D01*
X213089Y365968D01*
X214944Y366736D01*
X216896Y367205D01*
X218150Y367303D01*
D02*
G37*
G36*
X224055D02*
X225309Y367205D01*
X227261Y366736D01*
X229116Y365968D01*
X230828Y364919D01*
X232355Y363615D01*
X233659Y362088D01*
X234708Y360376D01*
X235476Y358521D01*
X235717Y357520D01*
X224055D01*
Y367303D01*
D02*
G37*
G36*
X275070Y347047D02*
X277047D01*
Y345070D01*
X275928Y345929D01*
X275070Y347047D01*
D02*
G37*
G36*
X224055Y351614D02*
X235717D01*
X235476Y350613D01*
X234708Y348758D01*
X233659Y347046D01*
X232355Y345519D01*
X230828Y344215D01*
X229116Y343166D01*
X227261Y342398D01*
X225309Y341929D01*
X224055Y341830D01*
Y351614D01*
D02*
G37*
G36*
X140905Y340758D02*
X140905D01*
X142396Y340562D01*
X143784Y339986D01*
X144977Y339071D01*
X145835Y337953D01*
X140905D01*
Y340758D01*
D02*
G37*
G36*
X233268Y320835D02*
Y315905D01*
X230463D01*
Y315905D01*
X230659Y317396D01*
X231234Y318784D01*
X232149Y319977D01*
X233268Y320835D01*
D02*
G37*
G36*
X239173D02*
X240292Y319977D01*
X241207Y318784D01*
X241782Y317396D01*
X241978Y315905D01*
Y315905D01*
X239173D01*
Y320835D01*
D02*
G37*
G36*
X230463Y310000D02*
X233268D01*
Y305070D01*
X232149Y305928D01*
X231234Y307121D01*
X230659Y308510D01*
X230463Y310000D01*
Y310000D01*
D02*
G37*
G36*
X239173D02*
X241978D01*
Y310000D01*
X241782Y308510D01*
X241207Y307121D01*
X240292Y305928D01*
X239173Y305070D01*
Y310000D01*
D02*
G37*
G36*
X250000Y318711D02*
X251490Y318514D01*
X252879Y317939D01*
X254071Y317024D01*
X254987Y315832D01*
X255562Y314443D01*
X255758Y312953D01*
Y307047D01*
X255562Y305557D01*
X254987Y304168D01*
X254071Y302976D01*
X252879Y302061D01*
X251490Y301485D01*
X250000Y301289D01*
X248510Y301485D01*
X247121Y302061D01*
X245929Y302976D01*
X245013Y304168D01*
X244438Y305557D01*
X244242Y307047D01*
Y312953D01*
X244438Y314443D01*
X245013Y315832D01*
X245929Y317024D01*
X247121Y317939D01*
X248510Y318514D01*
X250000Y318711D01*
D02*
G37*
G36*
X272117Y302047D02*
X277047D01*
Y299242D01*
X277047D01*
X275557Y299438D01*
X274168Y300013D01*
X272976Y300928D01*
X272117Y302047D01*
D02*
G37*
G36*
X237953Y295364D02*
X238863Y294987D01*
X240056Y294072D01*
X240914Y292953D01*
X237953D01*
Y295364D01*
D02*
G37*
G36*
Y287047D02*
X240914D01*
X240056Y285929D01*
X238863Y285014D01*
X237953Y284636D01*
Y287047D01*
D02*
G37*
G36*
X233268Y257883D02*
Y252953D01*
X230463D01*
Y252953D01*
X230659Y254443D01*
X231234Y255832D01*
X232149Y257024D01*
X233268Y257883D01*
D02*
G37*
G36*
X239173D02*
X240292Y257024D01*
X241207Y255832D01*
X241782Y254443D01*
X241978Y252953D01*
Y252953D01*
X239173D01*
Y257883D01*
D02*
G37*
G36*
X230463Y247047D02*
X233268D01*
Y242117D01*
X232149Y242976D01*
X231234Y244168D01*
X230659Y245557D01*
X230463Y247047D01*
Y247047D01*
D02*
G37*
G36*
X239173D02*
X241978D01*
Y247047D01*
X241782Y245557D01*
X241207Y244168D01*
X240292Y242976D01*
X239173Y242117D01*
Y247047D01*
D02*
G37*
G36*
X250000Y258711D02*
X251490Y258514D01*
X252879Y257939D01*
X254071Y257024D01*
X254987Y255832D01*
X255562Y254443D01*
X255758Y252953D01*
Y247047D01*
X255562Y245557D01*
X254987Y244168D01*
X254071Y242976D01*
X252879Y242061D01*
X251490Y241486D01*
X250000Y241289D01*
X248510Y241486D01*
X247121Y242061D01*
X245929Y242976D01*
X245013Y244168D01*
X244438Y245557D01*
X244242Y247047D01*
Y252953D01*
X244438Y254443D01*
X245013Y255832D01*
X245929Y257024D01*
X247121Y257939D01*
X248510Y258514D01*
X250000Y258711D01*
D02*
G37*
G36*
X272117Y242047D02*
X277047D01*
Y239242D01*
X277047D01*
X275557Y239438D01*
X274168Y240014D01*
X272976Y240929D01*
X272117Y242047D01*
D02*
G37*
G36*
X237953Y236011D02*
X238736Y235592D01*
X239756Y234755D01*
X240592Y233736D01*
X241011Y232953D01*
X237953D01*
Y236011D01*
D02*
G37*
G36*
Y227047D02*
X241011D01*
X240592Y226264D01*
X239756Y225244D01*
X238736Y224408D01*
X237953Y223989D01*
Y227047D01*
D02*
G37*
G36*
X233268Y197883D02*
Y192953D01*
X230463D01*
Y192953D01*
X230659Y194443D01*
X231234Y195832D01*
X232149Y197024D01*
X233268Y197883D01*
D02*
G37*
G36*
X239173D02*
X240292Y197024D01*
X241207Y195832D01*
X241782Y194443D01*
X241978Y192953D01*
Y192953D01*
X239173D01*
Y197883D01*
D02*
G37*
G36*
X230463Y187047D02*
X233268D01*
Y182117D01*
X232149Y182976D01*
X231234Y184168D01*
X230659Y185557D01*
X230463Y187047D01*
Y187047D01*
D02*
G37*
G36*
X239173D02*
X241978D01*
Y187047D01*
X241782Y185557D01*
X241207Y184168D01*
X240292Y182976D01*
X239173Y182117D01*
Y187047D01*
D02*
G37*
G36*
X250000Y198711D02*
X251490Y198514D01*
X252879Y197939D01*
X254071Y197024D01*
X254987Y195832D01*
X255562Y194443D01*
X255758Y192953D01*
Y187047D01*
X255562Y185557D01*
X254987Y184168D01*
X254071Y182976D01*
X252879Y182061D01*
X251490Y181485D01*
X250000Y181289D01*
X248510Y181485D01*
X247121Y182061D01*
X245929Y182976D01*
X245013Y184168D01*
X244438Y185557D01*
X244242Y187047D01*
Y192953D01*
X244438Y194443D01*
X245013Y195832D01*
X245929Y197024D01*
X247121Y197939D01*
X248510Y198514D01*
X250000Y198711D01*
D02*
G37*
G36*
X272117Y180827D02*
X277047D01*
Y178022D01*
X277047D01*
X275557Y178218D01*
X274168Y178793D01*
X272976Y179708D01*
X272117Y180827D01*
D02*
G37*
G36*
X237953Y176011D02*
X238736Y175592D01*
X239756Y174756D01*
X240592Y173736D01*
X241011Y172953D01*
X237953D01*
Y176011D01*
D02*
G37*
G36*
Y167047D02*
X241011D01*
X240592Y166264D01*
X239756Y165244D01*
X238736Y164408D01*
X237953Y163989D01*
Y167047D01*
D02*
G37*
G36*
X233268Y137883D02*
Y132953D01*
X230463D01*
Y132953D01*
X230659Y134443D01*
X231234Y135832D01*
X232149Y137024D01*
X233268Y137883D01*
D02*
G37*
G36*
X239173D02*
X240292Y137024D01*
X241207Y135832D01*
X241782Y134443D01*
X241978Y132953D01*
Y132953D01*
X239173D01*
Y137883D01*
D02*
G37*
G36*
X167953Y127883D02*
X169071Y127024D01*
X169986Y125832D01*
X170562Y124443D01*
X170758Y122953D01*
Y122953D01*
X167953D01*
Y127883D01*
D02*
G37*
G36*
X230463Y127047D02*
X233268D01*
Y122117D01*
X232149Y122976D01*
X231234Y124168D01*
X230659Y125557D01*
X230463Y127047D01*
Y127047D01*
D02*
G37*
G36*
X239173D02*
X241978D01*
Y127047D01*
X241782Y125557D01*
X241207Y124168D01*
X240292Y122976D01*
X239173Y122117D01*
Y127047D01*
D02*
G37*
G36*
X250000Y138711D02*
X251490Y138514D01*
X252879Y137939D01*
X254071Y137024D01*
X254987Y135832D01*
X255562Y134443D01*
X255758Y132953D01*
Y127047D01*
X255562Y125557D01*
X254987Y124168D01*
X254071Y122976D01*
X252879Y122061D01*
X251490Y121485D01*
X250000Y121289D01*
X248510Y121485D01*
X247121Y122061D01*
X245929Y122976D01*
X245013Y124168D01*
X244438Y125557D01*
X244242Y127047D01*
Y132953D01*
X244438Y134443D01*
X245013Y135832D01*
X245929Y137024D01*
X247121Y137939D01*
X248510Y138514D01*
X250000Y138711D01*
D02*
G37*
G36*
X272117Y122047D02*
X277047D01*
Y119242D01*
X277047D01*
X275557Y119438D01*
X274168Y120013D01*
X272976Y120929D01*
X272117Y122047D01*
D02*
G37*
G36*
X282953D02*
X287883D01*
X287024Y120929D01*
X285832Y120013D01*
X284443Y119438D01*
X282953Y119242D01*
X282953D01*
Y122047D01*
D02*
G37*
G36*
X232047Y116011D02*
Y112953D01*
X228989D01*
X229408Y113736D01*
X230244Y114755D01*
X231264Y115592D01*
X232047Y116011D01*
D02*
G37*
G36*
X237953D02*
X238736Y115592D01*
X239756Y114755D01*
X240592Y113736D01*
X241011Y112953D01*
X237953D01*
Y116011D01*
D02*
G37*
G36*
X167953Y117047D02*
X170758D01*
Y117047D01*
X170562Y115557D01*
X169986Y114168D01*
X169071Y112976D01*
X167953Y112117D01*
Y117047D01*
D02*
G37*
G36*
X228989Y107047D02*
X232047D01*
Y103989D01*
X231264Y104408D01*
X230244Y105245D01*
X229408Y106264D01*
X228989Y107047D01*
D02*
G37*
G36*
X237953D02*
X241011D01*
X240592Y106264D01*
X239756Y105245D01*
X238736Y104408D01*
X237953Y103989D01*
Y107047D01*
D02*
G37*
%LPD*%
G36*
X145230Y278742D02*
X145892Y277879D01*
X146467Y276490D01*
X146663Y275000D01*
X146467Y273510D01*
X145892Y272121D01*
X144977Y270929D01*
X144178Y270315D01*
Y269685D01*
X144977Y269072D01*
X145835Y267953D01*
X137953D01*
Y262047D01*
X145835D01*
X144977Y260929D01*
X144178Y260315D01*
Y259685D01*
X144977Y259071D01*
X145892Y257879D01*
X146467Y256490D01*
X146663Y255000D01*
X146467Y253510D01*
X145892Y252121D01*
X144977Y250928D01*
X144178Y250315D01*
Y249685D01*
X144977Y249072D01*
X145892Y247879D01*
X146467Y246490D01*
X146663Y245000D01*
X146467Y243510D01*
X145892Y242121D01*
X144977Y240929D01*
X144178Y240315D01*
Y239685D01*
X144977Y239071D01*
X145892Y237879D01*
X146467Y236490D01*
X146663Y235000D01*
X146467Y233510D01*
X145892Y232121D01*
X145230Y231258D01*
X145476Y230758D01*
X152477D01*
X152723Y231258D01*
X152117Y232047D01*
X160000D01*
X167883D01*
X167277Y231258D01*
X167524Y230758D01*
X196359D01*
X197828Y230564D01*
X197975Y230562D01*
X198352Y230788D01*
X198404Y231312D01*
X198787Y232574D01*
X199242Y233426D01*
Y241579D01*
X198742Y241913D01*
X197711Y241486D01*
X196221Y241289D01*
X194730Y241486D01*
X193342Y242061D01*
X192149Y242976D01*
X191234Y244168D01*
X190659Y245557D01*
X190463Y247047D01*
Y247615D01*
X158835Y279242D01*
X145476D01*
X145230Y278742D01*
D02*
G37*
%LPC*%
G36*
X157047Y240758D02*
X157047D01*
Y237953D01*
X152117D01*
X152976Y239071D01*
X154168Y239986D01*
X155557Y240562D01*
X157047Y240758D01*
D02*
G37*
G36*
X162953D02*
X162953D01*
X164443Y240562D01*
X165832Y239986D01*
X167024Y239071D01*
X167883Y237953D01*
X162953D01*
Y240758D01*
D02*
G37*
%LPD*%
D24*
X115000Y155000D02*
Y156845D01*
X145459Y107520D02*
X121635D01*
X155000Y117061D02*
X145459Y107520D01*
X155000Y117061D02*
Y120000D01*
X173661Y145000D02*
Y155334D01*
X196221Y295320D02*
Y310000D01*
Y295320D02*
X195354Y294454D01*
X153000Y370000D02*
X150000D01*
X186000Y337000D02*
X153000Y370000D01*
X186000Y300000D02*
Y337000D01*
X210000Y310000D02*
X205000Y305000D01*
Y290000D02*
Y305000D01*
X161221Y285000D02*
X135000D01*
X196221Y250000D02*
X161221Y285000D01*
X136339Y303661D02*
X135000Y305000D01*
X167588Y303661D02*
X136339D01*
X182249Y289000D02*
X167588Y303661D01*
X185000Y289000D02*
X182249D01*
X164000Y295000D02*
X135000D01*
X195354Y278354D02*
Y294454D01*
Y278354D02*
X192000Y275000D01*
X184000D01*
X164000Y295000D01*
X180000Y190000D02*
X165000Y205000D01*
X135000D01*
X195354Y146005D02*
Y159646D01*
X160000Y195000D01*
X135000D01*
X153995Y175000D02*
X135000D01*
X173661Y155334D02*
X153995Y175000D01*
X196339Y130118D02*
Y145020D01*
Y130118D02*
X196221Y130000D01*
X196339Y145020D02*
X195354Y146005D01*
X285000Y394798D02*
Y400000D01*
Y394798D02*
X275000Y384798D01*
Y379724D02*
Y384798D01*
X280000Y374724D02*
X275000Y379724D01*
X289000Y365724D02*
X280000Y374724D01*
X289000Y339000D02*
Y365724D01*
Y339000D02*
X280000Y330000D01*
Y360000D02*
Y374724D01*
X195000Y400000D02*
Y420000D01*
Y353641D02*
Y400000D01*
Y431339D02*
X155000Y471339D01*
Y480000D01*
X125000Y145000D02*
Y155000D01*
X201005Y220354D02*
X196359Y225000D01*
X160000D02*
X135000D01*
X216693Y220000D02*
X216339Y220354D01*
X196359Y225000D02*
X160000D01*
X216693Y202417D02*
Y220000D01*
Y223942D01*
X216339Y220354D02*
X201005D01*
X125000Y400000D02*
Y415000D01*
Y400000D02*
X110433Y385433D01*
X115000Y156845D02*
X110433Y161412D01*
Y385433D01*
X125000Y415000D02*
X120000Y420000D01*
X293000Y190000D02*
X289220Y193780D01*
X293000Y163000D02*
Y190000D01*
Y163000D02*
X280000Y150000D01*
X195000Y420000D02*
Y431339D01*
X196221Y190000D02*
X171221Y215000D01*
X135000D01*
X293000Y251000D02*
X289000Y255000D01*
X289220Y193780D02*
X280000D01*
X291614Y311386D02*
X288000Y315000D01*
X291614Y281614D02*
X280000Y270000D01*
X288000Y315000D02*
X280000D01*
X291614Y281614D02*
Y311386D01*
X289000Y255000D02*
X280000D01*
X293000Y223000D02*
Y251000D01*
Y223000D02*
X280000Y210000D01*
X111142Y118013D02*
Y132853D01*
X125000Y145000D02*
X123346Y143347D01*
X121635D01*
X111142Y132853D01*
X223780Y231029D02*
X216693Y223942D01*
Y262417D02*
Y283942D01*
X223780Y231029D02*
Y250000D01*
X216693Y142417D02*
Y163942D01*
X155000Y480000D02*
X145000D01*
X223780Y255330D02*
X216693Y262417D01*
X223780Y171029D02*
X216693Y163942D01*
X223780Y171029D02*
Y190000D01*
Y250000D02*
Y255330D01*
X121635Y107520D02*
X111142Y118013D01*
X280000Y255000D02*
Y270000D01*
Y315000D02*
Y330000D01*
Y193780D02*
Y210000D01*
Y135000D02*
Y150000D01*
X270000D02*
X235000D01*
X205000Y135000D02*
Y150000D01*
Y195000D02*
Y210000D01*
Y170000D02*
Y185000D01*
X210000Y190000D02*
X205000Y195000D01*
Y255000D02*
Y270000D01*
Y315000D02*
Y330000D01*
Y110000D02*
Y125000D01*
X210000Y190000D02*
X205000Y185000D01*
X210000Y250000D02*
X205000Y245000D01*
X210000Y130000D02*
X205000Y125000D01*
X210000Y130000D02*
X205000Y135000D01*
Y230000D02*
Y245000D01*
X210000Y310000D02*
X205000Y315000D01*
X210000Y250000D02*
X205000Y255000D01*
X270000Y210000D02*
X235000D01*
X270000Y270000D02*
X235000D01*
X263779Y310000D02*
Y323780D01*
X270000Y330000D02*
X235000D01*
X270000D02*
X263779Y323780D01*
X270000Y150000D02*
X263779Y143780D01*
Y130000D02*
Y143780D01*
Y190000D02*
Y203780D01*
X270000Y210000D02*
X263779Y203780D01*
Y250000D02*
Y263779D01*
X270000Y270000D02*
X263779Y263779D01*
X125000Y155000D02*
X115000D01*
X223780Y310000D02*
Y315330D01*
X214646Y324464D02*
Y333995D01*
X195000Y353641D01*
X223780Y315330D02*
X214646Y324464D01*
X223780Y291029D02*
X216693Y283942D01*
X223780Y190000D02*
Y195330D01*
Y291029D02*
Y310000D01*
Y195330D02*
X216693Y202417D01*
X223780Y135330D02*
X216693Y142417D01*
X223780Y130000D02*
Y135330D01*
D25*
X135000Y400000D02*
D03*
X125000D02*
D03*
X185000D02*
D03*
X195000D02*
D03*
X275000D02*
D03*
X285000D02*
D03*
X265000Y379724D02*
D03*
X275000D02*
D03*
X263779Y310000D02*
D03*
X250000D02*
D03*
X236221Y312953D02*
D03*
X223780D02*
D03*
X210000D02*
D03*
X196221D02*
D03*
X263779Y250000D02*
D03*
X250000D02*
D03*
X236221D02*
D03*
X263779Y190000D02*
D03*
X250000D02*
D03*
X236221D02*
D03*
X263779Y130000D02*
D03*
X250000D02*
D03*
X236221D02*
D03*
X223780Y250000D02*
D03*
X210000D02*
D03*
X196221D02*
D03*
X223780Y190000D02*
D03*
X210000D02*
D03*
X196221D02*
D03*
X223780Y130000D02*
D03*
X210000D02*
D03*
X196221D02*
D03*
X165000Y120000D02*
D03*
X155000D02*
D03*
X145000Y420000D02*
D03*
X155000D02*
D03*
X165000D02*
D03*
X175000D02*
D03*
X185000D02*
D03*
X195000D02*
D03*
X205000D02*
D03*
X215000D02*
D03*
X225000D02*
D03*
X235000D02*
D03*
X245000D02*
D03*
X255000D02*
D03*
Y480000D02*
D03*
X245000D02*
D03*
X235000D02*
D03*
X225000D02*
D03*
X215000D02*
D03*
X205000D02*
D03*
X195000D02*
D03*
X185000D02*
D03*
X175000D02*
D03*
X165000D02*
D03*
X155000D02*
D03*
X145000D02*
D03*
D26*
X280000Y350000D02*
D03*
X270000Y330000D02*
D03*
Y270000D02*
D03*
Y210000D02*
D03*
Y150000D02*
D03*
D27*
X280000Y360000D02*
D03*
D28*
Y330000D02*
D03*
Y270000D02*
D03*
Y210000D02*
D03*
Y150000D02*
D03*
D29*
Y305000D02*
D03*
Y315000D02*
D03*
Y245000D02*
D03*
Y255000D02*
D03*
Y183780D02*
D03*
Y193780D02*
D03*
Y125000D02*
D03*
Y135000D02*
D03*
X160000Y225000D02*
D03*
Y235000D02*
D03*
D30*
X235000Y330000D02*
D03*
X205000D02*
D03*
Y270000D02*
D03*
X235000D02*
D03*
Y230000D02*
D03*
X205000D02*
D03*
X235000Y210000D02*
D03*
X205000D02*
D03*
Y170000D02*
D03*
X235000D02*
D03*
X205000Y150000D02*
D03*
X235000D02*
D03*
Y110000D02*
D03*
X205000D02*
D03*
X120000Y420000D02*
D03*
Y490000D02*
D03*
X280000Y420000D02*
D03*
Y490000D02*
D03*
X173661Y145000D02*
D03*
X186000Y300000D02*
D03*
X185000Y289000D02*
D03*
X150000Y370000D02*
D03*
X180000Y190000D02*
D03*
D31*
X205000Y290000D02*
D03*
X235000D02*
D03*
D32*
X221102Y354567D02*
D03*
D33*
X129055Y125433D02*
D03*
D34*
X137953Y245000D02*
D03*
X122047Y335000D02*
D03*
X137953D02*
D03*
X122047Y325000D02*
D03*
X137953D02*
D03*
X122047Y315000D02*
D03*
X137953D02*
D03*
X122047Y305000D02*
D03*
X137953D02*
D03*
X122047Y295000D02*
D03*
X137953D02*
D03*
X122047Y285000D02*
D03*
X137953D02*
D03*
X122047Y275000D02*
D03*
X137953D02*
D03*
X122047Y265000D02*
D03*
X137953D02*
D03*
X122047Y255000D02*
D03*
X137953D02*
D03*
X122047Y245000D02*
D03*
Y235000D02*
D03*
X137953D02*
D03*
X122047Y225000D02*
D03*
X137953D02*
D03*
X122047Y215000D02*
D03*
X137953D02*
D03*
X122047Y205000D02*
D03*
X137953D02*
D03*
X122047Y195000D02*
D03*
X137953D02*
D03*
X122047Y185000D02*
D03*
X137953D02*
D03*
X122047Y175000D02*
D03*
X137953D02*
D03*
X122047Y165000D02*
D03*
X137953D02*
D03*
X122047Y155000D02*
D03*
X137953D02*
D03*
X122047Y145000D02*
D03*
X137953D02*
D03*
M02*
