G04*
G04 #@! TF.GenerationSoftware,Altium Limited,Altium Designer,18.1.9 (240)*
G04*
G04 Layer_Color=65535*
%FSLAX25Y25*%
%MOIN*%
G70*
G01*
G75*
%ADD10C,0.01000*%
%ADD11C,0.00787*%
%ADD12C,0.02362*%
%ADD13C,0.02000*%
D10*
X156170Y301538D02*
G03*
X143830Y301538I-6170J8462D01*
G01*
X196170D02*
G03*
X183830Y301538I-6170J8462D01*
G01*
X156170Y241538D02*
G03*
X143830Y241538I-6170J8462D01*
G01*
X156170Y181538D02*
G03*
X143830Y181538I-6170J8462D01*
G01*
X156170Y121538D02*
G03*
X143830Y121538I-6170J8462D01*
G01*
X196170Y241538D02*
G03*
X183830Y241538I-6170J8462D01*
G01*
X196170Y181538D02*
G03*
X183830Y181538I-6170J8462D01*
G01*
X196170Y121538D02*
G03*
X183830Y121538I-6170J8462D01*
G01*
X260000Y405000D02*
X280000D01*
Y395000D02*
Y405000D01*
X260000Y395000D02*
X280000D01*
X260000D02*
Y405000D01*
X200000Y395000D02*
X220000D01*
X200000D02*
Y405000D01*
X220000D01*
Y395000D02*
Y405000D01*
X110000Y395000D02*
X130000D01*
X110000D02*
Y405000D01*
X130000D01*
Y395000D02*
Y405000D01*
X120000Y374724D02*
X140000D01*
X120000D02*
Y384724D01*
X140000D01*
Y374724D02*
Y384724D01*
X115000Y300000D02*
Y320000D01*
X125000D01*
Y300000D02*
Y320000D01*
X115000Y300000D02*
X125000D01*
X143830Y301535D02*
X156170D01*
X160000Y325000D02*
X200000D01*
X160000D02*
Y335000D01*
X200000D01*
Y325000D02*
Y335000D01*
X183830Y301535D02*
X196170D01*
X160000Y295000D02*
X200000D01*
Y285000D02*
Y295000D01*
X160000Y285000D02*
X200000D01*
X160000D02*
Y295000D01*
Y265000D02*
X200000D01*
X160000D02*
Y275000D01*
X200000D01*
Y265000D02*
Y275000D01*
X115000Y240000D02*
Y260000D01*
X125000D01*
Y240000D02*
Y260000D01*
X115000Y240000D02*
X125000D01*
X143830Y241535D02*
X156170D01*
X143830Y181535D02*
X156170D01*
X115000Y178779D02*
Y198779D01*
X125000D01*
Y178779D02*
Y198779D01*
X115000Y178779D02*
X125000D01*
X115000Y120000D02*
Y140000D01*
X125000D01*
Y120000D02*
Y140000D01*
X115000Y120000D02*
X125000D01*
X143830Y121535D02*
X156170D01*
X183830Y241535D02*
X196170D01*
X160000Y235000D02*
X200000D01*
Y225000D02*
Y235000D01*
X160000Y225000D02*
X200000D01*
X160000D02*
Y235000D01*
Y205000D02*
X200000D01*
X160000D02*
Y215000D01*
X200000D01*
Y205000D02*
Y215000D01*
X183830Y181535D02*
X196170D01*
X160000Y175000D02*
X200000D01*
Y165000D02*
Y175000D01*
X160000Y165000D02*
X200000D01*
X160000D02*
Y175000D01*
Y145000D02*
X200000D01*
X160000D02*
Y155000D01*
X200000D01*
Y145000D02*
Y155000D01*
X160000Y115000D02*
X200000D01*
Y105000D02*
Y115000D01*
X160000Y105000D02*
X200000D01*
X160000D02*
Y115000D01*
X183830Y121535D02*
X196170D01*
X230000Y125000D02*
X250000D01*
Y115000D02*
Y125000D01*
X230000Y115000D02*
X250000D01*
X230000D02*
Y125000D01*
X235000Y240000D02*
X245000D01*
X235000Y220000D02*
Y240000D01*
Y220000D02*
X245000D01*
Y240000D01*
X268999Y391998D02*
X267999Y392998D01*
X266000D01*
X265000Y391998D01*
Y388000D01*
X266000Y387000D01*
X267999D01*
X268999Y388000D01*
X270998Y391998D02*
X271998Y392998D01*
X273997D01*
X274997Y391998D01*
Y390999D01*
X273997Y389999D01*
X274997Y388999D01*
Y388000D01*
X273997Y387000D01*
X271998D01*
X270998Y388000D01*
Y388999D01*
X271998Y389999D01*
X270998Y390999D01*
Y391998D01*
X271998Y389999D02*
X273997D01*
X209999Y391998D02*
X208999Y392998D01*
X207000D01*
X206000Y391998D01*
Y388000D01*
X207000Y387000D01*
X208999D01*
X209999Y388000D01*
X211998Y387000D02*
X213997D01*
X212998D01*
Y392998D01*
X211998Y391998D01*
X119999Y412998D02*
X118999Y413998D01*
X117000D01*
X116000Y412998D01*
Y409000D01*
X117000Y408000D01*
X118999D01*
X119999Y409000D01*
X121998D02*
X122998Y408000D01*
X124997D01*
X125997Y409000D01*
Y412998D01*
X124997Y413998D01*
X122998D01*
X121998Y412998D01*
Y411999D01*
X122998Y410999D01*
X125997D01*
X130999Y371998D02*
X129999Y372998D01*
X128000D01*
X127000Y371998D01*
Y368000D01*
X128000Y367000D01*
X129999D01*
X130999Y368000D01*
X132998Y367000D02*
X134997D01*
X133998D01*
Y372998D01*
X132998Y371998D01*
X140996Y367000D02*
Y372998D01*
X137996Y369999D01*
X141995D01*
X127000Y353000D02*
Y358998D01*
X129999D01*
X130999Y357998D01*
Y355999D01*
X129999Y354999D01*
X127000D01*
X132998Y354000D02*
X133998Y353000D01*
X135997D01*
X136997Y354000D01*
Y357998D01*
X135997Y358998D01*
X133998D01*
X132998Y357998D01*
Y356999D01*
X133998Y355999D01*
X136997D01*
X131000Y339000D02*
Y344998D01*
X133999D01*
X134999Y343998D01*
Y341999D01*
X133999Y340999D01*
X131000D01*
X139997Y339000D02*
Y344998D01*
X136998Y341999D01*
X140997D01*
X118999Y296998D02*
X117999Y297998D01*
X116000D01*
X115000Y296998D01*
Y293000D01*
X116000Y292000D01*
X117999D01*
X118999Y293000D01*
X120998Y297998D02*
X124997D01*
Y296998D01*
X120998Y293000D01*
Y292000D01*
X148999Y294000D02*
Y297998D01*
X147999Y298998D01*
X146000D01*
X145000Y297998D01*
Y294000D01*
X146000Y293000D01*
X147999D01*
X146999Y294999D02*
X148999Y293000D01*
X147999D02*
X148999Y294000D01*
X153997Y293000D02*
Y298998D01*
X150998Y295999D01*
X154997D01*
X203000Y328000D02*
Y333998D01*
X205999D01*
X206999Y332998D01*
Y330999D01*
X205999Y329999D01*
X203000D01*
X204999D02*
X206999Y328000D01*
X211997D02*
Y333998D01*
X208998Y330999D01*
X212997D01*
X206999Y309000D02*
Y312998D01*
X205999Y313998D01*
X204000D01*
X203000Y312998D01*
Y309000D01*
X204000Y308000D01*
X205999D01*
X204999Y309999D02*
X206999Y308000D01*
X205999D02*
X206999Y309000D01*
X208998Y312998D02*
X209998Y313998D01*
X211997D01*
X212997Y312998D01*
Y311999D01*
X211997Y310999D01*
X212997Y309999D01*
Y309000D01*
X211997Y308000D01*
X209998D01*
X208998Y309000D01*
Y309999D01*
X209998Y310999D01*
X208998Y311999D01*
Y312998D01*
X209998Y310999D02*
X211997D01*
X203000Y288000D02*
Y293998D01*
X205999D01*
X206999Y292998D01*
Y290999D01*
X205999Y289999D01*
X203000D01*
X204999D02*
X206999Y288000D01*
X208998Y292998D02*
X209998Y293998D01*
X211997D01*
X212997Y292998D01*
Y291999D01*
X211997Y290999D01*
X212997Y289999D01*
Y289000D01*
X211997Y288000D01*
X209998D01*
X208998Y289000D01*
Y289999D01*
X209998Y290999D01*
X208998Y291999D01*
Y292998D01*
X209998Y290999D02*
X211997D01*
X202000Y267000D02*
Y272998D01*
X204999D01*
X205999Y271998D01*
Y269999D01*
X204999Y268999D01*
X202000D01*
X203999D02*
X205999Y267000D01*
X207998Y271998D02*
X208998Y272998D01*
X210997D01*
X211997Y271998D01*
Y270999D01*
X210997Y269999D01*
X209997D01*
X210997D01*
X211997Y268999D01*
Y268000D01*
X210997Y267000D01*
X208998D01*
X207998Y268000D01*
X120000Y277000D02*
Y282998D01*
X122999D01*
X123999Y281998D01*
Y279999D01*
X122999Y278999D01*
X120000D01*
X125998Y281998D02*
X126998Y282998D01*
X128997D01*
X129997Y281998D01*
Y280999D01*
X128997Y279999D01*
X127997D01*
X128997D01*
X129997Y278999D01*
Y278000D01*
X128997Y277000D01*
X126998D01*
X125998Y278000D01*
X118699Y236998D02*
X117699Y237998D01*
X115700D01*
X114700Y236998D01*
Y233000D01*
X115700Y232000D01*
X117699D01*
X118699Y233000D01*
X124697Y237998D02*
X122697Y236998D01*
X120698Y234999D01*
Y233000D01*
X121698Y232000D01*
X123697D01*
X124697Y233000D01*
Y233999D01*
X123697Y234999D01*
X120698D01*
X148999Y234000D02*
Y237998D01*
X147999Y238998D01*
X146000D01*
X145000Y237998D01*
Y234000D01*
X146000Y233000D01*
X147999D01*
X146999Y234999D02*
X148999Y233000D01*
X147999D02*
X148999Y234000D01*
X150998Y237998D02*
X151998Y238998D01*
X153997D01*
X154997Y237998D01*
Y236999D01*
X153997Y235999D01*
X152997D01*
X153997D01*
X154997Y234999D01*
Y234000D01*
X153997Y233000D01*
X151998D01*
X150998Y234000D01*
X120000Y218000D02*
Y223998D01*
X122999D01*
X123999Y222998D01*
Y220999D01*
X122999Y219999D01*
X120000D01*
X129997Y218000D02*
X125998D01*
X129997Y221999D01*
Y222998D01*
X128997Y223998D01*
X126998D01*
X125998Y222998D01*
X146999Y174000D02*
Y177998D01*
X145999Y178998D01*
X144000D01*
X143000Y177998D01*
Y174000D01*
X144000Y173000D01*
X145999D01*
X144999Y174999D02*
X146999Y173000D01*
X145999D02*
X146999Y174000D01*
X152997Y173000D02*
X148998D01*
X152997Y176999D01*
Y177998D01*
X151997Y178998D01*
X149998D01*
X148998Y177998D01*
X118999Y174998D02*
X117999Y175998D01*
X116000D01*
X115000Y174998D01*
Y171000D01*
X116000Y170000D01*
X117999D01*
X118999Y171000D01*
X124997Y175998D02*
X120998D01*
Y172999D01*
X122997Y173999D01*
X123997D01*
X124997Y172999D01*
Y171000D01*
X123997Y170000D01*
X121998D01*
X120998Y171000D01*
X120000Y159000D02*
Y164998D01*
X122999D01*
X123999Y163998D01*
Y161999D01*
X122999Y160999D01*
X120000D01*
X125998Y159000D02*
X127997D01*
X126998D01*
Y164998D01*
X125998Y163998D01*
X118999Y115998D02*
X117999Y116998D01*
X116000D01*
X115000Y115998D01*
Y112000D01*
X116000Y111000D01*
X117999D01*
X118999Y112000D01*
X123997Y111000D02*
Y116998D01*
X120998Y113999D01*
X124997D01*
X148999Y114000D02*
Y117998D01*
X147999Y118998D01*
X146000D01*
X145000Y117998D01*
Y114000D01*
X146000Y113000D01*
X147999D01*
X146999Y114999D02*
X148999Y113000D01*
X147999D02*
X148999Y114000D01*
X150998Y113000D02*
X152997D01*
X151998D01*
Y118998D01*
X150998Y117998D01*
X207999Y249000D02*
Y252998D01*
X206999Y253998D01*
X205000D01*
X204000Y252998D01*
Y249000D01*
X205000Y248000D01*
X206999D01*
X205999Y249999D02*
X207999Y248000D01*
X206999D02*
X207999Y249000D01*
X209998Y253998D02*
X213997D01*
Y252998D01*
X209998Y249000D01*
Y248000D01*
X203000Y227000D02*
Y232998D01*
X205999D01*
X206999Y231998D01*
Y229999D01*
X205999Y228999D01*
X203000D01*
X204999D02*
X206999Y227000D01*
X208998Y232998D02*
X212997D01*
Y231998D01*
X208998Y228000D01*
Y227000D01*
X203000Y206000D02*
Y211998D01*
X205999D01*
X206999Y210998D01*
Y208999D01*
X205999Y207999D01*
X203000D01*
X204999D02*
X206999Y206000D01*
X212997D02*
X208998D01*
X212997Y209999D01*
Y210998D01*
X211997Y211998D01*
X209998D01*
X208998Y210998D01*
X206999Y189000D02*
Y192998D01*
X205999Y193998D01*
X204000D01*
X203000Y192998D01*
Y189000D01*
X204000Y188000D01*
X205999D01*
X204999Y189999D02*
X206999Y188000D01*
X205999D02*
X206999Y189000D01*
X212997Y193998D02*
X210997Y192998D01*
X208998Y190999D01*
Y189000D01*
X209998Y188000D01*
X211997D01*
X212997Y189000D01*
Y189999D01*
X211997Y190999D01*
X208998D01*
X202000Y167000D02*
Y172998D01*
X204999D01*
X205999Y171998D01*
Y169999D01*
X204999Y168999D01*
X202000D01*
X203999D02*
X205999Y167000D01*
X211997Y172998D02*
X209997Y171998D01*
X207998Y169999D01*
Y168000D01*
X208998Y167000D01*
X210997D01*
X211997Y168000D01*
Y168999D01*
X210997Y169999D01*
X207998D01*
X203000Y147000D02*
Y152998D01*
X205999D01*
X206999Y151998D01*
Y149999D01*
X205999Y148999D01*
X203000D01*
X204999D02*
X206999Y147000D01*
X208998D02*
X210997D01*
X209998D01*
Y152998D01*
X208998Y151998D01*
X202000Y107000D02*
Y112998D01*
X204999D01*
X205999Y111998D01*
Y109999D01*
X204999Y108999D01*
X202000D01*
X203999D02*
X205999Y107000D01*
X211997Y112998D02*
X207998D01*
Y109999D01*
X209997Y110999D01*
X210997D01*
X211997Y109999D01*
Y108000D01*
X210997Y107000D01*
X208998D01*
X207998Y108000D01*
X207999Y127000D02*
Y130998D01*
X206999Y131998D01*
X205000D01*
X204000Y130998D01*
Y127000D01*
X205000Y126000D01*
X206999D01*
X205999Y127999D02*
X207999Y126000D01*
X206999D02*
X207999Y127000D01*
X213997Y131998D02*
X209998D01*
Y128999D01*
X211997Y129999D01*
X212997D01*
X213997Y128999D01*
Y127000D01*
X212997Y126000D01*
X210998D01*
X209998Y127000D01*
X238999Y134998D02*
X237999Y135998D01*
X236000D01*
X235000Y134998D01*
Y131000D01*
X236000Y130000D01*
X237999D01*
X238999Y131000D01*
X244997Y130000D02*
X240998D01*
X244997Y133999D01*
Y134998D01*
X243997Y135998D01*
X241998D01*
X240998Y134998D01*
X142000Y408998D02*
Y404000D01*
X143000Y403000D01*
X144999D01*
X145999Y404000D01*
Y408998D01*
X147998Y407998D02*
X148998Y408998D01*
X150997D01*
X151997Y407998D01*
Y406999D01*
X150997Y405999D01*
X149997D01*
X150997D01*
X151997Y404999D01*
Y404000D01*
X150997Y403000D01*
X148998D01*
X147998Y404000D01*
X238699Y248498D02*
X237699Y249498D01*
X235700D01*
X234700Y248498D01*
Y244500D01*
X235700Y243500D01*
X237699D01*
X238699Y244500D01*
X240698Y248498D02*
X241698Y249498D01*
X243697D01*
X244697Y248498D01*
Y247499D01*
X243697Y246499D01*
X242697D01*
X243697D01*
X244697Y245499D01*
Y244500D01*
X243697Y243500D01*
X241698D01*
X240698Y244500D01*
D11*
X125000Y345000D02*
Y365000D01*
X115000D02*
X125000D01*
X115000Y345000D02*
Y365000D01*
Y345000D02*
X125000D01*
X115000Y335000D02*
X135000D01*
X115000Y325000D02*
Y335000D01*
Y325000D02*
X135000D01*
Y335000D01*
X115000Y275000D02*
X135000D01*
X115000Y265000D02*
Y275000D01*
Y265000D02*
X135000D01*
Y275000D01*
X115000Y215000D02*
X135000D01*
X115000Y205000D02*
Y215000D01*
Y205000D02*
X135000D01*
Y215000D01*
X115000Y155000D02*
X135000D01*
X115000Y145000D02*
Y155000D01*
Y145000D02*
X135000D01*
Y155000D01*
D12*
X140000Y415000D02*
X260000D01*
X140000D02*
Y485000D01*
X260000D01*
Y415000D02*
Y485000D01*
D13*
X219000Y355998D02*
X222999D01*
Y354998D01*
X219000Y351000D01*
Y350000D01*
X222999D01*
X225998Y353999D02*
X227997D01*
X228997Y352999D01*
Y350000D01*
X225998D01*
X224998Y351000D01*
X225998Y351999D01*
X228997D01*
X234995Y353999D02*
X231996D01*
X230996Y352999D01*
Y351000D01*
X231996Y350000D01*
X234995D01*
X236994Y355998D02*
Y350000D01*
Y352999D01*
X237994Y353999D01*
X239993D01*
X240993Y352999D01*
Y350000D01*
X248990Y355998D02*
Y350000D01*
X251989D01*
X252989Y351000D01*
Y354998D01*
X251989Y355998D01*
X248990D01*
X257987Y350000D02*
X255988D01*
X254988Y351000D01*
Y352999D01*
X255988Y353999D01*
X257987D01*
X258987Y352999D01*
Y351999D01*
X254988D01*
X260986Y350000D02*
X262986D01*
X261986D01*
Y353999D01*
X260986D01*
X265985Y355998D02*
Y350000D01*
X268984D01*
X269984Y351000D01*
Y351999D01*
Y352999D01*
X268984Y353999D01*
X265985D01*
X274982Y350000D02*
X272983D01*
X271983Y351000D01*
Y352999D01*
X272983Y353999D01*
X274982D01*
X275982Y352999D01*
Y351999D01*
X271983D01*
X277981Y353999D02*
Y350000D01*
Y351999D01*
X278981Y352999D01*
X279980Y353999D01*
X280980D01*
X284979Y354998D02*
Y353999D01*
X283979D01*
X285978D01*
X284979D01*
Y351000D01*
X285978Y350000D01*
M02*
