G04*
G04 #@! TF.GenerationSoftware,Altium Limited,Altium Designer,18.1.9 (240)*
G04*
G04 Layer_Color=32896*
%FSLAX25Y25*%
%MOIN*%
G70*
G01*
G75*
%ADD10C,0.01000*%
%ADD12C,0.02362*%
G36*
X255481Y397739D02*
X255334D01*
Y397593D01*
Y397446D01*
Y397300D01*
Y397154D01*
Y397008D01*
Y396862D01*
Y396716D01*
Y396570D01*
Y396424D01*
Y396278D01*
Y396132D01*
X255481D01*
Y395985D01*
X255334D01*
Y395839D01*
X255481D01*
Y395693D01*
X255334D01*
Y395547D01*
X255481D01*
Y395401D01*
X255334D01*
Y395255D01*
X255481D01*
Y395109D01*
X255334D01*
Y394963D01*
X255481D01*
Y394817D01*
X255334D01*
Y394671D01*
X255481D01*
Y394524D01*
X255334D01*
Y394378D01*
X255481D01*
Y394232D01*
X255334D01*
Y394086D01*
X255481D01*
Y393940D01*
X255334D01*
Y393794D01*
X255481D01*
Y393648D01*
X255334D01*
Y393502D01*
Y393356D01*
X255481D01*
Y393210D01*
X255773D01*
Y393356D01*
Y393502D01*
Y393648D01*
Y393794D01*
Y393940D01*
Y394086D01*
Y394232D01*
Y394378D01*
Y394524D01*
Y394671D01*
Y394817D01*
Y394963D01*
Y395109D01*
Y395255D01*
Y395401D01*
Y395547D01*
Y395693D01*
Y395839D01*
Y395985D01*
Y396132D01*
Y396278D01*
X255919D01*
Y396424D01*
Y396570D01*
X256211D01*
Y396424D01*
X256357D01*
Y396278D01*
X256503D01*
Y396132D01*
X256649D01*
Y395985D01*
X256796D01*
Y395839D01*
X256942D01*
Y395693D01*
Y395547D01*
X257088D01*
Y395401D01*
X257234D01*
Y395255D01*
X257380D01*
Y395109D01*
Y394963D01*
X257526D01*
Y394817D01*
Y394671D01*
X257818D01*
Y394817D01*
X257964D01*
Y394963D01*
X258110D01*
Y395109D01*
Y395255D01*
X258257D01*
Y395401D01*
X258403D01*
Y395547D01*
X258549D01*
Y395693D01*
Y395839D01*
X258695D01*
Y395985D01*
X258841D01*
Y396132D01*
Y396278D01*
X258987D01*
Y396424D01*
X259133D01*
Y396570D01*
X259572D01*
Y396424D01*
X259718D01*
Y396278D01*
Y396132D01*
Y395985D01*
Y395839D01*
Y395693D01*
Y395547D01*
Y395401D01*
Y395255D01*
Y395109D01*
Y394963D01*
Y394817D01*
Y394671D01*
Y394524D01*
Y394378D01*
Y394232D01*
Y394086D01*
Y393940D01*
Y393794D01*
Y393648D01*
Y393502D01*
Y393356D01*
Y393210D01*
X259864D01*
Y393063D01*
X260010D01*
Y393210D01*
X260156D01*
Y393356D01*
Y393502D01*
Y393648D01*
Y393794D01*
Y393940D01*
Y394086D01*
Y394232D01*
Y394378D01*
Y394524D01*
Y394671D01*
Y394817D01*
Y394963D01*
Y395109D01*
Y395255D01*
Y395401D01*
Y395547D01*
Y395693D01*
Y395839D01*
Y395985D01*
Y396132D01*
Y396278D01*
Y396424D01*
Y396570D01*
Y396716D01*
Y396862D01*
Y397008D01*
Y397154D01*
Y397300D01*
Y397446D01*
Y397593D01*
Y397739D01*
X260010D01*
Y397885D01*
X259572D01*
Y397739D01*
X259425D01*
Y397593D01*
X259279D01*
Y397446D01*
Y397300D01*
X259133D01*
Y397154D01*
Y397008D01*
X258987D01*
Y396862D01*
X258841D01*
Y396716D01*
Y396570D01*
X258695D01*
Y396424D01*
Y396278D01*
X258549D01*
Y396132D01*
X258403D01*
Y395985D01*
X258257D01*
Y395839D01*
Y395693D01*
X258110D01*
Y395547D01*
X257380D01*
Y395693D01*
X257234D01*
Y395839D01*
Y395985D01*
X257088D01*
Y396132D01*
X256942D01*
Y396278D01*
X256796D01*
Y396424D01*
Y396570D01*
X256649D01*
Y396716D01*
Y396862D01*
X256503D01*
Y397008D01*
X256357D01*
Y397154D01*
Y397300D01*
X256211D01*
Y397446D01*
Y397593D01*
X256065D01*
Y397739D01*
X255919D01*
Y397885D01*
X255481D01*
Y397739D01*
D02*
G37*
G36*
X249636Y397593D02*
Y397446D01*
Y397300D01*
Y397154D01*
Y397008D01*
Y396862D01*
Y396716D01*
Y396570D01*
Y396424D01*
Y396278D01*
Y396132D01*
Y395985D01*
Y395839D01*
Y395693D01*
Y395547D01*
Y395401D01*
Y395255D01*
Y395109D01*
Y394963D01*
Y394817D01*
Y394671D01*
Y394524D01*
X249782D01*
Y394378D01*
Y394232D01*
Y394086D01*
Y393940D01*
X249929D01*
Y393794D01*
Y393648D01*
X250075D01*
Y393502D01*
X250221D01*
Y393356D01*
X250367D01*
Y393210D01*
X250513D01*
Y393063D01*
X251097D01*
Y392917D01*
X252266D01*
Y393063D01*
X252705D01*
Y393210D01*
X252997D01*
Y393356D01*
X253143D01*
Y393502D01*
X253289D01*
Y393648D01*
X253435D01*
Y393794D01*
Y393940D01*
X253581D01*
Y394086D01*
Y394232D01*
Y394378D01*
Y394524D01*
Y394671D01*
Y394817D01*
Y394963D01*
X253727D01*
Y395109D01*
X253581D01*
Y395255D01*
X253727D01*
Y395401D01*
X253581D01*
Y395547D01*
X253727D01*
Y395693D01*
Y395839D01*
Y395985D01*
X253581D01*
Y396132D01*
X253727D01*
Y396278D01*
X253581D01*
Y396424D01*
X253727D01*
Y396570D01*
X253581D01*
Y396716D01*
X253727D01*
Y396862D01*
Y397008D01*
Y397154D01*
X253581D01*
Y397300D01*
X253727D01*
Y397446D01*
X253581D01*
Y397593D01*
Y397739D01*
X253289D01*
Y397593D01*
Y397446D01*
Y397300D01*
Y397154D01*
Y397008D01*
Y396862D01*
Y396716D01*
Y396570D01*
Y396424D01*
Y396278D01*
Y396132D01*
Y395985D01*
Y395839D01*
Y395693D01*
Y395547D01*
Y395401D01*
Y395255D01*
Y395109D01*
Y394963D01*
Y394817D01*
Y394671D01*
Y394524D01*
Y394378D01*
X253143D01*
Y394232D01*
Y394086D01*
Y393940D01*
X252997D01*
Y393794D01*
X252851D01*
Y393648D01*
X252705D01*
Y393502D01*
X252412D01*
Y393356D01*
X250951D01*
Y393502D01*
X250659D01*
Y393648D01*
X250513D01*
Y393794D01*
X250367D01*
Y393940D01*
X250221D01*
Y394086D01*
Y394232D01*
X250075D01*
Y394378D01*
Y394524D01*
Y394671D01*
Y394817D01*
Y394963D01*
Y395109D01*
Y395255D01*
X249929D01*
Y395401D01*
Y395547D01*
Y395693D01*
Y395839D01*
Y395985D01*
Y396132D01*
Y396278D01*
Y396424D01*
Y396570D01*
Y396716D01*
Y396862D01*
Y397008D01*
Y397154D01*
Y397300D01*
Y397446D01*
Y397593D01*
Y397739D01*
X249636D01*
Y397593D01*
D02*
G37*
G36*
X256649Y390434D02*
X256503D01*
Y390287D01*
X256357D01*
Y390141D01*
Y389995D01*
Y389849D01*
Y389703D01*
Y389557D01*
Y389411D01*
Y389265D01*
Y389119D01*
Y388972D01*
Y388826D01*
Y388680D01*
Y388534D01*
Y388388D01*
Y388242D01*
Y388096D01*
Y387950D01*
Y387804D01*
Y387657D01*
Y387511D01*
Y387365D01*
Y387219D01*
Y387073D01*
Y386927D01*
Y386781D01*
Y386635D01*
Y386489D01*
Y386343D01*
Y386196D01*
Y386050D01*
Y385904D01*
Y385758D01*
X256503D01*
Y385612D01*
X257526D01*
Y385758D01*
Y385904D01*
Y386050D01*
X257672D01*
Y386196D01*
Y386343D01*
Y386489D01*
Y386635D01*
Y386781D01*
Y386927D01*
Y387073D01*
Y387219D01*
Y387365D01*
Y387511D01*
Y387657D01*
X257818D01*
Y387804D01*
X258257D01*
Y387657D01*
X258403D01*
Y387511D01*
Y387365D01*
X258549D01*
Y387219D01*
X258695D01*
Y387073D01*
X258841D01*
Y386927D01*
X258987D01*
Y386781D01*
Y386635D01*
X259133D01*
Y386489D01*
X259279D01*
Y386343D01*
X259425D01*
Y386196D01*
X259572D01*
Y386050D01*
Y385904D01*
X259718D01*
Y385758D01*
X259864D01*
Y385612D01*
X261033D01*
Y385758D01*
Y385904D01*
Y386050D01*
Y386196D01*
Y386343D01*
Y386489D01*
Y386635D01*
Y386781D01*
Y386927D01*
Y387073D01*
Y387219D01*
Y387365D01*
Y387511D01*
Y387657D01*
Y387804D01*
Y387950D01*
Y388096D01*
Y388242D01*
Y388388D01*
Y388534D01*
Y388680D01*
Y388826D01*
Y388972D01*
Y389119D01*
Y389265D01*
Y389411D01*
Y389557D01*
Y389703D01*
Y389849D01*
Y389995D01*
Y390141D01*
Y390287D01*
Y390434D01*
X260886D01*
Y390580D01*
X260010D01*
Y390434D01*
X259864D01*
Y390287D01*
Y390141D01*
Y389995D01*
Y389849D01*
Y389703D01*
Y389557D01*
Y389411D01*
Y389265D01*
Y389119D01*
Y388972D01*
X259718D01*
Y388826D01*
Y388680D01*
Y388534D01*
X259572D01*
Y388388D01*
X259279D01*
Y388534D01*
X259133D01*
Y388680D01*
X258987D01*
Y388826D01*
X258841D01*
Y388972D01*
Y389119D01*
X258695D01*
Y389265D01*
X258549D01*
Y389411D01*
X258403D01*
Y389557D01*
Y389703D01*
X258257D01*
Y389849D01*
X258110D01*
Y389995D01*
X257964D01*
Y390141D01*
X257818D01*
Y390287D01*
X257672D01*
Y390434D01*
X257526D01*
Y390580D01*
X256649D01*
Y390434D01*
D02*
G37*
G36*
X252851Y390580D02*
X252120D01*
Y390434D01*
X251682D01*
Y390287D01*
X251536D01*
Y390141D01*
X251390D01*
Y389995D01*
X251097D01*
Y389849D01*
X250951D01*
Y389703D01*
Y389557D01*
X250805D01*
Y389411D01*
Y389265D01*
X250659D01*
Y389119D01*
Y388972D01*
X250513D01*
Y388826D01*
Y388680D01*
Y388534D01*
Y388388D01*
X250367D01*
Y388242D01*
Y388096D01*
Y387950D01*
Y387804D01*
Y387657D01*
X250513D01*
Y387511D01*
Y387365D01*
Y387219D01*
Y387073D01*
X250659D01*
Y386927D01*
Y386781D01*
X250805D01*
Y386635D01*
X250951D01*
Y386489D01*
Y386343D01*
X251097D01*
Y386196D01*
X251244D01*
Y386050D01*
X251536D01*
Y385904D01*
X251682D01*
Y385758D01*
X251974D01*
Y385612D01*
X252558D01*
Y385466D01*
X253873D01*
Y385612D01*
X254458D01*
Y385758D01*
X254750D01*
Y385904D01*
X255042D01*
Y386050D01*
X255188D01*
Y386196D01*
X255334D01*
Y386343D01*
Y386489D01*
Y386635D01*
Y386781D01*
Y386927D01*
Y387073D01*
Y387219D01*
Y387365D01*
Y387511D01*
Y387657D01*
Y387804D01*
Y387950D01*
Y388096D01*
Y388242D01*
X255188D01*
Y388388D01*
X254458D01*
Y388534D01*
X254312D01*
Y388388D01*
X254166D01*
Y388534D01*
X254019D01*
Y388388D01*
X253289D01*
Y388242D01*
X253143D01*
Y388096D01*
Y387950D01*
Y387804D01*
X253289D01*
Y387657D01*
Y387511D01*
X253873D01*
Y387365D01*
X254019D01*
Y387219D01*
Y387073D01*
Y386927D01*
Y386781D01*
X253727D01*
Y386635D01*
X252705D01*
Y386781D01*
X252266D01*
Y386927D01*
X252120D01*
Y387073D01*
Y387219D01*
X251974D01*
Y387365D01*
Y387511D01*
X251828D01*
Y387657D01*
Y387804D01*
Y387950D01*
Y388096D01*
Y388242D01*
Y388388D01*
Y388534D01*
Y388680D01*
X251974D01*
Y388826D01*
Y388972D01*
X252120D01*
Y389119D01*
X252266D01*
Y389265D01*
X252412D01*
Y389411D01*
X252705D01*
Y389557D01*
X253581D01*
Y389411D01*
X254019D01*
Y389265D01*
X254458D01*
Y389411D01*
X254750D01*
Y389557D01*
Y389703D01*
X254896D01*
Y389849D01*
Y389995D01*
Y390141D01*
X254750D01*
Y390287D01*
X254604D01*
Y390434D01*
X254312D01*
Y390580D01*
X253435D01*
Y390726D01*
X252851D01*
Y390580D01*
D02*
G37*
G36*
X248468Y390434D02*
X248175D01*
Y390287D01*
Y390141D01*
Y389995D01*
Y389849D01*
Y389703D01*
Y389557D01*
Y389411D01*
Y389265D01*
Y389119D01*
Y388972D01*
Y388826D01*
Y388680D01*
Y388534D01*
Y388388D01*
Y388242D01*
Y388096D01*
Y387950D01*
Y387804D01*
Y387657D01*
Y387511D01*
Y387365D01*
Y387219D01*
Y387073D01*
Y386927D01*
Y386781D01*
Y386635D01*
Y386489D01*
Y386343D01*
Y386196D01*
Y386050D01*
Y385904D01*
Y385758D01*
X248322D01*
Y385612D01*
X249344D01*
Y385758D01*
Y385904D01*
X249490D01*
Y386050D01*
Y386196D01*
Y386343D01*
Y386489D01*
Y386635D01*
Y386781D01*
Y386927D01*
Y387073D01*
Y387219D01*
Y387365D01*
Y387511D01*
Y387657D01*
Y387804D01*
Y387950D01*
Y388096D01*
Y388242D01*
Y388388D01*
Y388534D01*
Y388680D01*
Y388826D01*
Y388972D01*
Y389119D01*
Y389265D01*
Y389411D01*
Y389557D01*
Y389703D01*
Y389849D01*
Y389995D01*
Y390141D01*
Y390287D01*
X249344D01*
Y390434D01*
X249198D01*
Y390580D01*
X248468D01*
Y390434D01*
D02*
G37*
G36*
X262494D02*
X262201D01*
Y390287D01*
Y390141D01*
Y389995D01*
Y389849D01*
Y389703D01*
Y389557D01*
Y389411D01*
Y389265D01*
Y389119D01*
Y388972D01*
Y388826D01*
Y388680D01*
Y388534D01*
Y388388D01*
Y388242D01*
Y388096D01*
Y387950D01*
Y387804D01*
Y387657D01*
Y387511D01*
Y387365D01*
Y387219D01*
Y387073D01*
Y386927D01*
Y386781D01*
Y386635D01*
Y386489D01*
Y386343D01*
Y386196D01*
Y386050D01*
Y385904D01*
Y385758D01*
X262348D01*
Y385612D01*
X266146D01*
Y385758D01*
Y385904D01*
X266292D01*
Y386050D01*
X266146D01*
Y386196D01*
Y386343D01*
Y386489D01*
X266000D01*
Y386635D01*
X263955D01*
Y386781D01*
X263662D01*
Y386927D01*
X263516D01*
Y387073D01*
Y387219D01*
X263662D01*
Y387365D01*
X263808D01*
Y387511D01*
X265270D01*
Y387657D01*
X265708D01*
Y387804D01*
X265854D01*
Y387950D01*
Y388096D01*
Y388242D01*
Y388388D01*
Y388534D01*
X264101D01*
Y388680D01*
X263662D01*
Y388826D01*
Y388972D01*
X263516D01*
Y389119D01*
X263662D01*
Y389265D01*
Y389411D01*
X263955D01*
Y389557D01*
X266000D01*
Y389703D01*
X266146D01*
Y389849D01*
Y389995D01*
Y390141D01*
Y390287D01*
Y390434D01*
X266000D01*
Y390580D01*
X262494D01*
Y390434D01*
D02*
G37*
G36*
X267461D02*
X267169D01*
Y390287D01*
Y390141D01*
Y389995D01*
Y389849D01*
Y389703D01*
Y389557D01*
Y389411D01*
Y389265D01*
Y389119D01*
Y388972D01*
Y388826D01*
Y388680D01*
Y388534D01*
Y388388D01*
Y388242D01*
Y388096D01*
Y387950D01*
Y387804D01*
Y387657D01*
Y387511D01*
Y387365D01*
Y387219D01*
Y387073D01*
Y386927D01*
Y386781D01*
Y386635D01*
Y386489D01*
Y386343D01*
Y386196D01*
Y386050D01*
Y385904D01*
Y385758D01*
X267315D01*
Y385612D01*
X268338D01*
Y385758D01*
X268484D01*
Y385904D01*
Y386050D01*
Y386196D01*
Y386343D01*
Y386489D01*
Y386635D01*
Y386781D01*
X268630D01*
Y386927D01*
X269360D01*
Y386781D01*
X269507D01*
Y386635D01*
Y386489D01*
X269653D01*
Y386343D01*
X269799D01*
Y386196D01*
X269945D01*
Y386050D01*
Y385904D01*
X270091D01*
Y385758D01*
X270237D01*
Y385612D01*
X271552D01*
Y385758D01*
Y385904D01*
X271406D01*
Y386050D01*
Y386196D01*
X271260D01*
Y386343D01*
X271114D01*
Y386489D01*
Y386635D01*
X270968D01*
Y386781D01*
X270821D01*
Y386927D01*
Y387073D01*
Y387219D01*
Y387365D01*
X270968D01*
Y387511D01*
Y387657D01*
X271114D01*
Y387804D01*
X271260D01*
Y387950D01*
X271406D01*
Y388096D01*
Y388242D01*
X271552D01*
Y388388D01*
Y388534D01*
X271698D01*
Y388680D01*
Y388826D01*
Y388972D01*
Y389119D01*
Y389265D01*
X271552D01*
Y389411D01*
Y389557D01*
Y389703D01*
X271406D01*
Y389849D01*
X271260D01*
Y389995D01*
X271114D01*
Y390141D01*
X270968D01*
Y390287D01*
X270821D01*
Y390434D01*
X270383D01*
Y390580D01*
X267461D01*
Y390434D01*
D02*
G37*
G36*
X209166Y411034D02*
Y410888D01*
Y410742D01*
X208873D01*
Y410596D01*
X208581D01*
Y410450D01*
X208435D01*
Y410304D01*
X208143D01*
Y410157D01*
X207851D01*
Y410011D01*
X207558D01*
Y409865D01*
X207266D01*
Y409719D01*
X207120D01*
Y409573D01*
X206828D01*
Y409427D01*
X206536D01*
Y409281D01*
X206243D01*
Y409135D01*
X206097D01*
Y408989D01*
X205805D01*
Y408843D01*
X205513D01*
Y408697D01*
X205221D01*
Y408550D01*
X205075D01*
Y408404D01*
X204782D01*
Y408258D01*
X204490D01*
Y408112D01*
X204344D01*
Y407966D01*
X204052D01*
Y407820D01*
X203760D01*
Y407674D01*
X203614D01*
Y407528D01*
X203321D01*
Y407382D01*
X203029D01*
Y407235D01*
Y407089D01*
Y406943D01*
Y406797D01*
Y406651D01*
Y406505D01*
Y406359D01*
Y406213D01*
Y406067D01*
Y405921D01*
Y405774D01*
Y405628D01*
Y405482D01*
Y405336D01*
Y405190D01*
Y405044D01*
Y404898D01*
Y404752D01*
Y404606D01*
Y404459D01*
Y404313D01*
Y404167D01*
Y404021D01*
Y403875D01*
Y403729D01*
Y403583D01*
Y403437D01*
Y403291D01*
Y403145D01*
Y402998D01*
Y402852D01*
Y402706D01*
Y402560D01*
Y402414D01*
Y402268D01*
Y402122D01*
Y401976D01*
Y401830D01*
Y401684D01*
Y401537D01*
Y401391D01*
Y401245D01*
Y401099D01*
Y400953D01*
Y400807D01*
Y400661D01*
Y400515D01*
Y400369D01*
Y400222D01*
Y400076D01*
Y399930D01*
Y399784D01*
Y399638D01*
Y399492D01*
Y399346D01*
Y399200D01*
Y399054D01*
Y398907D01*
Y398761D01*
Y398615D01*
Y398469D01*
Y398323D01*
Y398177D01*
Y398031D01*
Y397885D01*
Y397739D01*
Y397593D01*
Y397446D01*
Y397300D01*
Y397154D01*
Y397008D01*
Y396862D01*
Y396716D01*
Y396570D01*
Y396424D01*
Y396278D01*
Y396132D01*
Y395985D01*
Y395839D01*
Y395693D01*
Y395547D01*
X203467D01*
Y395693D01*
X203760D01*
Y395839D01*
X204052D01*
Y395985D01*
X204344D01*
Y396132D01*
X204490D01*
Y396278D01*
X204782D01*
Y396424D01*
X205075D01*
Y396570D01*
X205367D01*
Y396716D01*
X205659D01*
Y396862D01*
X205805D01*
Y397008D01*
X206097D01*
Y397154D01*
X206390D01*
Y397300D01*
X206682D01*
Y397446D01*
X206828D01*
Y397593D01*
X207120D01*
Y397739D01*
X207266D01*
Y397885D01*
X207558D01*
Y398031D01*
X207851D01*
Y398177D01*
X208143D01*
Y398323D01*
X208289D01*
Y398469D01*
X208581D01*
Y398615D01*
X208727D01*
Y398761D01*
X208873D01*
Y398907D01*
Y399054D01*
Y399200D01*
Y399346D01*
Y399492D01*
Y399638D01*
Y399784D01*
Y399930D01*
Y400076D01*
Y400222D01*
Y400369D01*
Y400515D01*
Y400661D01*
Y400807D01*
Y400953D01*
Y401099D01*
Y401245D01*
Y401391D01*
Y401537D01*
Y401684D01*
Y401830D01*
Y401976D01*
Y402122D01*
Y402268D01*
Y402414D01*
Y402560D01*
Y402706D01*
Y402852D01*
Y402998D01*
Y403145D01*
Y403291D01*
Y403437D01*
Y403583D01*
Y403729D01*
Y403875D01*
Y404021D01*
Y404167D01*
Y404313D01*
Y404459D01*
Y404606D01*
Y404752D01*
X209019D01*
Y404898D01*
X209166D01*
Y405044D01*
X209458D01*
Y404898D01*
X209750D01*
Y404752D01*
X210042D01*
Y404606D01*
X210334D01*
Y404459D01*
X210480D01*
Y404313D01*
X210773D01*
Y404167D01*
X211065D01*
Y404021D01*
X211357D01*
Y403875D01*
X211503D01*
Y403729D01*
X211795D01*
Y403583D01*
X212088D01*
Y403437D01*
X212380D01*
Y403291D01*
X212526D01*
Y403145D01*
X212818D01*
Y402998D01*
X212964D01*
Y402852D01*
X213403D01*
Y402706D01*
X213549D01*
Y402560D01*
X213841D01*
Y402414D01*
X214133D01*
Y402268D01*
X214425D01*
Y402122D01*
X214571D01*
Y401976D01*
X214864D01*
Y401830D01*
X215156D01*
Y401684D01*
X215448D01*
Y401537D01*
X215594D01*
Y401391D01*
X215886D01*
Y401245D01*
X216179D01*
Y401099D01*
X216325D01*
Y400953D01*
X216617D01*
Y400807D01*
X216909D01*
Y400661D01*
X217201D01*
Y400515D01*
X217494D01*
Y400369D01*
X217640D01*
Y400222D01*
X217932D01*
Y400076D01*
X218224D01*
Y399930D01*
X218370D01*
Y399784D01*
X218662D01*
Y399638D01*
X218954D01*
Y399492D01*
X219247D01*
Y399346D01*
X219393D01*
Y399200D01*
X219685D01*
Y399054D01*
X219977D01*
Y398907D01*
X220123D01*
Y398761D01*
X220416D01*
Y398615D01*
X220562D01*
Y398469D01*
X220708D01*
Y398323D01*
Y398177D01*
X220854D01*
Y398031D01*
Y397885D01*
X221000D01*
Y397739D01*
Y397593D01*
Y397446D01*
Y397300D01*
Y397154D01*
Y397008D01*
Y396862D01*
Y396716D01*
Y396570D01*
Y396424D01*
Y396278D01*
Y396132D01*
Y395985D01*
Y395839D01*
Y395693D01*
Y395547D01*
Y395401D01*
Y395255D01*
Y395109D01*
Y394963D01*
Y394817D01*
Y394671D01*
Y394524D01*
Y394378D01*
Y394232D01*
Y394086D01*
Y393940D01*
Y393794D01*
Y393648D01*
Y393502D01*
Y393356D01*
Y393210D01*
Y393063D01*
Y392917D01*
Y392771D01*
Y392625D01*
Y392479D01*
Y392333D01*
Y392187D01*
Y392041D01*
Y391895D01*
Y391748D01*
Y391602D01*
Y391456D01*
Y391310D01*
Y391164D01*
Y391018D01*
Y390872D01*
Y390726D01*
Y390580D01*
Y390434D01*
Y390287D01*
Y390141D01*
Y389995D01*
Y389849D01*
Y389703D01*
Y389557D01*
Y389411D01*
Y389265D01*
Y389119D01*
Y388972D01*
Y388826D01*
Y388680D01*
Y388534D01*
Y388388D01*
Y388242D01*
Y388096D01*
Y387950D01*
Y387804D01*
Y387657D01*
Y387511D01*
Y387365D01*
Y387219D01*
Y387073D01*
Y386927D01*
Y386781D01*
Y386635D01*
Y386489D01*
Y386343D01*
Y386196D01*
Y386050D01*
Y385904D01*
Y385758D01*
Y385612D01*
Y385466D01*
Y385320D01*
X220854D01*
Y385174D01*
Y385028D01*
Y384881D01*
X220708D01*
Y384735D01*
X220562D01*
Y384589D01*
X220416D01*
Y384443D01*
X220269D01*
Y384297D01*
X220123D01*
Y384151D01*
X219831D01*
Y384005D01*
X219539D01*
Y383859D01*
X219247D01*
Y383713D01*
X219101D01*
Y383567D01*
X218808D01*
Y383420D01*
X218516D01*
Y383274D01*
X218224D01*
Y383128D01*
X218078D01*
Y382982D01*
X217786D01*
Y382836D01*
X217494D01*
Y382690D01*
X217347D01*
Y382544D01*
X217055D01*
Y382398D01*
X216763D01*
Y382252D01*
X216471D01*
Y382105D01*
X216179D01*
Y381959D01*
X216033D01*
Y381813D01*
X215740D01*
Y381667D01*
X215448D01*
Y381521D01*
X215302D01*
Y381375D01*
X215010D01*
Y381229D01*
X214718D01*
Y381083D01*
X214425D01*
Y380937D01*
X214279D01*
Y380791D01*
X213987D01*
Y380644D01*
X213695D01*
Y380498D01*
X213403D01*
Y380352D01*
X213257D01*
Y380206D01*
X212964D01*
Y380060D01*
X212672D01*
Y379914D01*
X212380D01*
Y379768D01*
X212234D01*
Y379622D01*
X211942D01*
Y379476D01*
X211649D01*
Y379330D01*
X211357D01*
Y379184D01*
X211211D01*
Y379037D01*
X210919D01*
Y378891D01*
X210627D01*
Y378745D01*
X210334D01*
Y378599D01*
X210188D01*
Y378453D01*
X209896D01*
Y378307D01*
X209604D01*
Y378161D01*
X209019D01*
Y378307D01*
Y378453D01*
X208873D01*
Y378599D01*
Y378745D01*
Y378891D01*
Y379037D01*
Y379184D01*
Y379330D01*
Y379476D01*
Y379622D01*
Y379768D01*
Y379914D01*
Y380060D01*
Y380206D01*
Y380352D01*
Y380498D01*
Y380644D01*
Y380791D01*
Y380937D01*
Y381083D01*
Y381229D01*
Y381375D01*
Y381521D01*
Y381667D01*
Y381813D01*
Y381959D01*
Y382105D01*
Y382252D01*
Y382398D01*
Y382544D01*
Y382690D01*
Y382836D01*
Y382982D01*
Y383128D01*
Y383274D01*
Y383420D01*
Y383567D01*
Y383713D01*
Y383859D01*
Y384005D01*
Y384151D01*
Y384297D01*
Y384443D01*
Y384589D01*
Y384735D01*
X209019D01*
Y384881D01*
X209166D01*
Y385028D01*
X209312D01*
Y385174D01*
X209458D01*
Y385320D01*
X209750D01*
Y385466D01*
X210042D01*
Y385612D01*
X210334D01*
Y385758D01*
X210627D01*
Y385904D01*
X210773D01*
Y386050D01*
X211065D01*
Y386196D01*
X211357D01*
Y386343D01*
X211503D01*
Y386489D01*
X211795D01*
Y386635D01*
X212088D01*
Y386781D01*
X212380D01*
Y386927D01*
X212672D01*
Y387073D01*
X212818D01*
Y387219D01*
X213110D01*
Y387365D01*
X213403D01*
Y387511D01*
X213695D01*
Y387657D01*
X213841D01*
Y387804D01*
X214133D01*
Y387950D01*
X214425D01*
Y388096D01*
X214571D01*
Y388242D01*
X214718D01*
Y388388D01*
Y388534D01*
X214864D01*
Y388680D01*
Y388826D01*
Y388972D01*
Y389119D01*
Y389265D01*
Y389411D01*
Y389557D01*
Y389703D01*
Y389849D01*
Y389995D01*
Y390141D01*
Y390287D01*
Y390434D01*
Y390580D01*
Y390726D01*
Y390872D01*
Y391018D01*
Y391164D01*
Y391310D01*
Y391456D01*
Y391602D01*
Y391748D01*
Y391895D01*
Y392041D01*
Y392187D01*
Y392333D01*
Y392479D01*
Y392625D01*
Y392771D01*
Y392917D01*
Y393063D01*
Y393210D01*
Y393356D01*
Y393502D01*
Y393648D01*
Y393794D01*
Y393940D01*
Y394086D01*
Y394232D01*
Y394378D01*
Y394524D01*
X214718D01*
Y394671D01*
X214133D01*
Y394524D01*
X213841D01*
Y394378D01*
X213549D01*
Y394232D01*
X213257D01*
Y394086D01*
X213110D01*
Y393940D01*
X212818D01*
Y393794D01*
X212526D01*
Y393648D01*
X212380D01*
Y393502D01*
X212088D01*
Y393356D01*
X211795D01*
Y393210D01*
X211503D01*
Y393063D01*
X211357D01*
Y392917D01*
X211065D01*
Y392771D01*
X210773D01*
Y392625D01*
X210480D01*
Y392479D01*
X210334D01*
Y392333D01*
X210042D01*
Y392187D01*
X209750D01*
Y392041D01*
X209604D01*
Y391895D01*
X209312D01*
Y391748D01*
X209019D01*
Y391602D01*
X208727D01*
Y391456D01*
X208435D01*
Y391310D01*
X208289D01*
Y391164D01*
X207997D01*
Y391018D01*
X207704D01*
Y390872D01*
X207558D01*
Y390726D01*
X207266D01*
Y390580D01*
X206974D01*
Y390434D01*
X206682D01*
Y390287D01*
X206536D01*
Y390141D01*
X206243D01*
Y389995D01*
X205951D01*
Y389849D01*
X205805D01*
Y389703D01*
X205513D01*
Y389557D01*
X205221D01*
Y389411D01*
X204928D01*
Y389265D01*
X204782D01*
Y389119D01*
X204490D01*
Y388972D01*
X204198D01*
Y388826D01*
X204052D01*
Y388680D01*
X203760D01*
Y388534D01*
X203614D01*
Y388388D01*
X203321D01*
Y388242D01*
X203029D01*
Y388096D01*
Y387950D01*
Y387804D01*
Y387657D01*
Y387511D01*
Y387365D01*
Y387219D01*
Y387073D01*
Y386927D01*
Y386781D01*
Y386635D01*
Y386489D01*
Y386343D01*
Y386196D01*
Y386050D01*
Y385904D01*
Y385758D01*
Y385612D01*
Y385466D01*
Y385320D01*
Y385174D01*
Y385028D01*
Y384881D01*
Y384735D01*
Y384589D01*
Y384443D01*
Y384297D01*
Y384151D01*
Y384005D01*
Y383859D01*
Y383713D01*
Y383567D01*
Y383420D01*
Y383274D01*
Y383128D01*
Y382982D01*
Y382836D01*
Y382690D01*
Y382544D01*
Y382398D01*
Y382252D01*
Y382105D01*
Y381959D01*
Y381813D01*
Y381667D01*
Y381521D01*
Y381375D01*
Y381229D01*
Y381083D01*
Y380937D01*
Y380791D01*
Y380644D01*
Y380498D01*
Y380352D01*
Y380206D01*
Y380060D01*
Y379914D01*
Y379768D01*
Y379622D01*
Y379476D01*
Y379330D01*
Y379184D01*
Y379037D01*
Y378891D01*
Y378745D01*
Y378599D01*
Y378453D01*
Y378307D01*
Y378161D01*
Y378015D01*
Y377869D01*
Y377722D01*
Y377576D01*
Y377430D01*
Y377284D01*
Y377138D01*
Y376992D01*
Y376846D01*
Y376700D01*
Y376554D01*
Y376408D01*
Y376261D01*
Y376115D01*
Y375969D01*
Y375823D01*
Y375677D01*
X203467D01*
Y375531D01*
X203614D01*
Y375385D01*
X203906D01*
Y375239D01*
X204198D01*
Y375093D01*
X204490D01*
Y374946D01*
X204636D01*
Y374800D01*
X204928D01*
Y374654D01*
X205075D01*
Y374508D01*
X205367D01*
Y374362D01*
X205659D01*
Y374216D01*
X205951D01*
Y374070D01*
X206243D01*
Y373924D01*
X206390D01*
Y373778D01*
X206682D01*
Y373632D01*
X206974D01*
Y373485D01*
X207120D01*
Y373339D01*
X207412D01*
Y373193D01*
X207704D01*
Y373047D01*
X207997D01*
Y372901D01*
X208289D01*
Y372755D01*
X208435D01*
Y372609D01*
X208727D01*
Y372463D01*
X209019D01*
Y372317D01*
X209166D01*
Y372170D01*
X209312D01*
Y372024D01*
X209458D01*
Y371878D01*
X210773D01*
Y372024D01*
X210919D01*
Y372170D01*
Y372317D01*
X211211D01*
Y372463D01*
X211503D01*
Y372609D01*
X211649D01*
Y372755D01*
X211942D01*
Y372901D01*
X212234D01*
Y373047D01*
X212526D01*
Y373193D01*
X212672D01*
Y373339D01*
X212964D01*
Y373485D01*
X213257D01*
Y373632D01*
X213403D01*
Y373778D01*
X213695D01*
Y373924D01*
X213987D01*
Y374070D01*
X214133D01*
Y374216D01*
X214571D01*
Y374362D01*
X214718D01*
Y374508D01*
X215010D01*
Y374654D01*
X215302D01*
Y374800D01*
X215594D01*
Y374946D01*
X215740D01*
Y375093D01*
X216033D01*
Y375239D01*
X216325D01*
Y375385D01*
X216471D01*
Y375531D01*
X216763D01*
Y375677D01*
X217055D01*
Y375823D01*
X217347D01*
Y375969D01*
X217494D01*
Y376115D01*
X217786D01*
Y376261D01*
X218078D01*
Y376408D01*
X218370D01*
Y376554D01*
X218516D01*
Y376700D01*
X218808D01*
Y376846D01*
X219101D01*
Y376992D01*
X219393D01*
Y377138D01*
X219685D01*
Y377284D01*
X219831D01*
Y377430D01*
X220123D01*
Y377576D01*
X220416D01*
Y377722D01*
X220562D01*
Y377869D01*
X220854D01*
Y378015D01*
X221146D01*
Y378161D01*
X221438D01*
Y378307D01*
X221584D01*
Y378453D01*
X221877D01*
Y378599D01*
X222169D01*
Y378745D01*
X222315D01*
Y378891D01*
X222607D01*
Y379037D01*
X222899D01*
Y379184D01*
X223192D01*
Y379330D01*
X223484D01*
Y379476D01*
X223630D01*
Y379622D01*
X223922D01*
Y379768D01*
X224068D01*
Y379914D01*
X224360D01*
Y380060D01*
X224653D01*
Y380206D01*
X224945D01*
Y380352D01*
X225237D01*
Y380498D01*
X225529D01*
Y380644D01*
X225675D01*
Y380791D01*
X225968D01*
Y380937D01*
X226260D01*
Y381083D01*
Y381229D01*
X226406D01*
Y381375D01*
X226552D01*
Y381521D01*
X226698D01*
Y381667D01*
Y381813D01*
Y381959D01*
Y382105D01*
X226844D01*
Y382252D01*
Y382398D01*
Y382544D01*
Y382690D01*
Y382836D01*
Y382982D01*
Y383128D01*
Y383274D01*
Y383420D01*
Y383567D01*
Y383713D01*
Y383859D01*
Y384005D01*
Y384151D01*
Y384297D01*
Y384443D01*
Y384589D01*
Y384735D01*
Y384881D01*
Y385028D01*
Y385174D01*
Y385320D01*
Y385466D01*
Y385612D01*
Y385758D01*
Y385904D01*
Y386050D01*
Y386196D01*
Y386343D01*
Y386489D01*
Y386635D01*
Y386781D01*
Y386927D01*
Y387073D01*
Y387219D01*
Y387365D01*
Y387511D01*
Y387657D01*
Y387804D01*
Y387950D01*
Y388096D01*
Y388242D01*
Y388388D01*
Y388534D01*
Y388680D01*
Y388826D01*
Y388972D01*
Y389119D01*
Y389265D01*
Y389411D01*
Y389557D01*
Y389703D01*
Y389849D01*
Y389995D01*
Y390141D01*
Y390287D01*
Y390434D01*
Y390580D01*
Y390726D01*
Y390872D01*
Y391018D01*
Y391164D01*
Y391310D01*
Y391456D01*
Y391602D01*
Y391748D01*
Y391895D01*
Y392041D01*
Y392187D01*
Y392333D01*
Y392479D01*
Y392625D01*
Y392771D01*
Y392917D01*
Y393063D01*
Y393210D01*
Y393356D01*
Y393502D01*
Y393648D01*
Y393794D01*
Y393940D01*
Y394086D01*
Y394232D01*
Y394378D01*
Y394524D01*
Y394671D01*
Y394817D01*
Y394963D01*
Y395109D01*
Y395255D01*
Y395401D01*
Y395547D01*
Y395693D01*
Y395839D01*
Y395985D01*
Y396132D01*
Y396278D01*
Y396424D01*
Y396570D01*
Y396716D01*
Y396862D01*
Y397008D01*
Y397154D01*
Y397300D01*
Y397446D01*
Y397593D01*
Y397739D01*
Y397885D01*
Y398031D01*
Y398177D01*
Y398323D01*
Y398469D01*
Y398615D01*
Y398761D01*
Y398907D01*
Y399054D01*
Y399200D01*
Y399346D01*
Y399492D01*
Y399638D01*
Y399784D01*
Y399930D01*
Y400076D01*
Y400222D01*
Y400369D01*
Y400515D01*
Y400661D01*
Y400807D01*
Y400953D01*
X226698D01*
Y401099D01*
Y401245D01*
Y401391D01*
X226552D01*
Y401537D01*
X226406D01*
Y401684D01*
Y401830D01*
X226260D01*
Y401976D01*
X226114D01*
Y402122D01*
X225821D01*
Y402268D01*
X225529D01*
Y402414D01*
X225237D01*
Y402560D01*
X225091D01*
Y402706D01*
X224799D01*
Y402852D01*
X224506D01*
Y402998D01*
X224360D01*
Y403145D01*
X224068D01*
Y403291D01*
X223776D01*
Y403437D01*
X223484D01*
Y403583D01*
X223338D01*
Y403729D01*
X223045D01*
Y403875D01*
X222753D01*
Y404021D01*
X222461D01*
Y404167D01*
X222169D01*
Y404313D01*
X222023D01*
Y404459D01*
X221730D01*
Y404606D01*
X221438D01*
Y404752D01*
X221292D01*
Y404898D01*
X221000D01*
Y405044D01*
X220708D01*
Y405190D01*
X220416D01*
Y405336D01*
X220269D01*
Y405482D01*
X219977D01*
Y405628D01*
X219685D01*
Y405774D01*
X219539D01*
Y405921D01*
X219101D01*
Y406067D01*
X218954D01*
Y406213D01*
X218662D01*
Y406359D01*
X218516D01*
Y406505D01*
X218224D01*
Y406651D01*
X218078D01*
Y406797D01*
X217640D01*
Y406943D01*
X217494D01*
Y407089D01*
X217201D01*
Y407235D01*
X216909D01*
Y407382D01*
X216617D01*
Y407528D01*
X216471D01*
Y407674D01*
X216179D01*
Y407820D01*
X215886D01*
Y407966D01*
X215594D01*
Y408112D01*
X215448D01*
Y408258D01*
X215156D01*
Y408404D01*
X214864D01*
Y408550D01*
X214718D01*
Y408697D01*
X214425D01*
Y408843D01*
X214133D01*
Y408989D01*
X213841D01*
Y409135D01*
X213549D01*
Y409281D01*
X213403D01*
Y409427D01*
X213110D01*
Y409573D01*
X212818D01*
Y409719D01*
X212672D01*
Y409865D01*
X212380D01*
Y410011D01*
X212088D01*
Y410157D01*
X211795D01*
Y410304D01*
X211649D01*
Y410450D01*
X211357D01*
Y410596D01*
X211065D01*
Y410742D01*
X210919D01*
Y410888D01*
X210773D01*
Y411034D01*
Y411180D01*
X209166D01*
Y411034D01*
D02*
G37*
G36*
X242623Y397885D02*
X242477D01*
Y397739D01*
X242623D01*
Y397593D01*
X243646D01*
Y397446D01*
X243792D01*
Y397300D01*
X243938D01*
Y397154D01*
Y397008D01*
X244085D01*
Y396862D01*
Y396716D01*
Y396570D01*
Y396424D01*
Y396278D01*
Y396132D01*
Y395985D01*
Y395839D01*
Y395693D01*
Y395547D01*
Y395401D01*
Y395255D01*
Y395109D01*
Y394963D01*
Y394817D01*
Y394671D01*
Y394524D01*
Y394378D01*
Y394232D01*
Y394086D01*
Y393940D01*
Y393794D01*
Y393648D01*
Y393502D01*
Y393356D01*
Y393210D01*
X244377D01*
Y393356D01*
Y393502D01*
Y393648D01*
Y393794D01*
Y393940D01*
Y394086D01*
Y394232D01*
Y394378D01*
Y394524D01*
Y394671D01*
Y394817D01*
Y394963D01*
Y395109D01*
Y395255D01*
Y395401D01*
Y395547D01*
Y395693D01*
Y395839D01*
Y395985D01*
Y396132D01*
Y396278D01*
Y396424D01*
Y396570D01*
Y396716D01*
Y396862D01*
Y397008D01*
X244523D01*
Y397154D01*
Y397300D01*
X244669D01*
Y397446D01*
X244815D01*
Y397593D01*
X245838D01*
Y397739D01*
X245984D01*
Y397885D01*
X245838D01*
Y398031D01*
X242623D01*
Y397885D01*
D02*
G37*
G36*
X247591Y397739D02*
Y397593D01*
Y397446D01*
Y397300D01*
Y397154D01*
Y397008D01*
Y396862D01*
Y396716D01*
Y396570D01*
Y396424D01*
Y396278D01*
Y396132D01*
Y395985D01*
Y395839D01*
Y395693D01*
Y395547D01*
Y395401D01*
Y395255D01*
Y395109D01*
Y394963D01*
Y394817D01*
Y394671D01*
Y394524D01*
Y394378D01*
Y394232D01*
Y394086D01*
Y393940D01*
Y393794D01*
Y393648D01*
Y393502D01*
Y393356D01*
Y393210D01*
X247883D01*
Y393356D01*
Y393502D01*
Y393648D01*
Y393794D01*
Y393940D01*
Y394086D01*
Y394232D01*
Y394378D01*
Y394524D01*
Y394671D01*
Y394817D01*
Y394963D01*
Y395109D01*
Y395255D01*
Y395401D01*
Y395547D01*
Y395693D01*
Y395839D01*
Y395985D01*
Y396132D01*
Y396278D01*
Y396424D01*
Y396570D01*
Y396716D01*
Y396862D01*
Y397008D01*
Y397154D01*
Y397300D01*
Y397446D01*
Y397593D01*
Y397739D01*
Y397885D01*
X247591D01*
Y397739D01*
D02*
G37*
G36*
X234588D02*
Y397593D01*
X234442D01*
Y397446D01*
Y397300D01*
Y397154D01*
X234296D01*
Y397008D01*
Y396862D01*
X234149D01*
Y396716D01*
Y396570D01*
X234003D01*
Y396424D01*
Y396278D01*
Y396132D01*
X233857D01*
Y395985D01*
Y395839D01*
X233711D01*
Y395693D01*
Y395547D01*
X233565D01*
Y395401D01*
Y395255D01*
X233419D01*
Y395109D01*
Y394963D01*
X233273D01*
Y394817D01*
Y394671D01*
X233127D01*
Y394524D01*
Y394378D01*
Y394232D01*
X232980D01*
Y394086D01*
Y393940D01*
X232834D01*
Y393794D01*
Y393648D01*
X232688D01*
Y393502D01*
Y393356D01*
Y393210D01*
Y393063D01*
X232834D01*
Y393210D01*
X232980D01*
Y393356D01*
Y393502D01*
X233127D01*
Y393648D01*
Y393794D01*
X233273D01*
Y393940D01*
X233419D01*
Y394086D01*
X233565D01*
Y394232D01*
X233711D01*
Y394378D01*
X236195D01*
Y394232D01*
X236341D01*
Y394086D01*
X236487D01*
Y393940D01*
X236633D01*
Y393794D01*
X236779D01*
Y393648D01*
Y393502D01*
Y393356D01*
X236925D01*
Y393210D01*
X237218D01*
Y393356D01*
Y393502D01*
Y393648D01*
X237071D01*
Y393794D01*
Y393940D01*
X236925D01*
Y394086D01*
Y394232D01*
Y394378D01*
X236779D01*
Y394524D01*
Y394671D01*
X236633D01*
Y394817D01*
Y394963D01*
X236487D01*
Y395109D01*
Y395255D01*
X236341D01*
Y395401D01*
Y395547D01*
X236195D01*
Y395693D01*
Y395839D01*
Y395985D01*
X236049D01*
Y396132D01*
Y396278D01*
X235903D01*
Y396424D01*
Y396570D01*
X235756D01*
Y396716D01*
Y396862D01*
X235610D01*
Y397008D01*
Y397154D01*
X235464D01*
Y397300D01*
Y397446D01*
X235318D01*
Y397593D01*
Y397739D01*
X235172D01*
Y397885D01*
X234588D01*
Y397739D01*
D02*
G37*
G36*
X238825D02*
X238679D01*
Y397593D01*
X238825D01*
Y397446D01*
X238679D01*
Y397300D01*
Y397154D01*
Y397008D01*
X238825D01*
Y396862D01*
X238679D01*
Y396716D01*
X238825D01*
Y396570D01*
X238679D01*
Y396424D01*
X238825D01*
Y396278D01*
X238679D01*
Y396132D01*
Y395985D01*
Y395839D01*
X238825D01*
Y395693D01*
X238679D01*
Y395547D01*
X238825D01*
Y395401D01*
X238679D01*
Y395255D01*
X238825D01*
Y395109D01*
X238679D01*
Y394963D01*
Y394817D01*
Y394671D01*
X238825D01*
Y394524D01*
X238679D01*
Y394378D01*
Y394232D01*
Y394086D01*
X238825D01*
Y393940D01*
X238679D01*
Y393794D01*
Y393648D01*
Y393502D01*
Y393356D01*
Y393210D01*
X238825D01*
Y393063D01*
X241893D01*
Y393210D01*
X241747D01*
Y393356D01*
X239555D01*
Y393502D01*
X239263D01*
Y393648D01*
X239117D01*
Y393794D01*
Y393940D01*
Y394086D01*
Y394232D01*
Y394378D01*
Y394524D01*
Y394671D01*
Y394817D01*
Y394963D01*
Y395109D01*
Y395255D01*
Y395401D01*
Y395547D01*
Y395693D01*
Y395839D01*
Y395985D01*
Y396132D01*
Y396278D01*
Y396424D01*
Y396570D01*
Y396716D01*
Y396862D01*
Y397008D01*
Y397154D01*
Y397300D01*
Y397446D01*
Y397593D01*
Y397739D01*
X238971D01*
Y397885D01*
X238825D01*
Y397739D01*
D02*
G37*
G36*
X232688Y390434D02*
X232542D01*
Y390287D01*
Y390141D01*
Y389995D01*
Y389849D01*
Y389703D01*
Y389557D01*
Y389411D01*
Y389265D01*
Y389119D01*
Y388972D01*
Y388826D01*
Y388680D01*
Y388534D01*
Y388388D01*
Y388242D01*
Y388096D01*
Y387950D01*
Y387804D01*
Y387657D01*
Y387511D01*
Y387365D01*
Y387219D01*
Y387073D01*
Y386927D01*
Y386781D01*
Y386635D01*
Y386489D01*
Y386343D01*
Y386196D01*
Y386050D01*
Y385904D01*
Y385758D01*
X232688D01*
Y385612D01*
X235464D01*
Y385758D01*
X235756D01*
Y385904D01*
X236195D01*
Y386050D01*
X236341D01*
Y386196D01*
X236487D01*
Y386343D01*
X236633D01*
Y386489D01*
X236779D01*
Y386635D01*
X236925D01*
Y386781D01*
X237071D01*
Y386927D01*
Y387073D01*
Y387219D01*
X237218D01*
Y387365D01*
Y387511D01*
Y387657D01*
X237364D01*
Y387804D01*
Y387950D01*
Y388096D01*
Y388242D01*
Y388388D01*
Y388534D01*
X237218D01*
Y388680D01*
Y388826D01*
Y388972D01*
Y389119D01*
X237071D01*
Y389265D01*
Y389411D01*
X236925D01*
Y389557D01*
X236779D01*
Y389703D01*
Y389849D01*
X236633D01*
Y389995D01*
X236341D01*
Y390141D01*
X236049D01*
Y390287D01*
X235903D01*
Y390434D01*
X235318D01*
Y390580D01*
X232688D01*
Y390434D01*
D02*
G37*
G36*
X238532D02*
X238240D01*
Y390287D01*
Y390141D01*
Y389995D01*
Y389849D01*
Y389703D01*
Y389557D01*
Y389411D01*
Y389265D01*
Y389119D01*
Y388972D01*
Y388826D01*
Y388680D01*
Y388534D01*
Y388388D01*
Y388242D01*
Y388096D01*
Y387950D01*
Y387804D01*
Y387657D01*
Y387511D01*
Y387365D01*
Y387219D01*
Y387073D01*
Y386927D01*
Y386781D01*
Y386635D01*
Y386489D01*
Y386343D01*
Y386196D01*
Y386050D01*
Y385904D01*
Y385758D01*
X238386D01*
Y385612D01*
X242185D01*
Y385758D01*
X242331D01*
Y385904D01*
Y386050D01*
Y386196D01*
Y386343D01*
X242185D01*
Y386489D01*
Y386635D01*
X239994D01*
Y386781D01*
X239701D01*
Y386927D01*
Y387073D01*
Y387219D01*
Y387365D01*
X239847D01*
Y387511D01*
X241308D01*
Y387657D01*
X241893D01*
Y387804D01*
Y387950D01*
X242039D01*
Y388096D01*
Y388242D01*
Y388388D01*
X241893D01*
Y388534D01*
X240286D01*
Y388680D01*
X239847D01*
Y388826D01*
X239701D01*
Y388972D01*
X239555D01*
Y389119D01*
X239701D01*
Y389265D01*
Y389411D01*
X239994D01*
Y389557D01*
X242039D01*
Y389703D01*
X242185D01*
Y389849D01*
X242331D01*
Y389995D01*
Y390141D01*
Y390287D01*
X242185D01*
Y390434D01*
X242039D01*
Y390580D01*
X238532D01*
Y390434D01*
D02*
G37*
G36*
X244085D02*
X243792D01*
Y390287D01*
X243646D01*
Y390141D01*
X243500D01*
Y389995D01*
X243354D01*
Y389849D01*
Y389703D01*
X243208D01*
Y389557D01*
Y389411D01*
Y389265D01*
Y389119D01*
Y388972D01*
Y388826D01*
Y388680D01*
Y388534D01*
X243354D01*
Y388388D01*
Y388242D01*
X243500D01*
Y388096D01*
X243646D01*
Y387950D01*
X243938D01*
Y387804D01*
X244231D01*
Y387657D01*
X244669D01*
Y387511D01*
X245253D01*
Y387365D01*
X245546D01*
Y387219D01*
X245692D01*
Y387073D01*
Y386927D01*
Y386781D01*
X245546D01*
Y386635D01*
X244377D01*
Y386781D01*
X243938D01*
Y386927D01*
X243500D01*
Y386781D01*
X243208D01*
Y386635D01*
Y386489D01*
X243062D01*
Y386343D01*
Y386196D01*
X243208D01*
Y386050D01*
X243354D01*
Y385904D01*
X243646D01*
Y385758D01*
X243938D01*
Y385612D01*
X244523D01*
Y385466D01*
X245838D01*
Y385612D01*
X246276D01*
Y385758D01*
X246568D01*
Y385904D01*
X246714D01*
Y386050D01*
X246860D01*
Y386196D01*
X247007D01*
Y386343D01*
Y386489D01*
X247153D01*
Y386635D01*
Y386781D01*
X247299D01*
Y386927D01*
Y387073D01*
Y387219D01*
X247153D01*
Y387365D01*
Y387511D01*
Y387657D01*
X247007D01*
Y387804D01*
Y387950D01*
X246860D01*
Y388096D01*
X246568D01*
Y388242D01*
X246422D01*
Y388388D01*
X245984D01*
Y388534D01*
X245546D01*
Y388680D01*
X244961D01*
Y388826D01*
X244815D01*
Y388972D01*
X244669D01*
Y389119D01*
Y389265D01*
Y389411D01*
X244815D01*
Y389557D01*
X245692D01*
Y389411D01*
X246130D01*
Y389265D01*
X246422D01*
Y389411D01*
X246714D01*
Y389557D01*
X246860D01*
Y389703D01*
Y389849D01*
Y389995D01*
Y390141D01*
X246714D01*
Y390287D01*
X246568D01*
Y390434D01*
X246276D01*
Y390580D01*
X244085D01*
Y390434D01*
D02*
G37*
%LPC*%
G36*
X268922Y389557D02*
X269653D01*
Y389411D01*
X269945D01*
Y389265D01*
X270091D01*
Y389119D01*
X270237D01*
Y388972D01*
Y388826D01*
Y388680D01*
Y388534D01*
Y388388D01*
X269945D01*
Y388242D01*
X269653D01*
Y388096D01*
X268922D01*
Y388242D01*
X268630D01*
Y388388D01*
X268484D01*
Y388534D01*
Y388680D01*
Y388826D01*
Y388972D01*
Y389119D01*
X268630D01*
Y389265D01*
Y389411D01*
X268922D01*
Y389557D01*
D02*
G37*
G36*
X234734Y397008D02*
X235318D01*
Y396862D01*
Y396716D01*
X235464D01*
Y396570D01*
Y396424D01*
Y396278D01*
X235610D01*
Y396132D01*
X235756D01*
Y395985D01*
Y395839D01*
Y395693D01*
X235903D01*
Y395547D01*
Y395401D01*
X236049D01*
Y395255D01*
Y395109D01*
Y394963D01*
X235903D01*
Y394817D01*
X235610D01*
Y394671D01*
X234149D01*
Y394817D01*
X234003D01*
Y394963D01*
X233857D01*
Y395109D01*
Y395255D01*
Y395401D01*
Y395547D01*
X234003D01*
Y395693D01*
Y395839D01*
X234149D01*
Y395985D01*
X234296D01*
Y396132D01*
Y396278D01*
Y396424D01*
X234442D01*
Y396570D01*
Y396716D01*
X234588D01*
Y396862D01*
X234734D01*
Y397008D01*
D02*
G37*
G36*
X234442Y389557D02*
X234588D01*
Y389411D01*
X235026D01*
Y389265D01*
X235464D01*
Y389119D01*
X235610D01*
Y388972D01*
X235756D01*
Y388826D01*
Y388680D01*
X235903D01*
Y388534D01*
Y388388D01*
Y388242D01*
Y388096D01*
Y387950D01*
Y387804D01*
Y387657D01*
Y387511D01*
X235756D01*
Y387365D01*
Y387219D01*
X235610D01*
Y387073D01*
X235464D01*
Y386927D01*
X235172D01*
Y386781D01*
X234003D01*
Y386927D01*
X233857D01*
Y387073D01*
Y387219D01*
Y387365D01*
Y387511D01*
Y387657D01*
Y387804D01*
Y387950D01*
Y388096D01*
Y388242D01*
Y388388D01*
Y388534D01*
Y388680D01*
Y388826D01*
Y388972D01*
Y389119D01*
X234003D01*
Y389265D01*
Y389411D01*
X234442D01*
Y389557D01*
D02*
G37*
%LPD*%
D10*
X175000Y465000D02*
X165000Y455000D01*
X175000Y445000D02*
X165000Y455000D01*
X235000D02*
X165000D01*
X285000Y415000D02*
X115000D01*
Y495000D01*
X285000D02*
X115000D01*
X285000Y415000D02*
Y495000D01*
X115000Y411998D02*
Y407000D01*
X116000Y406000D01*
X117999D01*
X118999Y407000D01*
Y411998D01*
X124997D02*
X122997Y410998D01*
X120998Y408999D01*
Y407000D01*
X121998Y406000D01*
X123997D01*
X124997Y407000D01*
Y407999D01*
X123997Y408999D01*
X120998D01*
X115100Y378498D02*
Y373500D01*
X116100Y372500D01*
X118099D01*
X119099Y373500D01*
Y378498D01*
X125097D02*
X121098D01*
Y375499D01*
X123097Y376499D01*
X124097D01*
X125097Y375499D01*
Y373500D01*
X124097Y372500D01*
X122098D01*
X121098Y373500D01*
D12*
X234882Y111653D02*
X115276D01*
Y368347D01*
X140000Y140000D02*
X120000D01*
Y335000D01*
Y340000D01*
X140000D02*
X120000D01*
X140000Y140000D02*
Y340000D01*
X234882Y368347D02*
X115276D01*
X234882Y111653D02*
Y368347D01*
M02*
