  0
SECTION
  2
HEADER
  9
$ACADVER
  1
AC1014
  9
$HANDSEED
  5
FFFF
  9
$MEASUREMENT
 70
     1
  0
ENDSEC
  0
SECTION
  2
TABLES
  0
TABLE
  2
VPORT
  5
8
330
0
100
AcDbSymbolTable
 70
     4
  0
VPORT
  5
2E
330
8
100
AcDbSymbolTableRecord
100
AcDbViewportTableRecord
  2
*ACTIVE
 70
     0
 10
0.0
 20
0.0
 11
1.0
 21
1.0
 12
210.0
 22
148.5
 13
0.0
 23
0.0
 14
10.0
 24
10.0
 15
10.0
 25
10.0
 16
0.0
 26
0.0
 36
1.0
 17
0.0
 27
0.0
 37
0.0
 40
341.0
 41
1.24
 42
50.0
 43
0.0
 44
0.0
 50
0.0
 51
0.0
 71
     0
 72
   100
 73
     1
 74
     3
 75
     0
 76
     0
 77
     0
 78
     0
  0
ENDTAB
  0
TABLE
  2
LTYPE
  5
5
330
0
100
AcDbSymbolTable
 70
     1
  0
LTYPE
  5
14
330
5
100
AcDbSymbolTableRecord
100
AcDbLinetypeTableRecord
  2
BYBLOCK
 70
     0
  3

 72
    65
 73
     0
 40
0.0
  0
LTYPE
  5
15
330
5
100
AcDbSymbolTableRecord
100
AcDbLinetypeTableRecord
  2
BYLAYER
 70
     0
  3

 72
    65
 73
     0
 40
0.0
  0
LTYPE
  5
16
330
5
100
AcDbSymbolTableRecord
100
AcDbLinetypeTableRecord
  2
CONTINUOUS
 70
     0
  3
Solid line
 72
    65
 73
     0
 40
0.0
  0
ENDTAB
  0
TABLE
  2
LAYER
  5
2
100
AcDbSymbolTable
 70
1
  0
LAYER
  5
50
100
AcDbSymbolTableRecord
100
AcDbLayerTableRecord
  2
0
 70
0
  6
CONTINUOUS
  0
ENDTAB
  0
TABLE
  2
STYLE
  5
3
330
0
100
AcDbSymbolTable
 70
     1
  0
STYLE
  5
11
330
3
100
AcDbSymbolTableRecord
100
AcDbTextStyleTableRecord
  2
STANDARD
 70
     0
 40
0.0
 41
1.0
 50
0.0
 71
     0
 42
2.5
  3
txt
  4

  0
ENDTAB
  0
TABLE
  2
VIEW
  5
6
330
0
100
AcDbSymbolTable
 70
     0
  0
ENDTAB
  0
TABLE
  2
UCS
  5
7
330
0
100
AcDbSymbolTable
 70
     0
  0
ENDTAB
  0
TABLE
  2
APPID
  5
9
330
0
100
AcDbSymbolTable
 70
     2
  0
APPID
  5
12
330
9
100
AcDbSymbolTableRecord
100
AcDbRegAppTableRecord
  2
ACAD
 70
     0
  0
ENDTAB
  0
TABLE
  2
DIMSTYLE
  5
A
330
0
100
AcDbSymbolTable
 70
     1
  0
DIMSTYLE
105
27
330
A
100
AcDbSymbolTableRecord
100
AcDbDimStyleTableRecord
  2
ISO-25
 70
     0
  3

  4

  5

  6

  7

 40
1.0
 41
2.5
 42
0.625
 43
3.75
 44
1.25
 45
0.0
 46
0.0
 47
0.0
 48
0.0
140
2.5
141
2.5
142
0.0
143
0.03937007874016
144
1.0
145
0.0
146
1.0
147
0.625
 71
     0
 72
     0
 73
     0
 74
     0
 75
     0
 76
     0
 77
     1
 78
     8
170
     0
171
     3
172
     1
173
     0
174
     0
175
     0
176
     0
177
     0
178
     0
270
     2
271
     2
272
     2
273
     2
274
     3
340
11
275
     0
280
     0
281
     0
282
     0
283
     0
284
     8
285
     0
286
     0
287
     3
288
     0
  0
ENDTAB
  0
TABLE
  2
BLOCK_RECORD
  5
1
330
0
100
AcDbSymbolTable
 70
     1
  0
BLOCK_RECORD
  5
1F
330
1
100
AcDbSymbolTableRecord
100
AcDbBlockTableRecord
  2
*MODEL_SPACE
  0
BLOCK_RECORD
  5
1B
330
1
100
AcDbSymbolTableRecord
100
AcDbBlockTableRecord
  2
*PAPER_SPACE
  0
ENDTAB
  0
ENDSEC
  0
SECTION
  2
BLOCKS
  0
BLOCK
  5
20
330
1F
100
AcDbEntity
  8
0
100
AcDbBlockBegin
  2
*MODEL_SPACE
 70
     0
 10
0.0
 20
0.0
 30
0.0
  3
*MODEL_SPACE
  1

  0
ENDBLK
  5
21
330
1F
100
AcDbEntity
  8
0
100
AcDbBlockEnd
  0
BLOCK
  5
1C
330
1B
100
AcDbEntity
 67
     1
  8
0
100
AcDbBlockBegin
  2
*PAPER_SPACE
  1

  0
ENDBLK
  5
1D
330
1B
100
AcDbEntity
 67
     1
  8
0
100
AcDbBlockEnd
  0
ENDSEC
  0
SECTION
  2
ENTITIES
  0
LWPOLYLINE
  5
100
100
AcDbEntity
  8
0
 62
7
100
AcDbPolyline
 90
16
 70
1
 10
5.473700
 20
1.238626
 30
0.0
 10
5.473700
 20
2.464543
 30
0.0
 10
5.143500
 20
2.794011
 30
0.0
 10
4.813300
 20
3.123478
 30
0.0
 10
4.813300
 20
3.930295
 30
0.0
 10
4.813300
 20
4.737111
 30
0.0
 10
4.470400
 20
4.737111
 30
0.0
 10
4.127500
 20
4.737111
 30
0.0
 10
4.127500
 20
3.930295
 30
0.0
 10
4.127500
 20
3.123478
 30
0.0
 10
3.797300
 20
2.794011
 30
0.0
 10
3.467100
 20
2.464543
 30
0.0
 10
3.467100
 20
1.238626
 30
0.0
 10
3.467100
 20
0.012711
 30
0.0
 10
4.470400
 20
0.012711
 30
0.0
 10
5.473700
 20
0.012711
 30
0.0
  0
LWPOLYLINE
  5
101
100
AcDbEntity
  8
0
 62
7
100
AcDbPolyline
 90
16
 70
1
 10
20.713700
 20
1.238626
 30
0.0
 10
20.713700
 20
2.464543
 30
0.0
 10
20.383500
 20
2.794011
 30
0.0
 10
20.053300
 20
3.123478
 30
0.0
 10
20.053300
 20
3.930295
 30
0.0
 10
20.053300
 20
4.737111
 30
0.0
 10
19.710400
 20
4.737111
 30
0.0
 10
19.367500
 20
4.737111
 30
0.0
 10
19.367500
 20
3.943009
 30
0.0
 10
19.367500
 20
3.148904
 30
0.0
 10
19.030950
 20
2.813061
 30
0.0
 10
18.694400
 20
2.477217
 30
0.0
 10
18.701226
 20
1.244962
 30
0.0
 10
18.708053
 20
0.012711
 30
0.0
 10
19.710876
 20
0.012711
 30
0.0
 10
20.713700
 20
0.012711
 30
0.0
  0
LWPOLYLINE
  5
102
100
AcDbEntity
  8
0
 62
7
100
AcDbPolyline
 90
16
 70
1
 10
35.934174
 20
1.248257
 30
0.0
 10
35.941000
 20
2.483818
 30
0.0
 10
35.604450
 20
2.807282
 30
0.0
 10
35.267900
 20
3.130743
 30
0.0
 10
35.267900
 20
3.933920
 30
0.0
 10
35.267900
 20
4.737100
 30
0.0
 10
34.925000
 20
4.737100
 30
0.0
 10
34.582100
 20
4.737100
 30
0.0
 10
34.582100
 20
3.930285
 30
0.0
 10
34.582100
 20
3.123467
 30
0.0
 10
34.251900
 20
2.794000
 30
0.0
 10
33.921700
 20
2.464533
 30
0.0
 10
33.921700
 20
1.238615
 30
0.0
 10
33.921700
 20
0.012700
 30
0.0
 10
34.924524
 20
0.012700
 30
0.0
 10
35.927348
 20
0.012700
 30
0.0
  0
LWPOLYLINE
  5
103
100
AcDbEntity
  8
0
 62
7
100
AcDbPolyline
 90
8
 70
1
 10
3.263900
 20
4.013211
 30
0.0
 10
3.263900
 20
4.737111
 30
0.0
 10
2.971800
 20
4.737111
 30
0.0
 10
2.679700
 20
4.737111
 30
0.0
 10
2.679700
 20
4.013211
 30
0.0
 10
2.679700
 20
3.289311
 30
0.0
 10
2.971800
 20
3.289311
 30
0.0
 10
3.263900
 20
3.289311
 30
0.0
  0
LWPOLYLINE
  5
104
100
AcDbEntity
  8
0
 62
7
100
AcDbPolyline
 90
8
 70
1
 10
6.261100
 20
4.013211
 30
0.0
 10
6.261100
 20
4.737111
 30
0.0
 10
5.969000
 20
4.737111
 30
0.0
 10
5.676900
 20
4.737111
 30
0.0
 10
5.676900
 20
4.013211
 30
0.0
 10
5.676900
 20
3.289311
 30
0.0
 10
5.969000
 20
3.289311
 30
0.0
 10
6.261100
 20
3.289311
 30
0.0
  0
LWPOLYLINE
  5
105
100
AcDbEntity
  8
0
 62
7
100
AcDbPolyline
 90
8
 70
1
 10
18.503900
 20
4.013211
 30
0.0
 10
18.503900
 20
4.737111
 30
0.0
 10
18.211800
 20
4.737111
 30
0.0
 10
17.919700
 20
4.737111
 30
0.0
 10
17.919700
 20
4.013211
 30
0.0
 10
17.919700
 20
3.289311
 30
0.0
 10
18.211800
 20
3.289311
 30
0.0
 10
18.503900
 20
3.289311
 30
0.0
  0
LWPOLYLINE
  5
106
100
AcDbEntity
  8
0
 62
7
100
AcDbPolyline
 90
8
 70
1
 10
21.501100
 20
4.013211
 30
0.0
 10
21.501100
 20
4.737111
 30
0.0
 10
21.209000
 20
4.737111
 30
0.0
 10
20.916900
 20
4.737111
 30
0.0
 10
20.916900
 20
4.013211
 30
0.0
 10
20.916900
 20
3.289311
 30
0.0
 10
21.209000
 20
3.289311
 30
0.0
 10
21.501100
 20
3.289311
 30
0.0
  0
LWPOLYLINE
  5
107
100
AcDbEntity
  8
0
 62
7
100
AcDbPolyline
 90
8
 70
1
 10
33.718500
 20
4.013211
 30
0.0
 10
33.718500
 20
4.737111
 30
0.0
 10
33.426400
 20
4.737111
 30
0.0
 10
33.134300
 20
4.737111
 30
0.0
 10
33.134300
 20
4.013211
 30
0.0
 10
33.134300
 20
3.289311
 30
0.0
 10
33.426400
 20
3.289311
 30
0.0
 10
33.718500
 20
3.289311
 30
0.0
  0
LWPOLYLINE
  5
108
100
AcDbEntity
  8
0
 62
7
100
AcDbPolyline
 90
8
 70
1
 10
36.715700
 20
4.013211
 30
0.0
 10
36.715700
 20
4.737111
 30
0.0
 10
36.423600
 20
4.737111
 30
0.0
 10
36.131500
 20
4.737111
 30
0.0
 10
36.131500
 20
4.013211
 30
0.0
 10
36.131500
 20
3.289311
 30
0.0
 10
36.423600
 20
3.289311
 30
0.0
 10
36.715700
 20
3.289311
 30
0.0
  0
LWPOLYLINE
  5
109
100
AcDbEntity
  8
0
 62
7
100
AcDbPolyline
 90
8
 70
1
 10
8.953500
 20
4.013211
 30
0.0
 10
8.953500
 20
4.660911
 30
0.0
 10
8.585200
 20
4.660911
 30
0.0
 10
8.216900
 20
4.660911
 30
0.0
 10
8.216900
 20
4.013211
 30
0.0
 10
8.216900
 20
3.365511
 30
0.0
 10
8.585200
 20
3.365511
 30
0.0
 10
8.953500
 20
3.365511
 30
0.0
  0
LWPOLYLINE
  5
10a
100
AcDbEntity
  8
0
 62
7
100
AcDbPolyline
 90
8
 70
1
 10
10.858500
 20
4.013211
 30
0.0
 10
10.858500
 20
4.660911
 30
0.0
 10
10.490200
 20
4.660911
 30
0.0
 10
10.121900
 20
4.660911
 30
0.0
 10
10.121900
 20
4.013211
 30
0.0
 10
10.121900
 20
3.365511
 30
0.0
 10
10.490200
 20
3.365511
 30
0.0
 10
10.858500
 20
3.365511
 30
0.0
  0
LWPOLYLINE
  5
10b
100
AcDbEntity
  8
0
 62
7
100
AcDbPolyline
 90
8
 70
1
 10
24.193500
 20
4.013211
 30
0.0
 10
24.193500
 20
4.660911
 30
0.0
 10
23.825200
 20
4.660911
 30
0.0
 10
23.456900
 20
4.660911
 30
0.0
 10
23.456900
 20
4.013211
 30
0.0
 10
23.456900
 20
3.365511
 30
0.0
 10
23.825200
 20
3.365511
 30
0.0
 10
24.193500
 20
3.365511
 30
0.0
  0
LWPOLYLINE
  5
10c
100
AcDbEntity
  8
0
 62
7
100
AcDbPolyline
 90
8
 70
1
 10
26.098500
 20
4.013211
 30
0.0
 10
26.098500
 20
4.660911
 30
0.0
 10
25.730200
 20
4.660911
 30
0.0
 10
25.361900
 20
4.660911
 30
0.0
 10
25.361900
 20
4.013211
 30
0.0
 10
25.361900
 20
3.365511
 30
0.0
 10
25.730200
 20
3.365511
 30
0.0
 10
26.098500
 20
3.365511
 30
0.0
  0
LWPOLYLINE
  5
10d
100
AcDbEntity
  8
0
 62
7
100
AcDbPolyline
 90
8
 70
1
 10
39.433500
 20
4.013211
 30
0.0
 10
39.433500
 20
4.660911
 30
0.0
 10
39.065200
 20
4.660911
 30
0.0
 10
38.696900
 20
4.660911
 30
0.0
 10
38.696900
 20
4.013211
 30
0.0
 10
38.696900
 20
3.365511
 30
0.0
 10
39.065200
 20
3.365511
 30
0.0
 10
39.433500
 20
3.365511
 30
0.0
  0
LWPOLYLINE
  5
10e
100
AcDbEntity
  8
0
 62
7
100
AcDbPolyline
 90
8
 70
1
 10
41.338500
 20
4.013211
 30
0.0
 10
41.338500
 20
4.660911
 30
0.0
 10
40.970200
 20
4.660911
 30
0.0
 10
40.601900
 20
4.660911
 30
0.0
 10
40.601900
 20
4.013211
 30
0.0
 10
40.601900
 20
3.365511
 30
0.0
 10
40.970200
 20
3.365511
 30
0.0
 10
41.338500
 20
3.365511
 30
0.0
  0
LWPOLYLINE
  5
10f
100
AcDbEntity
  8
0
 62
7
100
AcDbPolyline
 90
8
 70
1
 10
12.814300
 20
4.343411
 30
0.0
 10
12.814300
 20
4.762511
 30
0.0
 10
12.344400
 20
4.762511
 30
0.0
 10
11.874500
 20
4.762511
 30
0.0
 10
11.874500
 20
4.343411
 30
0.0
 10
11.874500
 20
3.924311
 30
0.0
 10
12.344400
 20
3.924311
 30
0.0
 10
12.814300
 20
3.924311
 30
0.0
  0
LWPOLYLINE
  5
110
100
AcDbEntity
  8
0
 62
7
100
AcDbPolyline
 90
8
 70
1
 10
28.054300
 20
4.343411
 30
0.0
 10
28.054300
 20
4.762511
 30
0.0
 10
27.584400
 20
4.762511
 30
0.0
 10
27.114500
 20
4.762511
 30
0.0
 10
27.114500
 20
4.343411
 30
0.0
 10
27.114500
 20
3.924311
 30
0.0
 10
27.584400
 20
3.924311
 30
0.0
 10
28.054300
 20
3.924311
 30
0.0
  0
LWPOLYLINE
  5
111
100
AcDbEntity
  8
0
 62
7
100
AcDbPolyline
 90
8
 70
1
 10
43.294300
 20
4.343411
 30
0.0
 10
43.294300
 20
4.762511
 30
0.0
 10
42.824400
 20
4.762511
 30
0.0
 10
42.354500
 20
4.762511
 30
0.0
 10
42.354500
 20
4.343411
 30
0.0
 10
42.354500
 20
3.924311
 30
0.0
 10
42.824400
 20
3.924311
 30
0.0
 10
43.294300
 20
3.924311
 30
0.0
  0
LWPOLYLINE
  5
112
100
AcDbEntity
  8
0
 62
7
100
AcDbPolyline
 90
8
 70
1
 10
14.820900
 20
5.283211
 30
0.0
 10
14.820900
 20
5.702311
 30
0.0
 10
14.351000
 20
5.702311
 30
0.0
 10
13.881100
 20
5.702311
 30
0.0
 10
13.881100
 20
5.283211
 30
0.0
 10
13.881100
 20
4.864111
 30
0.0
 10
14.351000
 20
4.864111
 30
0.0
 10
14.820900
 20
4.864111
 30
0.0
  0
LWPOLYLINE
  5
113
100
AcDbEntity
  8
0
 62
7
100
AcDbPolyline
 90
8
 70
1
 10
30.060900
 20
5.283211
 30
0.0
 10
30.060900
 20
5.702311
 30
0.0
 10
29.591000
 20
5.702311
 30
0.0
 10
29.121100
 20
5.702311
 30
0.0
 10
29.121100
 20
5.283211
 30
0.0
 10
29.121100
 20
4.864111
 30
0.0
 10
29.591000
 20
4.864111
 30
0.0
 10
30.060900
 20
4.864111
 30
0.0
  0
LWPOLYLINE
  5
114
100
AcDbEntity
  8
0
 62
7
100
AcDbPolyline
 90
8
 70
1
 10
45.275500
 20
5.283211
 30
0.0
 10
45.275500
 20
5.702311
 30
0.0
 10
44.805600
 20
5.702311
 30
0.0
 10
44.335700
 20
5.702311
 30
0.0
 10
44.335700
 20
5.283211
 30
0.0
 10
44.335700
 20
4.864111
 30
0.0
 10
44.805600
 20
4.864111
 30
0.0
 10
45.275500
 20
4.864111
 30
0.0
  0
LWPOLYLINE
  5
115
100
AcDbEntity
  8
0
 62
7
100
AcDbPolyline
 90
8
 70
1
 10
5.194300
 20
5.613411
 30
0.0
 10
5.194300
 20
6.032511
 30
0.0
 10
4.724400
 20
6.032511
 30
0.0
 10
4.254500
 20
6.032511
 30
0.0
 10
4.254500
 20
5.613411
 30
0.0
 10
4.254500
 20
5.194311
 30
0.0
 10
4.724400
 20
5.194311
 30
0.0
 10
5.194300
 20
5.194311
 30
0.0
  0
LWPOLYLINE
  5
116
100
AcDbEntity
  8
0
 62
7
100
AcDbPolyline
 90
8
 70
1
 10
20.434300
 20
5.613411
 30
0.0
 10
20.434300
 20
6.032511
 30
0.0
 10
19.964400
 20
6.032511
 30
0.0
 10
19.494500
 20
6.032511
 30
0.0
 10
19.494500
 20
5.613411
 30
0.0
 10
19.494500
 20
5.194311
 30
0.0
 10
19.964400
 20
5.194311
 30
0.0
 10
20.434300
 20
5.194311
 30
0.0
  0
LWPOLYLINE
  5
117
100
AcDbEntity
  8
0
 62
7
100
AcDbPolyline
 90
8
 70
1
 10
35.674300
 20
5.613411
 30
0.0
 10
35.674300
 20
6.032511
 30
0.0
 10
35.204400
 20
6.032511
 30
0.0
 10
34.734500
 20
6.032511
 30
0.0
 10
34.734500
 20
5.613411
 30
0.0
 10
34.734500
 20
5.194311
 30
0.0
 10
35.204400
 20
5.194311
 30
0.0
 10
35.674300
 20
5.194311
 30
0.0
  0
LWPOLYLINE
  5
118
100
AcDbEntity
  8
0
 62
7
100
AcDbPolyline
 90
8
 70
1
 10
1.308100
 20
5.588011
 30
0.0
 10
1.308100
 20
5.956311
 30
0.0
 10
0.660400
 20
5.956311
 30
0.0
 10
0.012700
 20
5.956311
 30
0.0
 10
0.012700
 20
5.588011
 30
0.0
 10
0.012700
 20
5.219711
 30
0.0
 10
0.660400
 20
5.219711
 30
0.0
 10
1.308100
 20
5.219711
 30
0.0
  0
LWPOLYLINE
  5
119
100
AcDbEntity
  8
0
 62
7
100
AcDbPolyline
 90
8
 70
1
 10
3.848100
 20
5.588011
 30
0.0
 10
3.848100
 20
5.956311
 30
0.0
 10
3.200400
 20
5.956311
 30
0.0
 10
2.552700
 20
5.956311
 30
0.0
 10
2.552700
 20
5.588011
 30
0.0
 10
2.552700
 20
5.219711
 30
0.0
 10
3.200400
 20
5.219711
 30
0.0
 10
3.848100
 20
5.219711
 30
0.0
  0
LWPOLYLINE
  5
11a
100
AcDbEntity
  8
0
 62
7
100
AcDbPolyline
 90
8
 70
1
 10
16.548100
 20
5.588011
 30
0.0
 10
16.548100
 20
5.956311
 30
0.0
 10
15.900400
 20
5.956311
 30
0.0
 10
15.252700
 20
5.956311
 30
0.0
 10
15.252700
 20
5.588011
 30
0.0
 10
15.252700
 20
5.219711
 30
0.0
 10
15.900400
 20
5.219711
 30
0.0
 10
16.548100
 20
5.219711
 30
0.0
  0
LWPOLYLINE
  5
11b
100
AcDbEntity
  8
0
 62
7
100
AcDbPolyline
 90
8
 70
1
 10
19.088100
 20
5.588011
 30
0.0
 10
19.088100
 20
5.956311
 30
0.0
 10
18.440400
 20
5.956311
 30
0.0
 10
17.792700
 20
5.956311
 30
0.0
 10
17.792700
 20
5.588011
 30
0.0
 10
17.792700
 20
5.219711
 30
0.0
 10
18.440400
 20
5.219711
 30
0.0
 10
19.088100
 20
5.219711
 30
0.0
  0
LWPOLYLINE
  5
11c
100
AcDbEntity
  8
0
 62
7
100
AcDbPolyline
 90
8
 70
1
 10
31.762700
 20
5.588011
 30
0.0
 10
31.762700
 20
5.956311
 30
0.0
 10
31.115000
 20
5.956311
 30
0.0
 10
30.467300
 20
5.956311
 30
0.0
 10
30.467300
 20
5.588011
 30
0.0
 10
30.467300
 20
5.219711
 30
0.0
 10
31.115000
 20
5.219711
 30
0.0
 10
31.762700
 20
5.219711
 30
0.0
  0
LWPOLYLINE
  5
11d
100
AcDbEntity
  8
0
 62
7
100
AcDbPolyline
 90
8
 70
1
 10
34.302700
 20
5.588011
 30
0.0
 10
34.302700
 20
5.956311
 30
0.0
 10
33.655000
 20
5.956311
 30
0.0
 10
33.007300
 20
5.956311
 30
0.0
 10
33.007300
 20
5.588011
 30
0.0
 10
33.007300
 20
5.219711
 30
0.0
 10
33.655000
 20
5.219711
 30
0.0
 10
34.302700
 20
5.219711
 30
0.0
  0
LWPOLYLINE
  5
11e
100
AcDbEntity
  8
0
 62
7
100
AcDbPolyline
 90
8
 70
1
 10
12.814300
 20
6.223011
 30
0.0
 10
12.814300
 20
6.642111
 30
0.0
 10
12.344400
 20
6.642111
 30
0.0
 10
11.874500
 20
6.642111
 30
0.0
 10
11.874500
 20
6.223011
 30
0.0
 10
11.874500
 20
5.803911
 30
0.0
 10
12.344400
 20
5.803911
 30
0.0
 10
12.814300
 20
5.803911
 30
0.0
  0
LWPOLYLINE
  5
11f
100
AcDbEntity
  8
0
 62
7
100
AcDbPolyline
 90
8
 70
1
 10
28.054300
 20
6.223011
 30
0.0
 10
28.054300
 20
6.642111
 30
0.0
 10
27.584400
 20
6.642111
 30
0.0
 10
27.114500
 20
6.642111
 30
0.0
 10
27.114500
 20
6.223011
 30
0.0
 10
27.114500
 20
5.803911
 30
0.0
 10
27.584400
 20
5.803911
 30
0.0
 10
28.054300
 20
5.803911
 30
0.0
  0
LWPOLYLINE
  5
120
100
AcDbEntity
  8
0
 62
7
100
AcDbPolyline
 90
8
 70
1
 10
43.294300
 20
6.223011
 30
0.0
 10
43.294300
 20
6.642111
 30
0.0
 10
42.824400
 20
6.642111
 30
0.0
 10
42.354500
 20
6.642111
 30
0.0
 10
42.354500
 20
6.223011
 30
0.0
 10
42.354500
 20
5.803911
 30
0.0
 10
42.824400
 20
5.803911
 30
0.0
 10
43.294300
 20
5.803911
 30
0.0
  0
LWPOLYLINE
  5
121
100
AcDbEntity
  8
0
 62
7
100
AcDbPolyline
 90
8
 70
1
 10
8.953500
 20
6.553211
 30
0.0
 10
8.953500
 20
7.200911
 30
0.0
 10
8.585200
 20
7.200911
 30
0.0
 10
8.216900
 20
7.200911
 30
0.0
 10
8.216900
 20
6.553211
 30
0.0
 10
8.216900
 20
5.905511
 30
0.0
 10
8.585200
 20
5.905511
 30
0.0
 10
8.953500
 20
5.905511
 30
0.0
  0
LWPOLYLINE
  5
122
100
AcDbEntity
  8
0
 62
7
100
AcDbPolyline
 90
8
 70
1
 10
10.858500
 20
6.553211
 30
0.0
 10
10.858500
 20
7.200911
 30
0.0
 10
10.490200
 20
7.200911
 30
0.0
 10
10.121900
 20
7.200911
 30
0.0
 10
10.121900
 20
6.553211
 30
0.0
 10
10.121900
 20
5.905511
 30
0.0
 10
10.490200
 20
5.905511
 30
0.0
 10
10.858500
 20
5.905511
 30
0.0
  0
LWPOLYLINE
  5
123
100
AcDbEntity
  8
0
 62
7
100
AcDbPolyline
 90
8
 70
1
 10
24.193500
 20
6.553211
 30
0.0
 10
24.193500
 20
7.200911
 30
0.0
 10
23.825200
 20
7.200911
 30
0.0
 10
23.456900
 20
7.200911
 30
0.0
 10
23.456900
 20
6.553211
 30
0.0
 10
23.456900
 20
5.905511
 30
0.0
 10
23.825200
 20
5.905511
 30
0.0
 10
24.193500
 20
5.905511
 30
0.0
  0
LWPOLYLINE
  5
124
100
AcDbEntity
  8
0
 62
7
100
AcDbPolyline
 90
8
 70
1
 10
26.098500
 20
6.553211
 30
0.0
 10
26.098500
 20
7.200911
 30
0.0
 10
25.730200
 20
7.200911
 30
0.0
 10
25.361900
 20
7.200911
 30
0.0
 10
25.361900
 20
6.553211
 30
0.0
 10
25.361900
 20
5.905511
 30
0.0
 10
25.730200
 20
5.905511
 30
0.0
 10
26.098500
 20
5.905511
 30
0.0
  0
LWPOLYLINE
  5
125
100
AcDbEntity
  8
0
 62
7
100
AcDbPolyline
 90
8
 70
1
 10
39.433500
 20
6.553211
 30
0.0
 10
39.433500
 20
7.200911
 30
0.0
 10
39.065200
 20
7.200911
 30
0.0
 10
38.696900
 20
7.200911
 30
0.0
 10
38.696900
 20
6.553211
 30
0.0
 10
38.696900
 20
5.905511
 30
0.0
 10
39.065200
 20
5.905511
 30
0.0
 10
39.433500
 20
5.905511
 30
0.0
  0
LWPOLYLINE
  5
126
100
AcDbEntity
  8
0
 62
7
100
AcDbPolyline
 90
8
 70
1
 10
41.338500
 20
6.553211
 30
0.0
 10
41.338500
 20
7.200911
 30
0.0
 10
40.970200
 20
7.200911
 30
0.0
 10
40.601900
 20
7.200911
 30
0.0
 10
40.601900
 20
6.553211
 30
0.0
 10
40.601900
 20
5.905511
 30
0.0
 10
40.970200
 20
5.905511
 30
0.0
 10
41.338500
 20
5.905511
 30
0.0
  0
LWPOLYLINE
  5
127
100
AcDbEntity
  8
0
 62
7
100
AcDbPolyline
 90
8
 70
1
 10
7.200900
 20
6.553211
 30
0.0
 10
7.200900
 20
6.972311
 30
0.0
 10
6.731000
 20
6.972311
 30
0.0
 10
6.261100
 20
6.972311
 30
0.0
 10
6.261100
 20
6.553211
 30
0.0
 10
6.261100
 20
6.134111
 30
0.0
 10
6.731000
 20
6.134111
 30
0.0
 10
7.200900
 20
6.134111
 30
0.0
  0
LWPOLYLINE
  5
128
100
AcDbEntity
  8
0
 62
7
100
AcDbPolyline
 90
8
 70
1
 10
22.440900
 20
6.553211
 30
0.0
 10
22.440900
 20
6.972311
 30
0.0
 10
21.971000
 20
6.972311
 30
0.0
 10
21.501100
 20
6.972311
 30
0.0
 10
21.501100
 20
6.553211
 30
0.0
 10
21.501100
 20
6.134111
 30
0.0
 10
21.971000
 20
6.134111
 30
0.0
 10
22.440900
 20
6.134111
 30
0.0
  0
LWPOLYLINE
  5
129
100
AcDbEntity
  8
0
 62
7
100
AcDbPolyline
 90
8
 70
1
 10
37.680900
 20
6.553211
 30
0.0
 10
37.680900
 20
6.972311
 30
0.0
 10
37.211000
 20
6.972311
 30
0.0
 10
36.741100
 20
6.972311
 30
0.0
 10
36.741100
 20
6.553211
 30
0.0
 10
36.741100
 20
6.134111
 30
0.0
 10
37.211000
 20
6.134111
 30
0.0
 10
37.680900
 20
6.134111
 30
0.0
  0
LWPOLYLINE
  5
12a
100
AcDbEntity
  8
0
 62
7
100
AcDbPolyline
 90
8
 70
1
 10
5.194300
 20
7.493011
 30
0.0
 10
5.194300
 20
7.912111
 30
0.0
 10
4.724400
 20
7.912111
 30
0.0
 10
4.254500
 20
7.912111
 30
0.0
 10
4.254500
 20
7.493011
 30
0.0
 10
4.254500
 20
7.073911
 30
0.0
 10
4.724400
 20
7.073911
 30
0.0
 10
5.194300
 20
7.073911
 30
0.0
  0
LWPOLYLINE
  5
12b
100
AcDbEntity
  8
0
 62
7
100
AcDbPolyline
 90
8
 70
1
 10
20.434300
 20
7.493011
 30
0.0
 10
20.434300
 20
7.912111
 30
0.0
 10
19.964400
 20
7.912111
 30
0.0
 10
19.494500
 20
7.912111
 30
0.0
 10
19.494500
 20
7.493011
 30
0.0
 10
19.494500
 20
7.073911
 30
0.0
 10
19.964400
 20
7.073911
 30
0.0
 10
20.434300
 20
7.073911
 30
0.0
  0
LWPOLYLINE
  5
12c
100
AcDbEntity
  8
0
 62
7
100
AcDbPolyline
 90
8
 70
1
 10
35.674300
 20
7.493011
 30
0.0
 10
35.674300
 20
7.912111
 30
0.0
 10
35.204400
 20
7.912111
 30
0.0
 10
34.734500
 20
7.912111
 30
0.0
 10
34.734500
 20
7.493011
 30
0.0
 10
34.734500
 20
7.073911
 30
0.0
 10
35.204400
 20
7.073911
 30
0.0
 10
35.674300
 20
7.073911
 30
0.0
  0
LWPOLYLINE
  5
12d
100
AcDbEntity
  8
0
 62
7
100
AcDbPolyline
 90
8
 70
1
 10
1.308100
 20
7.493011
 30
0.0
 10
1.308100
 20
7.861311
 30
0.0
 10
0.660400
 20
7.861311
 30
0.0
 10
0.012700
 20
7.861311
 30
0.0
 10
0.012700
 20
7.493011
 30
0.0
 10
0.012700
 20
7.124711
 30
0.0
 10
0.660400
 20
7.124711
 30
0.0
 10
1.308100
 20
7.124711
 30
0.0
  0
LWPOLYLINE
  5
12e
100
AcDbEntity
  8
0
 62
7
100
AcDbPolyline
 90
8
 70
1
 10
3.848100
 20
7.493011
 30
0.0
 10
3.848100
 20
7.861311
 30
0.0
 10
3.200400
 20
7.861311
 30
0.0
 10
2.552700
 20
7.861311
 30
0.0
 10
2.552700
 20
7.493011
 30
0.0
 10
2.552700
 20
7.124711
 30
0.0
 10
3.200400
 20
7.124711
 30
0.0
 10
3.848100
 20
7.124711
 30
0.0
  0
LWPOLYLINE
  5
12f
100
AcDbEntity
  8
0
 62
7
100
AcDbPolyline
 90
8
 70
1
 10
16.548100
 20
7.493011
 30
0.0
 10
16.548100
 20
7.861311
 30
0.0
 10
15.900400
 20
7.861311
 30
0.0
 10
15.252700
 20
7.861311
 30
0.0
 10
15.252700
 20
7.493011
 30
0.0
 10
15.252700
 20
7.124711
 30
0.0
 10
15.900400
 20
7.124711
 30
0.0
 10
16.548100
 20
7.124711
 30
0.0
  0
LWPOLYLINE
  5
130
100
AcDbEntity
  8
0
 62
7
100
AcDbPolyline
 90
8
 70
1
 10
19.088100
 20
7.493011
 30
0.0
 10
19.088100
 20
7.861311
 30
0.0
 10
18.440400
 20
7.861311
 30
0.0
 10
17.792700
 20
7.861311
 30
0.0
 10
17.792700
 20
7.493011
 30
0.0
 10
17.792700
 20
7.124711
 30
0.0
 10
18.440400
 20
7.124711
 30
0.0
 10
19.088100
 20
7.124711
 30
0.0
  0
LWPOLYLINE
  5
131
100
AcDbEntity
  8
0
 62
7
100
AcDbPolyline
 90
8
 70
1
 10
31.762700
 20
7.493011
 30
0.0
 10
31.762700
 20
7.861311
 30
0.0
 10
31.115000
 20
7.861311
 30
0.0
 10
30.467300
 20
7.861311
 30
0.0
 10
30.467300
 20
7.493011
 30
0.0
 10
30.467300
 20
7.124711
 30
0.0
 10
31.115000
 20
7.124711
 30
0.0
 10
31.762700
 20
7.124711
 30
0.0
  0
LWPOLYLINE
  5
132
100
AcDbEntity
  8
0
 62
7
100
AcDbPolyline
 90
8
 70
1
 10
34.302700
 20
7.493011
 30
0.0
 10
34.302700
 20
7.861311
 30
0.0
 10
33.655000
 20
7.861311
 30
0.0
 10
33.007300
 20
7.861311
 30
0.0
 10
33.007300
 20
7.493011
 30
0.0
 10
33.007300
 20
7.124711
 30
0.0
 10
33.655000
 20
7.124711
 30
0.0
 10
34.302700
 20
7.124711
 30
0.0
  0
LWPOLYLINE
  5
133
100
AcDbEntity
  8
0
 62
7
100
AcDbPolyline
 90
8
 70
1
 10
36.893500
 20
21.793211
 30
0.0
 10
36.893500
 20
22.440911
 30
0.0
 10
36.525200
 20
22.440911
 30
0.0
 10
36.156900
 20
22.440911
 30
0.0
 10
36.156900
 20
21.793211
 30
0.0
 10
36.156900
 20
21.145511
 30
0.0
 10
36.525200
 20
21.145511
 30
0.0
 10
36.893500
 20
21.145511
 30
0.0
  0
LWPOLYLINE
  5
134
100
AcDbEntity
  8
0
 62
7
100
AcDbPolyline
 90
8
 70
1
 10
38.798500
 20
21.793211
 30
0.0
 10
38.798500
 20
22.440911
 30
0.0
 10
38.430200
 20
22.440911
 30
0.0
 10
38.061900
 20
22.440911
 30
0.0
 10
38.061900
 20
21.793211
 30
0.0
 10
38.061900
 20
21.145511
 30
0.0
 10
38.430200
 20
21.145511
 30
0.0
 10
38.798500
 20
21.145511
 30
0.0
  0
LWPOLYLINE
  5
135
100
AcDbEntity
  8
0
 62
7
100
AcDbPolyline
 90
8
 70
1
 10
36.893500
 20
24.333211
 30
0.0
 10
36.893500
 20
24.980911
 30
0.0
 10
36.525200
 20
24.980911
 30
0.0
 10
36.156900
 20
24.980911
 30
0.0
 10
36.156900
 20
24.333211
 30
0.0
 10
36.156900
 20
23.685511
 30
0.0
 10
36.525200
 20
23.685511
 30
0.0
 10
36.893500
 20
23.685511
 30
0.0
  0
LWPOLYLINE
  5
136
100
AcDbEntity
  8
0
 62
7
100
AcDbPolyline
 90
8
 70
1
 10
38.798500
 20
24.333211
 30
0.0
 10
38.798500
 20
24.980911
 30
0.0
 10
38.430200
 20
24.980911
 30
0.0
 10
38.061900
 20
24.980911
 30
0.0
 10
38.061900
 20
24.333211
 30
0.0
 10
38.061900
 20
23.685511
 30
0.0
 10
38.430200
 20
23.685511
 30
0.0
 10
38.798500
 20
23.685511
 30
0.0
  0
LWPOLYLINE
  5
137
100
AcDbEntity
  8
0
 62
7
100
AcDbPolyline
 90
8
 70
1
 10
40.728900
 20
24.104611
 30
0.0
 10
40.728900
 20
24.396711
 30
0.0
 10
40.005000
 20
24.396711
 30
0.0
 10
39.281100
 20
24.396711
 30
0.0
 10
39.281100
 20
24.104611
 30
0.0
 10
39.281100
 20
23.812511
 30
0.0
 10
40.005000
 20
23.812511
 30
0.0
 10
40.728900
 20
23.812511
 30
0.0
  0
LWPOLYLINE
  5
138
100
AcDbEntity
  8
0
 62
7
100
AcDbPolyline
 90
16
 70
1
 10
44.005500
 20
25.603211
 30
0.0
 10
44.005500
 20
26.606511
 30
0.0
 10
42.779585
 20
26.606511
 30
0.0
 10
41.553667
 20
26.606511
 30
0.0
 10
41.224200
 20
26.276311
 30
0.0
 10
40.894733
 20
25.946111
 30
0.0
 10
40.100615
 20
25.946111
 30
0.0
 10
39.306500
 20
25.946111
 30
0.0
 10
39.306500
 20
25.603211
 30
0.0
 10
39.306500
 20
25.260311
 30
0.0
 10
40.100615
 20
25.260311
 30
0.0
 10
40.894733
 20
25.260311
 30
0.0
 10
41.224200
 20
24.930111
 30
0.0
 10
41.553667
 20
24.599911
 30
0.0
 10
42.779585
 20
24.599911
 30
0.0
 10
44.005500
 20
24.599911
 30
0.0
  0
LWPOLYLINE
  5
139
100
AcDbEntity
  8
0
 62
7
100
AcDbPolyline
 90
8
 70
1
 10
36.944300
 20
25.882611
 30
0.0
 10
36.944300
 20
26.352511
 30
0.0
 10
36.525200
 20
26.352511
 30
0.0
 10
36.106100
 20
26.352511
 30
0.0
 10
36.106100
 20
25.882611
 30
0.0
 10
36.106100
 20
25.412711
 30
0.0
 10
36.525200
 20
25.412711
 30
0.0
 10
36.944300
 20
25.412711
 30
0.0
  0
LWPOLYLINE
  5
13a
100
AcDbEntity
  8
0
 62
7
100
AcDbPolyline
 90
8
 70
1
 10
38.849300
 20
25.882611
 30
0.0
 10
38.849300
 20
26.352511
 30
0.0
 10
38.430200
 20
26.352511
 30
0.0
 10
38.011100
 20
26.352511
 30
0.0
 10
38.011100
 20
25.882611
 30
0.0
 10
38.011100
 20
25.412711
 30
0.0
 10
38.430200
 20
25.412711
 30
0.0
 10
38.849300
 20
25.412711
 30
0.0
  0
LWPOLYLINE
  5
13b
100
AcDbEntity
  8
0
 62
7
100
AcDbPolyline
 90
8
 70
1
 10
40.728900
 20
27.101811
 30
0.0
 10
40.728900
 20
27.393911
 30
0.0
 10
40.005000
 20
27.393911
 30
0.0
 10
39.281100
 20
27.393911
 30
0.0
 10
39.281100
 20
27.101811
 30
0.0
 10
39.281100
 20
26.809711
 30
0.0
 10
40.005000
 20
26.809711
 30
0.0
 10
40.728900
 20
26.809711
 30
0.0
  0
LWPOLYLINE
  5
13c
100
AcDbEntity
  8
0
 62
7
100
AcDbPolyline
 90
8
 70
1
 10
37.884100
 20
27.863811
 30
0.0
 10
37.884100
 20
28.333711
 30
0.0
 10
37.465000
 20
28.333711
 30
0.0
 10
37.045900
 20
28.333711
 30
0.0
 10
37.045900
 20
27.863811
 30
0.0
 10
37.045900
 20
27.393911
 30
0.0
 10
37.465000
 20
27.393911
 30
0.0
 10
37.884100
 20
27.393911
 30
0.0
  0
LWPOLYLINE
  5
13d
100
AcDbEntity
  8
0
 62
7
100
AcDbPolyline
 90
8
 70
1
 10
38.112700
 20
29.718011
 30
0.0
 10
38.112700
 20
30.086311
 30
0.0
 10
37.465000
 20
30.086311
 30
0.0
 10
36.817300
 20
30.086311
 30
0.0
 10
36.817300
 20
29.718011
 30
0.0
 10
36.817300
 20
29.349711
 30
0.0
 10
37.465000
 20
29.349711
 30
0.0
 10
38.112700
 20
29.349711
 30
0.0
  0
LWPOLYLINE
  5
13e
100
AcDbEntity
  8
0
 62
7
100
AcDbPolyline
 90
8
 70
1
 10
40.652700
 20
29.718011
 30
0.0
 10
40.652700
 20
30.086311
 30
0.0
 10
40.005000
 20
30.086311
 30
0.0
 10
39.357300
 20
30.086311
 30
0.0
 10
39.357300
 20
29.718011
 30
0.0
 10
39.357300
 20
29.349711
 30
0.0
 10
40.005000
 20
29.349711
 30
0.0
 10
40.652700
 20
29.349711
 30
0.0
  0
LWPOLYLINE
  5
13f
100
AcDbEntity
  8
0
 62
7
100
AcDbPolyline
 90
8
 70
1
 10
38.112700
 20
31.623011
 30
0.0
 10
38.112700
 20
31.991311
 30
0.0
 10
37.465000
 20
31.991311
 30
0.0
 10
36.817300
 20
31.991311
 30
0.0
 10
36.817300
 20
31.623011
 30
0.0
 10
36.817300
 20
31.254711
 30
0.0
 10
37.465000
 20
31.254711
 30
0.0
 10
38.112700
 20
31.254711
 30
0.0
  0
LWPOLYLINE
  5
140
100
AcDbEntity
  8
0
 62
7
100
AcDbPolyline
 90
8
 70
1
 10
40.652700
 20
31.623011
 30
0.0
 10
40.652700
 20
31.991311
 30
0.0
 10
40.005000
 20
31.991311
 30
0.0
 10
39.357300
 20
31.991311
 30
0.0
 10
39.357300
 20
31.623011
 30
0.0
 10
39.357300
 20
31.254711
 30
0.0
 10
40.005000
 20
31.254711
 30
0.0
 10
40.652700
 20
31.254711
 30
0.0
  0
LWPOLYLINE
  5
141
100
AcDbEntity
  8
0
 62
7
100
AcDbPolyline
 90
8
 70
1
 10
38.214300
 20
33.502611
 30
0.0
 10
38.214300
 20
33.972511
 30
0.0
 10
37.795200
 20
33.972511
 30
0.0
 10
37.376100
 20
33.972511
 30
0.0
 10
37.376100
 20
33.502611
 30
0.0
 10
37.376100
 20
33.032711
 30
0.0
 10
37.795200
 20
33.032711
 30
0.0
 10
38.214300
 20
33.032711
 30
0.0
  0
LWPOLYLINE
  5
142
100
AcDbEntity
  8
0
 62
7
100
AcDbPolyline
 90
8
 70
1
 10
40.119300
 20
33.502611
 30
0.0
 10
40.119300
 20
33.972511
 30
0.0
 10
39.700200
 20
33.972511
 30
0.0
 10
39.281100
 20
33.972511
 30
0.0
 10
39.281100
 20
33.502611
 30
0.0
 10
39.281100
 20
33.032711
 30
0.0
 10
39.700200
 20
33.032711
 30
0.0
 10
40.119300
 20
33.032711
 30
0.0
  0
LWPOLYLINE
  5
143
100
AcDbEntity
  8
0
 62
7
100
AcDbPolyline
 90
8
 70
1
 10
39.154100
 20
35.483811
 30
0.0
 10
39.154100
 20
35.953711
 30
0.0
 10
38.735000
 20
35.953711
 30
0.0
 10
38.315900
 20
35.953711
 30
0.0
 10
38.315900
 20
35.483811
 30
0.0
 10
38.315900
 20
35.013911
 30
0.0
 10
38.735000
 20
35.013911
 30
0.0
 10
39.154100
 20
35.013911
 30
0.0
  0
LWPOLYLINE
  5
144
100
AcDbEntity
  8
0
 62
7
100
AcDbPolyline
 90
8
 70
1
 10
33.134300
 20
52.552611
 30
0.0
 10
33.134300
 20
53.022511
 30
0.0
 10
32.715200
 20
53.022511
 30
0.0
 10
32.296100
 20
53.022511
 30
0.0
 10
32.296100
 20
52.552611
 30
0.0
 10
32.296100
 20
52.082711
 30
0.0
 10
32.715200
 20
52.082711
 30
0.0
 10
33.134300
 20
52.082711
 30
0.0
  0
LWPOLYLINE
  5
145
100
AcDbEntity
  8
0
 62
7
100
AcDbPolyline
 90
8
 70
1
 10
35.039300
 20
52.552611
 30
0.0
 10
35.039300
 20
53.022511
 30
0.0
 10
34.620200
 20
53.022511
 30
0.0
 10
34.201100
 20
53.022511
 30
0.0
 10
34.201100
 20
52.552611
 30
0.0
 10
34.201100
 20
52.082711
 30
0.0
 10
34.620200
 20
52.082711
 30
0.0
 10
35.039300
 20
52.082711
 30
0.0
  0
LWPOLYLINE
  5
146
100
AcDbEntity
  8
0
 62
7
100
AcDbPolyline
 90
8
 70
1
 10
34.074100
 20
54.533811
 30
0.0
 10
34.074100
 20
55.003711
 30
0.0
 10
33.655000
 20
55.003711
 30
0.0
 10
33.235900
 20
55.003711
 30
0.0
 10
33.235900
 20
54.533811
 30
0.0
 10
33.235900
 20
54.063911
 30
0.0
 10
33.655000
 20
54.063911
 30
0.0
 10
34.074100
 20
54.063911
 30
0.0
  0
LWPOLYLINE
  5
147
100
AcDbEntity
  8
0
 62
7
100
AcDbPolyline
 90
8
 70
1
 10
34.302700
 20
56.388011
 30
0.0
 10
34.302700
 20
56.756311
 30
0.0
 10
33.655000
 20
56.756311
 30
0.0
 10
33.007300
 20
56.756311
 30
0.0
 10
33.007300
 20
56.388011
 30
0.0
 10
33.007300
 20
56.019711
 30
0.0
 10
33.655000
 20
56.019711
 30
0.0
 10
34.302700
 20
56.019711
 30
0.0
  0
LWPOLYLINE
  5
148
100
AcDbEntity
  8
0
 62
7
100
AcDbPolyline
 90
8
 70
1
 10
34.302700
 20
58.293011
 30
0.0
 10
34.302700
 20
58.661311
 30
0.0
 10
33.655000
 20
58.661311
 30
0.0
 10
33.007300
 20
58.661311
 30
0.0
 10
33.007300
 20
58.293011
 30
0.0
 10
33.007300
 20
57.924711
 30
0.0
 10
33.655000
 20
57.924711
 30
0.0
 10
34.302700
 20
57.924711
 30
0.0
  0
LWPOLYLINE
  5
149
100
AcDbEntity
  8
0
 62
7
100
AcDbPolyline
 90
8
 70
1
 10
30.543500
 20
59.893211
 30
0.0
 10
30.543500
 20
60.540911
 30
0.0
 10
30.175200
 20
60.540911
 30
0.0
 10
29.806900
 20
60.540911
 30
0.0
 10
29.806900
 20
59.893211
 30
0.0
 10
29.806900
 20
59.245511
 30
0.0
 10
30.175200
 20
59.245511
 30
0.0
 10
30.543500
 20
59.245511
 30
0.0
  0
LWPOLYLINE
  5
14a
100
AcDbEntity
  8
0
 62
7
100
AcDbPolyline
 90
8
 70
1
 10
32.448500
 20
59.893211
 30
0.0
 10
32.448500
 20
60.540911
 30
0.0
 10
32.080200
 20
60.540911
 30
0.0
 10
31.711900
 20
60.540911
 30
0.0
 10
31.711900
 20
59.893211
 30
0.0
 10
31.711900
 20
59.245511
 30
0.0
 10
32.080200
 20
59.245511
 30
0.0
 10
32.448500
 20
59.245511
 30
0.0
  0
LWPOLYLINE
  5
14b
100
AcDbEntity
  8
0
 62
7
100
AcDbPolyline
 90
8
 70
1
 10
30.543500
 20
62.433211
 30
0.0
 10
30.543500
 20
63.080911
 30
0.0
 10
30.175200
 20
63.080911
 30
0.0
 10
29.806900
 20
63.080911
 30
0.0
 10
29.806900
 20
62.433211
 30
0.0
 10
29.806900
 20
61.785511
 30
0.0
 10
30.175200
 20
61.785511
 30
0.0
 10
30.543500
 20
61.785511
 30
0.0
  0
LWPOLYLINE
  5
14c
100
AcDbEntity
  8
0
 62
7
100
AcDbPolyline
 90
8
 70
1
 10
32.448500
 20
62.433211
 30
0.0
 10
32.448500
 20
63.080911
 30
0.0
 10
32.080200
 20
63.080911
 30
0.0
 10
31.711900
 20
63.080911
 30
0.0
 10
31.711900
 20
62.433211
 30
0.0
 10
31.711900
 20
61.785511
 30
0.0
 10
32.080200
 20
61.785511
 30
0.0
 10
32.448500
 20
61.785511
 30
0.0
  0
LWPOLYLINE
  5
14d
100
AcDbEntity
  8
0
 62
7
100
AcDbPolyline
 90
8
 70
1
 10
30.543500
 20
70.053211
 30
0.0
 10
30.543500
 20
70.700911
 30
0.0
 10
30.175200
 20
70.700911
 30
0.0
 10
29.806900
 20
70.700911
 30
0.0
 10
29.806900
 20
70.053211
 30
0.0
 10
29.806900
 20
69.405511
 30
0.0
 10
30.175200
 20
69.405511
 30
0.0
 10
30.543500
 20
69.405511
 30
0.0
  0
LWPOLYLINE
  5
14e
100
AcDbEntity
  8
0
 62
7
100
AcDbPolyline
 90
8
 70
1
 10
32.448500
 20
70.053211
 30
0.0
 10
32.448500
 20
70.700911
 30
0.0
 10
32.080200
 20
70.700911
 30
0.0
 10
31.711900
 20
70.700911
 30
0.0
 10
31.711900
 20
70.053211
 30
0.0
 10
31.711900
 20
69.405511
 30
0.0
 10
32.080200
 20
69.405511
 30
0.0
 10
32.448500
 20
69.405511
 30
0.0
  0
LWPOLYLINE
  5
14f
100
AcDbEntity
  8
0
 62
7
100
AcDbPolyline
 90
8
 70
1
 10
35.623500
 20
70.053211
 30
0.0
 10
35.623500
 20
70.700911
 30
0.0
 10
35.255200
 20
70.700911
 30
0.0
 10
34.886900
 20
70.700911
 30
0.0
 10
34.886900
 20
70.053211
 30
0.0
 10
34.886900
 20
69.405511
 30
0.0
 10
35.255200
 20
69.405511
 30
0.0
 10
35.623500
 20
69.405511
 30
0.0
  0
LWPOLYLINE
  5
150
100
AcDbEntity
  8
0
 62
7
100
AcDbPolyline
 90
8
 70
1
 10
37.528500
 20
70.053211
 30
0.0
 10
37.528500
 20
70.700911
 30
0.0
 10
37.160200
 20
70.700911
 30
0.0
 10
36.791900
 20
70.700911
 30
0.0
 10
36.791900
 20
70.053211
 30
0.0
 10
36.791900
 20
69.405511
 30
0.0
 10
37.160200
 20
69.405511
 30
0.0
 10
37.528500
 20
69.405511
 30
0.0
  0
LWPOLYLINE
  5
151
100
AcDbEntity
  8
0
 62
7
100
AcDbPolyline
 90
8
 70
1
 10
3.848100
 20
75.438011
 30
0.0
 10
3.848100
 20
75.806311
 30
0.0
 10
3.200400
 20
75.806311
 30
0.0
 10
2.552700
 20
75.806311
 30
0.0
 10
2.552700
 20
75.438011
 30
0.0
 10
2.552700
 20
75.069711
 30
0.0
 10
3.200400
 20
75.069711
 30
0.0
 10
3.848100
 20
75.069711
 30
0.0
  0
LWPOLYLINE
  5
152
100
AcDbEntity
  8
0
 62
7
100
AcDbPolyline
 90
8
 70
1
 10
6.388100
 20
75.438011
 30
0.0
 10
6.388100
 20
75.806311
 30
0.0
 10
5.740400
 20
75.806311
 30
0.0
 10
5.092700
 20
75.806311
 30
0.0
 10
5.092700
 20
75.438011
 30
0.0
 10
5.092700
 20
75.069711
 30
0.0
 10
5.740400
 20
75.069711
 30
0.0
 10
6.388100
 20
75.069711
 30
0.0
  0
LWPOLYLINE
  5
153
100
AcDbEntity
  8
0
 62
7
100
AcDbPolyline
 90
8
 70
1
 10
8.928100
 20
75.438011
 30
0.0
 10
8.928100
 20
75.806311
 30
0.0
 10
8.280400
 20
75.806311
 30
0.0
 10
7.632700
 20
75.806311
 30
0.0
 10
7.632700
 20
75.438011
 30
0.0
 10
7.632700
 20
75.069711
 30
0.0
 10
8.280400
 20
75.069711
 30
0.0
 10
8.928100
 20
75.069711
 30
0.0
  0
LWPOLYLINE
  5
154
100
AcDbEntity
  8
0
 62
7
100
AcDbPolyline
 90
8
 70
1
 10
11.468100
 20
75.438011
 30
0.0
 10
11.468100
 20
75.806311
 30
0.0
 10
10.820400
 20
75.806311
 30
0.0
 10
10.172700
 20
75.806311
 30
0.0
 10
10.172700
 20
75.438011
 30
0.0
 10
10.172700
 20
75.069711
 30
0.0
 10
10.820400
 20
75.069711
 30
0.0
 10
11.468100
 20
75.069711
 30
0.0
  0
LWPOLYLINE
  5
155
100
AcDbEntity
  8
0
 62
7
100
AcDbPolyline
 90
8
 70
1
 10
3.848100
 20
77.343011
 30
0.0
 10
3.848100
 20
77.711311
 30
0.0
 10
3.200400
 20
77.711311
 30
0.0
 10
2.552700
 20
77.711311
 30
0.0
 10
2.552700
 20
77.343011
 30
0.0
 10
2.552700
 20
76.974711
 30
0.0
 10
3.200400
 20
76.974711
 30
0.0
 10
3.848100
 20
76.974711
 30
0.0
  0
LWPOLYLINE
  5
156
100
AcDbEntity
  8
0
 62
7
100
AcDbPolyline
 90
8
 70
1
 10
6.388100
 20
77.343011
 30
0.0
 10
6.388100
 20
77.711311
 30
0.0
 10
5.740400
 20
77.711311
 30
0.0
 10
5.092700
 20
77.711311
 30
0.0
 10
5.092700
 20
77.343011
 30
0.0
 10
5.092700
 20
76.974711
 30
0.0
 10
5.740400
 20
76.974711
 30
0.0
 10
6.388100
 20
76.974711
 30
0.0
  0
LWPOLYLINE
  5
157
100
AcDbEntity
  8
0
 62
7
100
AcDbPolyline
 90
8
 70
1
 10
8.928100
 20
77.343011
 30
0.0
 10
8.928100
 20
77.711311
 30
0.0
 10
8.280400
 20
77.711311
 30
0.0
 10
7.632700
 20
77.711311
 30
0.0
 10
7.632700
 20
77.343011
 30
0.0
 10
7.632700
 20
76.974711
 30
0.0
 10
8.280400
 20
76.974711
 30
0.0
 10
8.928100
 20
76.974711
 30
0.0
  0
LWPOLYLINE
  5
158
100
AcDbEntity
  8
0
 62
7
100
AcDbPolyline
 90
8
 70
1
 10
11.468100
 20
77.343011
 30
0.0
 10
11.468100
 20
77.711311
 30
0.0
 10
10.820400
 20
77.711311
 30
0.0
 10
10.172700
 20
77.711311
 30
0.0
 10
10.172700
 20
77.343011
 30
0.0
 10
10.172700
 20
76.974711
 30
0.0
 10
10.820400
 20
76.974711
 30
0.0
 10
11.468100
 20
76.974711
 30
0.0
  0
LWPOLYLINE
  5
159
100
AcDbEntity
  8
0
 62
7
100
AcDbPolyline
 90
8
 70
1
 10
40.703500
 20
85.293211
 30
0.0
 10
40.703500
 20
85.940911
 30
0.0
 10
40.335200
 20
85.940911
 30
0.0
 10
39.966900
 20
85.940911
 30
0.0
 10
39.966900
 20
85.293211
 30
0.0
 10
39.966900
 20
84.645511
 30
0.0
 10
40.335200
 20
84.645511
 30
0.0
 10
40.703500
 20
84.645511
 30
0.0
  0
LWPOLYLINE
  5
15a
100
AcDbEntity
  8
0
 62
7
100
AcDbPolyline
 90
8
 70
1
 10
42.608500
 20
85.293211
 30
0.0
 10
42.608500
 20
85.940911
 30
0.0
 10
42.240200
 20
85.940911
 30
0.0
 10
41.871900
 20
85.940911
 30
0.0
 10
41.871900
 20
85.293211
 30
0.0
 10
41.871900
 20
84.645511
 30
0.0
 10
42.240200
 20
84.645511
 30
0.0
 10
42.608500
 20
84.645511
 30
0.0
  0
LWPOLYLINE
  5
15b
100
AcDbEntity
  8
0
 62
7
100
AcDbPolyline
 90
8
 70
1
 10
40.703500
 20
87.833211
 30
0.0
 10
40.703500
 20
88.480911
 30
0.0
 10
40.335200
 20
88.480911
 30
0.0
 10
39.966900
 20
88.480911
 30
0.0
 10
39.966900
 20
87.833211
 30
0.0
 10
39.966900
 20
87.185511
 30
0.0
 10
40.335200
 20
87.185511
 30
0.0
 10
40.703500
 20
87.185511
 30
0.0
  0
LWPOLYLINE
  5
15c
100
AcDbEntity
  8
0
 62
7
100
AcDbPolyline
 90
8
 70
1
 10
42.608500
 20
87.833211
 30
0.0
 10
42.608500
 20
88.480911
 30
0.0
 10
42.240200
 20
88.480911
 30
0.0
 10
41.871900
 20
88.480911
 30
0.0
 10
41.871900
 20
87.833211
 30
0.0
 10
41.871900
 20
87.185511
 30
0.0
 10
42.240200
 20
87.185511
 30
0.0
 10
42.608500
 20
87.185511
 30
0.0
  0
LWPOLYLINE
  5
15d
100
AcDbEntity
  8
0
 62
7
100
AcDbPolyline
 90
8
 70
1
 10
40.703500
 20
90.373211
 30
0.0
 10
40.703500
 20
91.020911
 30
0.0
 10
40.335200
 20
91.020911
 30
0.0
 10
39.966900
 20
91.020911
 30
0.0
 10
39.966900
 20
90.373211
 30
0.0
 10
39.966900
 20
89.725511
 30
0.0
 10
40.335200
 20
89.725511
 30
0.0
 10
40.703500
 20
89.725511
 30
0.0
  0
LWPOLYLINE
  5
15e
100
AcDbEntity
  8
0
 62
7
100
AcDbPolyline
 90
8
 70
1
 10
42.608500
 20
90.373211
 30
0.0
 10
42.608500
 20
91.020911
 30
0.0
 10
42.240200
 20
91.020911
 30
0.0
 10
41.871900
 20
91.020911
 30
0.0
 10
41.871900
 20
90.373211
 30
0.0
 10
41.871900
 20
89.725511
 30
0.0
 10
42.240200
 20
89.725511
 30
0.0
 10
42.608500
 20
89.725511
 30
0.0
  0
LWPOLYLINE
  5
15f
100
AcDbEntity
  8
0
 62
7
100
AcDbPolyline
 90
8
 70
1
 10
40.703500
 20
92.913211
 30
0.0
 10
40.703500
 20
93.560911
 30
0.0
 10
40.335200
 20
93.560911
 30
0.0
 10
39.966900
 20
93.560911
 30
0.0
 10
39.966900
 20
92.913211
 30
0.0
 10
39.966900
 20
92.265511
 30
0.0
 10
40.335200
 20
92.265511
 30
0.0
 10
40.703500
 20
92.265511
 30
0.0
  0
LWPOLYLINE
  5
160
100
AcDbEntity
  8
0
 62
7
100
AcDbPolyline
 90
8
 70
1
 10
42.608500
 20
92.913211
 30
0.0
 10
42.608500
 20
93.560911
 30
0.0
 10
42.240200
 20
93.560911
 30
0.0
 10
41.871900
 20
93.560911
 30
0.0
 10
41.871900
 20
92.913211
 30
0.0
 10
41.871900
 20
92.265511
 30
0.0
 10
42.240200
 20
92.265511
 30
0.0
 10
42.608500
 20
92.265511
 30
0.0
  0
LWPOLYLINE
  5
161
100
AcDbEntity
  8
0
 62
7
100
AcDbPolyline
 90
8
 70
1
 10
40.703500
 20
95.453211
 30
0.0
 10
40.703500
 20
96.100911
 30
0.0
 10
40.335200
 20
96.100911
 30
0.0
 10
39.966900
 20
96.100911
 30
0.0
 10
39.966900
 20
95.453211
 30
0.0
 10
39.966900
 20
94.805511
 30
0.0
 10
40.335200
 20
94.805511
 30
0.0
 10
40.703500
 20
94.805511
 30
0.0
  0
LWPOLYLINE
  5
162
100
AcDbEntity
  8
0
 62
7
100
AcDbPolyline
 90
8
 70
1
 10
42.608500
 20
95.453211
 30
0.0
 10
42.608500
 20
96.100911
 30
0.0
 10
42.240200
 20
96.100911
 30
0.0
 10
41.871900
 20
96.100911
 30
0.0
 10
41.871900
 20
95.453211
 30
0.0
 10
41.871900
 20
94.805511
 30
0.0
 10
42.240200
 20
94.805511
 30
0.0
 10
42.608500
 20
94.805511
 30
0.0
  0
ENDSEC
  0
SECTION
  2
OBJECTS
  0
DICTIONARY
  5
C
330
0
100
AcDbDictionary
  3
ACAD_GROUP
350
D
  3
ACAD_MLINESTYLE
350
17
  0
DICTIONARY
  5
D
330
C
100
AcDbDictionary
  0
DICTIONARY
  5
1A
330
C
100
AcDbDictionary
  0
DICTIONARY
  5
17
330
C
100
AcDbDictionary
  3
STANDARD
350
18
  0
DICTIONARY
  5
19
330
C
100
AcDbDictionary
  0
ENDSEC
  0
EOF
